<svg data-name="Gruppe 1963" xmlns="http://www.w3.org/2000/svg" width="632.105" height="574.008" viewBox="0 0 632.105 574.008">
    <defs>
        <clipPath id="8gxcxgv99a">
            <path data-name="Rechteck 450" style="fill:none;stroke:#fff;stroke-width:2px;stroke-dasharray:6 4" d="M0 0h632.105v574.008H0z"/>
        </clipPath>
        <clipPath id="44rz6md53b">
            <path data-name="Pfad 1846" d="m0 0 204.665 5.471 3.084 119.853-204.665-5.471z" style="fill:none;stroke:#fff;stroke-width:2px;stroke-dasharray:6 4"/>
        </clipPath>
    </defs>
    <g data-name="Gruppe 1962" style="clip-path:url(#8gxcxgv99a)">
        <path data-name="Pfad 1610" d="M1.1 66.955c2.855 0 22.786-4.312 25.606-4.74 6-.908 12.091-2.868 18.012-4.172 12.84-2.828 43.038-4.87 55.6-8.844 28.35-8.974 58.084-12.151 86.522-21.042q11.818-3.6 23.28-8.155 2.28.248 2.394 2.913a47.162 47.162 0 0 0 6.405 10.736 85.15 85.15 0 0 0 10.119 9.849c12.4 10.073 28.764 16.057 43.459 22.079 7.056 2.892 14.819 5.65 22.519 6.375C311.391 73.5 323.9 54.969 334.2 45.358c7.088-6.617 13.43-13.828 17.466-22.7a41.5 41.5 0 0 0 3.669-12.72 61.683 61.683 0 0 1 1.381-8.62c4.515-.907 9.407.394 13.582.844 4.943.531 9.771.19 14.753.788a123.154 123.154 0 0 0 16.241 2c6.586.14 13.191-.311 19.781-.187 14.189.264 28.469 1.469 42.646 2.191 17.053.869 34.224.275 51.293.271 17.8 0 35.762.782 53.536-.417A149.4 149.4 0 0 0 595.3 3.167a12.048 12.048 0 0 1 7.7-1.93c3.935 8.418 1.374 18.34 5.351 26.7a142.365 142.365 0 0 1 8.279 20.5c6.6 21.828 8.9 45.389 11.325 67.938 1.172 10.917 3.323 23.466 3.434 34.643-2.094.882-4.981.32-7.181.284-8.712-.139-17.489-.727-26.185-1.254-4.218-.255-8.522-1.738-12.654-.933a28.9 28.9 0 0 1-7.151.848c-9.256-.063-18.395 2.221-27.516 3.419-15.832 2.082-33.327 4.282-49.328 2.518-.276 1.675.352 3.26.788 5.127q3.392 14.677 6.492 29.417a1244.74 1244.74 0 0 1 7.582 39.6c7.468 42.852 17.163 85.192 23 128.412 7.932 58.781 14.016 117.714 20.3 176.668 0-.005 2.584 13.313.815 14.491-2.49 1.658-11.4.143-14.272.126-5.922-.041-11.709.52-17.621.931-6.684.465-14.025-.782-20.61.239-13.282 2.061-27.394 1.253-41.042 2.634-10.889 1.1-21.582 2.877-32.537 3.432q-15.152.5-30.264 1.673c-21.229 1.661-42.15 4.412-63.459 5.79-25.421 1.645-50.684 3.661-76.153 4.558q-44.312 1.187-88.631 2.1-14.57.037-29.073 1.306a13.925 13.925 0 0 1-11.022-.8c-1.449-4.538-.168-11.105-.168-15.8q0-10.37.028-20.737c.142-33.989-2.483-68.029-5.225-101.9-1.915-23.661-5.679-46.9-5.946-70.7-.4-35.212-.2-70.516.063-105.728.244-32.327 3.607-18.664 3.835-50.935-4.736-.659-9.533.151-14.286-.115-4.23-.235-8.11-1.228-12.435-1.451-18.033-.938-35.976 1.062-53.574-2.724-7.678-1.654-27.046 1.383-35.072.214z" transform="translate(-.152 -.081)" style="fill:none;stroke:#fff;stroke-width:2px;stroke-dasharray:6 4"/>
        <g data-name="Gruppe 1971">
            <g data-name="Gruppe 1970" style="clip-path:url(#44rz6md53b)" transform="rotate(27 -110.82 522.395)">
                <path data-name="Pfad 1623" d="M81.36 36.655c.849-5.777.323-11.749.76-17.6s2.041-11.9 6.234-15.647a14.069 14.069 0 0 1 14.1-2.534 16.4 16.4 0 0 1 9.924 11.44c1.444 6.227-.762 13.246 2.614 18.7 3.137 5.068 9.539 6.329 15.1 7.784s11.964 4.793 12.6 10.67c.138 1.268-.141 2.73-1.2 3.3a3.556 3.556 0 0 1-1.675.3c-7.038.034-15.2-1.958-20.22 2.907-5.073 4.921-3.586 13.6-3.444 21 .346 18.078-10.706 35.21-26.721 41.424a4.33 4.33 0 0 1-3.1.332c-2.25-.868-2.167-4.176-1.549-6.507a106.368 106.368 0 0 1 7.009-18.967c1.264-2.617 2.654-5.238 3.074-8.172s-.344-6.324-2.673-8.212c-2.543-2.061-6.064-1.761-9.1-1.056-13.227 3.075-24.305 11.583-35.737 18.83S22.853 108.2 9.189 106.164a9.354 9.354 0 0 1-4.983-1.939c-1.935-1.726-2.492-4.551-2.681-7.134a41.451 41.451 0 0 1 .9-12.2c.821-3.611 2.266-7.254 5.134-9.385 3-2.229 7-2.426 10.776-2.546l20.188-.643c3.923-.125 8.019-.3 11.345-2.3s5.549-6.459 3.879-10.248c-1.642-3.724-5.989-5.122-9.792-6.072l-23.717-5.929C14.4 46.309 8.329 44.733 3.6 40.746 1.734 39.172.035 37.012 0 34.579-.033 32.127 1.624 30.1 3.417 28.6c5.649-4.715 13.318-6.329 20.758-5.989S38.948 25.081 46.2 27.2c5.016 1.464 10.291 3.081 14.025 6.957 1.475 1.533 2.663 3.376 4.285 4.743 4.285 3.615 11.3 2.563 14.028-2.1" transform="translate(1.38 2.944)" style="fill:none;stroke:#fff;stroke-width:2px;stroke-dasharray:6 4"/>
                <path data-name="Pfad 1624" d="M0 0a184.359 184.359 0 0 1 20.705 2.66c7.5 1.425 15.636 3.9 20.114 10.46a34.7 34.7 0 0 1 3.766 8.433 5.1 5.1 0 0 1 .381 3.128c-.581 1.792-2.879 2.075-4.728 1.86-7.509-.872-14.476-5.062-20.524-10.034S8.292 5.716 2.245.744" transform="translate(161.265 58.453)" style="fill:none;stroke:#fff;stroke-width:2px;stroke-dasharray:6 4"/>
            </g>
        </g>
    </g>
</svg>
