<svg xmlns="http://www.w3.org/2000/svg" width="348.193" height="462.01" viewBox="0 0 348.193 462.01">
    <g data-name="Gruppe 2234">
        <path data-name="Pfad 1847" d="m-20706.316-668.181 127.027-4.613-11.943 198.048s18.838 29.169 18.838 42.337a13.162 13.162 0 0 0-11.572 7.3c-4.205 7.7 11.572 19.906 11.572 19.906s-.889 11.167-25.088 22.325-29.555 7.04-38.266 12.377-85.881 91.028-85.881 91.028-11.4 23.847-54.576 11.624c0 0 12.016-11.28-1.521-23.767s-21.033 12.143-21.033 12.143-25.471-26.455-12.24-61.308 97.514-117.465 100.023-133.965 4.66-193.435 4.66-193.435z" style="fill:none;stroke:#fff;stroke-width:2px;stroke-dasharray:6 4" transform="rotate(16 -12748.642 74121.937)"/>
        <path data-name="Pfad 1848" d="m-20687.076-630.547 125.047-7.873" transform="rotate(16 -12710.706 74032.837)" style="fill:none;stroke:#fff;stroke-width:2px;stroke-dasharray:6 4"/>
        <path data-name="Pfad 1849" d="m-20552.01-603.734-127.2-2.993" transform="rotate(16.95 -12605.144 69693.763)" style="fill:none;stroke:#fff;stroke-width:2px;stroke-dasharray:6 4"/>
        <path data-name="Pfad 1850" d="M-20539.406-423.355s-39.736 12.479-46.082 34.524-19.82 59.265-10.666 76.726" transform="rotate(16 -12528.92 73993.452)" style="fill:none;stroke:#fff;stroke-width:2px;stroke-dasharray:6 4"/>
        <path data-name="Pfad 1851" d="M-20806.508-269.575s34.768-.754 50.742 10.538 39.99 63.175 39.99 79.466" transform="rotate(16 -12452.453 74148.3)" style="fill:none;stroke:#fff;stroke-width:2px;stroke-dasharray:6 4"/>
    </g>
</svg>
