<svg xmlns="http://www.w3.org/2000/svg" width="1149.054" height="863.211" viewBox="0 0 1149.054 863.211">
    <defs>
        <clipPath id="y0u5lore9a">
            <path data-name="Rechteck 524" style="fill:none;stroke:#fff;stroke-width:2px;stroke-dasharray:6 4" d="M0 0h427.84v247.25H0z"/>
        </clipPath>
        <clipPath id="nb5kj2orhb">
            <path data-name="Rechteck 523" style="fill:none;stroke:#fff;stroke-width:2px;stroke-dasharray:6 4" d="M0 0h348v304.433H0z"/>
        </clipPath>
        <clipPath id="k5z2qy9tlc">
            <path data-name="Rechteck 525" style="fill:none;stroke:#fff;stroke-width:2px;stroke-dasharray:6 4" d="M0 0h306.054v266.312H0z"/>
        </clipPath>
    </defs>
    <g data-name="Gruppe 2285">
        <g data-name="Gruppe 2224">
            <g data-name="Gruppe 2271">
                <g data-name="Gruppe 2270" style="clip-path:url(#y0u5lore9a)" transform="translate(184 615.96)">
                    <path data-name="Pfad 1877" d="M43.97 74.365Q243.691 51.9 434.158 17" transform="translate(-32.148 -12.431)" style="stroke-miterlimit:10;fill:none;stroke:#fff;stroke-width:2px;stroke-dasharray:6 4"/>
                    <path data-name="Pfad 1878" d="m13.719 49.523.818 191.117c141.725 14.314 283.983-13.94 423.19-44.14-5.654-72.657-27.442-123.8-33.1-196.459" transform="translate(-10.03 -.028)" style="stroke-miterlimit:10;fill:none;stroke:#fff;stroke-width:2px;stroke-dasharray:6 4"/>
                    <path data-name="Pfad 1879" d="M47.579 213.188a44.379 44.379 0 0 1-10.585 35.446 44.378 44.378 0 0 1-33.967 14.654" transform="translate(-2.213 -155.868)" style="stroke-miterlimit:10;fill:none;stroke:#fff;stroke-width:2px;stroke-dasharray:6 4"/>
                    <path data-name="Pfad 1880" d="M.108 749.142c5.881-1.308 11.977.824 17.347 3.553a77.957 77.957 0 0 1 37.372 41.938" transform="translate(-.079 -547.43)" style="stroke-miterlimit:10;fill:none;stroke:#fff;stroke-width:2px;stroke-dasharray:6 4"/>
                    <path data-name="Pfad 1881" d="M1454.705 592.158c-11.788-4.13-25.239 2.131-33.089 11.846s-11.266 22.192-14.129 34.35" transform="translate(-1029.054 -431.999)" style="stroke-miterlimit:10;fill:none;stroke:#fff;stroke-width:2px;stroke-dasharray:6 4"/>
                    <path data-name="Pfad 1882" d="M1302.628 52.1c.821 7.451 5.955 13.977 12.414 17.781s14.1 5.17 21.593 5.339a54.042 54.042 0 0 0 19.557-2.849" transform="translate(-952.388 -38.09)" style="stroke-miterlimit:10;fill:none;stroke:#fff;stroke-width:2px;stroke-dasharray:6 4"/>
                    <path data-name="Pfad 1883" d="M716.963 243.837c-16.557 3.06-32.422 11.238-43.2 24.173s-16 30.786-12.192 47.188c3.432 14.8 14 27.549 27.418 34.661s29.442 8.755 44.305 5.617" transform="translate(-482.787 -178.276)" style="stroke-miterlimit:10;fill:none;stroke:#fff;stroke-width:2px;stroke-dasharray:6 4"/>
                    <path data-name="Pfad 1884" d="M580.458 443.887q32.211-3.328 64.647-3.466" transform="translate(-424.389 -322.004)" style="stroke-miterlimit:10;fill:none;stroke:#fff;stroke-width:2px;stroke-dasharray:6 4"/>
                    <path data-name="Pfad 1885" d="M577.58 512.73a533.937 533.937 0 0 1 77.239-9.6" transform="translate(-422.285 -367.853)" style="stroke-miterlimit:10;fill:none;stroke:#fff;stroke-width:2px;stroke-dasharray:6 4"/>
                </g>
            </g>
        </g>
        <g data-name="Gruppe 2269">
            <g data-name="Gruppe 2268" style="clip-path:url(#nb5kj2orhb)">
                <path data-name="Pfad 1868" d="M20.283 128.964A738.156 738.156 0 0 0 284.465.788c31.792 74.006 42.785 93.906 78.562 166.07" transform="translate(-15.141 -.588)" style="stroke-miterlimit:10;fill:none;stroke:#fff;stroke-width:2px;stroke-dasharray:6 4"/>
                <path data-name="Pfad 1869" d="M.488 565.621a868.546 868.546 0 0 1 20.477 160.808c97.753-68.955 215.273-102.638 323-154.542" transform="translate(-.364 -422.235)" style="stroke-miterlimit:10;fill:none;stroke:#fff;stroke-width:2px;stroke-dasharray:6 4"/>
                <path data-name="Pfad 1870" d="M58.369 495.757a31.7 31.7 0 0 1-8.832 45.816" transform="translate(-36.979 -370.082)" style="stroke-miterlimit:10;fill:none;stroke:#fff;stroke-width:2px;stroke-dasharray:6 4"/>
                <path data-name="Pfad 1871" d="M940.1 83.631c6.391 6.63 15 10.836 23.952 13.016s18.258 2.44 27.458 2.035" transform="translate(-701.783 -62.431)" style="stroke-miterlimit:10;fill:none;stroke:#fff;stroke-width:2px;stroke-dasharray:6 4"/>
                <path data-name="Pfad 1872" d="M1233.01 465.955c-6.658 5.71-10.862 13.8-13.656 22.12-2.825 8.405-4.258 18.036-.068 25.85" transform="translate(-908.233 -347.835)" style="stroke-miterlimit:10;fill:none;stroke:#fff;stroke-width:2px;stroke-dasharray:6 4"/>
                <path data-name="Pfad 1873" d="M63.439 1027.821c8.821-.969 17.755 2.1 25.071 7.118s13.176 11.891 18.343 19.1" transform="translate(-47.357 -767.133)" style="stroke-miterlimit:10;fill:none;stroke:#fff;stroke-width:2px;stroke-dasharray:6 4"/>
                <path data-name="Pfad 1874" d="M485.385 420.871a57.089 57.089 0 0 0-67.454 35.651c-3.261 8.858-3.776 20.03 3.054 26.545 3.553 3.389 8.479 4.893 13.287 5.886A89.9 89.9 0 0 0 503.04 474.8l-5.253-.65" transform="translate(-310.253 -312.925)" style="stroke-miterlimit:10;fill:none;stroke:#fff;stroke-width:2px;stroke-dasharray:6 4"/>
                <path data-name="Pfad 1875" d="M353.436 546.823a304.912 304.912 0 0 1 78.155-25.365" transform="translate(-263.839 -389.267)" style="stroke-miterlimit:10;fill:none;stroke:#fff;stroke-width:2px;stroke-dasharray:6 4"/>
                <path data-name="Pfad 1876" d="M377.767 633.423q34.405-14.711 70-26.4" transform="translate(-282.002 -453.14)" style="stroke-miterlimit:10;fill:none;stroke:#fff;stroke-width:2px;stroke-dasharray:6 4"/>
            </g>
        </g>
        <g data-name="Gruppe 2273">
            <g data-name="Gruppe 2272" transform="translate(843 524.238)" style="clip-path:url(#k5z2qy9tlc)">
                <path data-name="Pfad 1886" d="M24.732 540.794c17.579 5.838 33.851 15.057 49.334 25.223 57.684 37.872 105.254 88.955 152.214 139.516" transform="translate(-20.09 -439.284)" style="stroke-miterlimit:10;fill:none;stroke:#fff;stroke-width:2px;stroke-dasharray:6 4"/>
                <path data-name="Pfad 1887" d="M198.556 266.5c27.236-33.081 71.831-69.357 107.725-94.167-26.706-28.779-57.714-53.743-88.841-78.33C170.284 56.756 121.228 19.4 62.691.587c0 0-46.277 60.238-62.235 95.456" transform="translate(-.37 -.477)" style="stroke-miterlimit:10;fill:none;stroke:#fff;stroke-width:2px;stroke-dasharray:6 4"/>
                <path data-name="Pfad 1888" d="M242.859 56.6c8.393 1.424 16.973 2.694 25.386 1.391s16.767-5.57 21.04-12.933" transform="translate(-197.273 -36.603)" style="stroke-miterlimit:10;fill:none;stroke:#fff;stroke-width:2px;stroke-dasharray:6 4"/>
                <path data-name="Pfad 1889" d="M1489.182 801.655a63.342 63.342 0 0 0-2.948 18.893 32.9 32.9 0 0 0 5.424 18.126" transform="translate(-1207.253 -651.181)" style="stroke-miterlimit:10;fill:none;stroke:#fff;stroke-width:2px;stroke-dasharray:6 4"/>
                <path data-name="Pfad 1890" d="M958.824 1286.317a61 61 0 0 1 38.687.367" transform="translate(-778.847 -1042.458)" style="stroke-miterlimit:10;fill:none;stroke:#fff;stroke-width:2px;stroke-dasharray:6 4"/>
                <path data-name="Pfad 1891" d="M62.486 381.053a34.662 34.662 0 0 1 21.889 42.061" transform="translate(-50.757 -309.528)" style="stroke-miterlimit:10;fill:none;stroke:#fff;stroke-width:2px;stroke-dasharray:6 4"/>
                <path data-name="Pfad 1892" d="M690.753 464.245c-5.284-5.948-14.009-7.067-21.935-7.755-8.283-.719-16.747-1.378-24.814.632s-15.81 7.187-18.716 14.977c-3.954 10.6 2.067 22.513 10.224 30.348s18.432 13.227 26.443 21.213" transform="translate(-506.907 -370.23)" style="stroke-miterlimit:10;fill:none;stroke:#fff;stroke-width:2px;stroke-dasharray:6 4"/>
                <path data-name="Pfad 1893" d="m633.677 429.3 35.491 24.354a5.832 5.832 0 0 1-3.03.376" transform="translate(-514.732 -348.716)" style="stroke-miterlimit:10;fill:none;stroke:#fff;stroke-width:2px;stroke-dasharray:6 4"/>
                <path data-name="Pfad 1894" d="M542.26 518.625a505.222 505.222 0 0 1 51.912 23.792" transform="translate(-440.475 -421.277)" style="stroke-miterlimit:10;fill:none;stroke:#fff;stroke-width:2px;stroke-dasharray:6 4"/>
            </g>
        </g>
    </g>
</svg>
