<svg xmlns="http://www.w3.org/2000/svg" width="285.954" height="156.849" viewBox="0 0 285.954 156.849">
  <g id="Gruppe_1608" data-name="Gruppe 1608" transform="translate(-720.511 -1145.544)">
    <g id="Gruppe_1307" data-name="Gruppe 1307" transform="translate(55.265 17.762)">
      <path id="Pfad_982" data-name="Pfad 982" d="M779.325,1217.294c12.081,22.386,34.8,37.7,43.75,61.641" fill="none" stroke="#181b1f" stroke-miterlimit="10" stroke-width="2" stroke-dasharray="7 5 0 0 0 0"/>
      <path id="Pfad_983" data-name="Pfad 983" d="M820.213,1212.915q-22.9,34.289-48.06,66.838a3.5,3.5,0,0,0,3.442.966" fill="none" stroke="#181b1f" stroke-miterlimit="10" stroke-width="2" stroke-dasharray="7 5 0 0 0 0"/>
      <path id="Pfad_984" data-name="Pfad 984" d="M897.559,1158.172a424.725,424.725,0,0,0-6.378,81.258" fill="none" stroke="#181b1f" stroke-miterlimit="10" stroke-width="2" stroke-dasharray="7 5 0 0 0 0"/>
      <path id="Pfad_985" data-name="Pfad 985" d="M889.279,1261.777a24.351,24.351,0,0,0-.7,8.324" fill="none" stroke="#181b1f" stroke-miterlimit="10" stroke-width="2" stroke-dasharray="7 5 0 0 0 0"/>
      <path id="Pfad_986" data-name="Pfad 986" d="M927.686,1157.7l-5.951,86.128" fill="none" stroke="#181b1f" stroke-miterlimit="10" stroke-width="2" stroke-dasharray="7 5 0 0 0 0"/>
      <path id="Pfad_987" data-name="Pfad 987" d="M922.505,1270.588l-3.13,10.35.24-1.627" fill="none" stroke="#181b1f" stroke-miterlimit="10" stroke-width="2" stroke-dasharray="7 5 0 0 0 0"/>
      <path id="Pfad_988" data-name="Pfad 988" d="M950.216,1172.776a441.833,441.833,0,0,0-7.018,80.756" fill="none" stroke="#181b1f" stroke-miterlimit="10" stroke-width="2" stroke-dasharray="7 5 0 0 0 0"/>
      <path id="Pfad_989" data-name="Pfad 989" d="M941.45,1274.441l-1.366,9.732" fill="none" stroke="#181b1f" stroke-miterlimit="10" stroke-width="2" stroke-dasharray="7 5 0 0 0 0"/>
      <path id="Pfad_990" data-name="Pfad 990" d="M666.192,1128.782l87.961,3.294" fill="none" stroke="#181b1f" stroke-miterlimit="10" stroke-width="2" stroke-dasharray="7 5 0 0 0 0"/>
      <path id="Pfad_991" data-name="Pfad 991" d="M762.506,1134.519q-38.7,76.068-81.737,149.608" fill="none" stroke="#181b1f" stroke-miterlimit="10" stroke-width="2" stroke-dasharray="7 5 0 0 0 0"/>
      <path id="Pfad_992" data-name="Pfad 992" d="M665.263,1204.976l90.756-1.515" fill="none" stroke="#181b1f" stroke-miterlimit="10" stroke-width="2" stroke-dasharray="7 5 0 0 0 0"/>
    </g>
  </g>
</svg>
