<svg xmlns="http://www.w3.org/2000/svg" width="307.322" height="238.942" viewBox="0 0 307.322 238.942">
    <defs>
        <clipPath id="6qpab1555a">
            <path data-name="Rechteck 471" style="fill:none;stroke:#fff;stroke-width:2px;stroke-dasharray:6 4" d="M0 0h307.322v238.942H0z"/>
        </clipPath>
    </defs>
    <g data-name="Gruppe 2092">
        <g data-name="Gruppe 2085">
            <g data-name="Gruppe 2020">
                <g data-name="Gruppe 2019" style="clip-path:url(#6qpab1555a)">
                    <path data-name="Pfad 1693" d="M89.871 23.772c2.008 5.741 7.719 9.608 13.678 10.819s12.15.152 18.019-1.442c20.182-5.482 38.336-17.27 53.04-32.141l10.647 48.111c.767 3.465 1.558 6.993 3.345 10.06 2.281 3.914 5.989 6.752 9.6 9.485l58.541 44.275c1.233.932 2.554 2 2.85 3.518a6.41 6.41 0 0 1-.8 3.706l-8.938 20.288A90.149 90.149 0 0 1 305.709 167a6.018 6.018 0 0 1 1.911 3.022c.389 2.357-1.885 4.208-3.862 5.549-21.975 14.9-40.49 37.405-43.442 63.792l-10.991-40.345c-.627-2.3-1.323-4.721-3.05-6.364-1.945-1.851-4.782-2.331-7.438-2.721q-35.874-5.258-71.939-9.082a210.932 210.932 0 0 0-2.284 35.03 197.6 197.6 0 0 1-43.849-6.278c-2.8-.73-5.726-1.6-7.761-3.66-1.712-1.735-2.638-4.17-4.517-5.723-2.138-1.767-5.092-2.068-7.856-2.3L39.4 192.892c-2.685-.221-5.508-.419-7.956.7-6.449 2.956-6.151 12.343-10.5 17.949a67.155 67.155 0 0 1-17.63-11.3c-1.3-1.152-2.626-2.509-2.8-4.234a6.172 6.172 0 0 1 1.273-3.871c5.409-8.21 17.41-12.086 19.073-21.776.432-2.517.051-5.091-.076-7.642a38.514 38.514 0 0 1 7.416-24.543c1.112-1.506 2.387-3.063 2.507-4.931.141-2.217-1.379-4.155-2.814-5.851l-15.72-18.571a6.77 6.77 0 0 1-1.853-3.293 6.781 6.781 0 0 1 1.145-3.93l21.411-40.185c.618-1.161 1.356-2.423 2.611-2.816a6.271 6.271 0 0 1 3.312.335C49.045 61.452 58.094 52.262 64.655 44l16.314-20.546c1.105-1.392 2.417-2.9 4.189-3.037" transform="translate(-.42 -.848)" style="stroke-miterlimit:10;fill:none;stroke:#fff;stroke-width:2px;stroke-dasharray:6 4"/>
                </g>
            </g>
        </g>
    </g>
</svg>
