<svg xmlns="http://www.w3.org/2000/svg" width="464.702" height="491.614">
    <path d="m279.312 486.51 3.238 3.809-1.524 1.3-3.238-3.809zm-6.475-7.618 3.238 3.809-1.524 1.3-3.238-3.809zm-6.475-7.618 3.238 3.809-1.524 1.3-3.238-3.809zm-6.475-7.618 3.238 3.809-1.524 1.3-3.238-3.809zm-6.475-7.618 3.238 3.809-1.524 1.3-3.238-3.809zm-6.475-7.618 3.238 3.809-1.524 1.3-3.238-3.809zm-6.182-7.536a7.961 7.961 0 0 0 1.137 1.6l1.807 2.126-1.524 1.3-1.807-2.126a9.65 9.65 0 0 1-1.406-2.011zm10.2 1.118.235 1.986-.137.016-.235-1.986zm9.908-1.2.249 1.984-1.6.2-3.364.412-.24-1.985.864-.1zm9.9-1.306.276 1.98-2.446.336-2.516.336-.261-1.982 2.508-.335zm-68.986-.434q2.488.071 4.958.037l.027 2q-2.512.034-5.042-.038zm14.852-.53.2 1.989q-2.5.255-5.028.4l-.114-2q2.48-.142 4.939-.392zm-24.764-.155q2.478.27 4.94.442l-.139 1.995q-2.5-.174-5.018-.449zm88.777-.358.318 1.974-1.219.194-2.475.384-1.257.189-.3-1.978 1.251-.189 2.464-.382zm-98.589-1.086q2.454.453 4.894.814l-.292 1.978q-2.477-.365-4.966-.825zm108.4-.628.373 1.965q-2.426.46-4.932.9l-.344-1.97q2.494-.435 4.9-.892zm-118.117-1.517q2.42.62 4.829 1.152l-.432 1.952q-2.441-.54-4.893-1.168zm71.71-2.158 1.4 1.424-3.56 3.511-1.4-1.424zm56.151 1.651.442 1.95q-2.415.548-4.9 1.064l-.406-1.958q2.472-.512 4.868-1.056zm-137.38-2.252q2.38.769 4.751 1.457l-.557 1.92q-2.4-.7-4.809-1.474zm147.055-.159.527 1.929q-2.395.654-4.859 1.267l-.483-1.94q2.444-.608 4.815-1.256zm9.538-2.87.626 1.9q-2.363.78-4.8 1.509l-.575-1.915q2.407-.723 4.744-1.493zm-165.97-.305q2.333.9 4.66 1.729l-.669 1.884q-2.353-.836-4.712-1.748zm97.727-3.089 1.4 1.424-3.559 3.509-1.4-1.424zm77.575.006.74 1.857q-2.315.923-4.7 1.788l-.682-1.88q2.356-.854 4.642-1.765zm-184.5-.749q2.285 1.021 4.567 1.972l-.77 1.846q-2.3-.961-4.613-1.992zm193.592-3.239.868 1.8q-2.252 1.085-4.576 2.1l-.8-1.831q2.291-1 4.511-2.073zm-202.592-1.04q2.235 1.126 4.469 2.189l-.859 1.806q-2.254-1.072-4.51-2.209zm123.043-2 1.4 1.424-3.56 3.511-1.4-1.424zm88.328-1.612 1.005 1.728q-2.166 1.26-4.406 2.446l-.936-1.767q2.2-1.167 4.336-2.407zm-220.153-1.054q2.185 1.22 4.37 2.383l-.939 1.766q-2.2-1.172-4.407-2.4zm138.946-4.351 1.4 1.424-3.56 3.51-1.4-1.424zm89.559.071 1.148 1.637q-2.058 1.444-4.192 2.807l-1.077-1.685q2.1-1.34 4.12-2.758zm-237.1-.747q2.135 1.305 4.273 2.557l-1.01 1.726q-2.155-1.261-4.306-2.577zm244.953-5.305 1.291 1.527q-1.926 1.628-3.928 3.17l-1.22-1.584q1.966-1.514 3.857-3.113zm-253.337-.035q2.074 1.375 4.173 2.712l-1.074 1.686q-2.114-1.346-4.2-2.732zm163.04-1 1.4 1.424-3.559 3.51-1.4-1.424zm-171.249-4.66q2.022 1.45 4.072 2.864l-1.135 1.646q-2.064-1.424-4.1-2.885zm268.808-1.04 1.425 1.4q-1.787 1.814-3.618 3.514l-1.36-1.466q1.8-1.67 3.554-3.452zm-276.793-4.915q1.968 1.524 3.966 3.013l-1.195 1.6q-2.012-1.5-4-3.036zm283.456-2.427 1.532 1.286q-1.638 1.952-3.31 3.8l-1.481-1.343q1.647-1.817 3.26-3.739zm-291.232-3.832q1.91 1.6 3.852 3.16l-1.254 1.563q-1.957-1.575-3.881-3.184zm297.361-4 1.613 1.181q-1.506 2.057-3.034 4.012l-1.575-1.231q1.509-1.931 3-3.962zM78 381.15q1.847 1.668 3.73 3.3l-1.311 1.51q-1.9-1.648-3.758-3.328zm310.524-5.655 1.674 1.094q-1.4 2.136-2.8 4.172l-1.646-1.135q1.39-2.016 2.771-4.13zm-317.788-1.158q1.781 1.736 3.6 3.442l-1.368 1.458q-1.832-1.719-3.627-3.469zm323.053-7.3 1.718 1.023q-1.309 2.2-2.609 4.287l-1.7-1.056q1.291-2.076 2.589-4.254zm-330.058.193q1.71 1.8 3.459 3.579l-1.424 1.4q-1.763-1.789-3.487-3.607zm-6.685-7.343q1.636 1.872 3.315 3.715l-1.478 1.346q-1.692-1.858-3.342-3.745zm341.709-1.5 1.748.971q-1.247 2.245-2.463 4.365l-1.735-.995q1.211-2.112 2.449-4.341zm-348.11-6.136q1.555 1.941 3.155 3.849l-1.532 1.285q-1.615-1.926-3.185-3.879zm352.86-2.641 1.768.935-1.282 2.409-1.082 2.011-1.759-.951.536-.993 1.092-2.04zm-358.942-5.254q1.474 2 3 3.978l-1.584 1.22q-1.534-1.993-3.021-4.012zm363.518-3.608 1.786.9q-1.113 2.214-2.275 4.464l-1.777-.918q1.158-2.242 2.266-4.444zm-369.252-4.542q1.385 2.062 2.819 4.1l-1.635 1.151q-1.446-2.056-2.843-4.136zm373.623-4.415 1.808.854q-1.06 2.244-2.17 4.518l-1.8-.877q1.1-2.263 2.159-4.495zm-378.993-3.98q1.292 2.123 2.635 4.222l-1.684 1.078q-1.355-2.118-2.658-4.26zm383.121-5.086 1.832.8q-1 2.276-2.045 4.577l-1.82-.829q1.043-2.288 2.033-4.55zm-388.1-3.54q1.194 2.18 2.44 4.338l-1.731 1q-1.258-2.178-2.463-4.378zm391.958-5.664 1.857.741q-.922 2.311-1.9 4.643l-1.844-.772q.97-2.317 1.886-4.611zM23.92 310.385q1.09 2.232 2.236 4.444l-1.776.92q-1.156-2.232-2.257-4.486zm400.037-6.193 1.884.67q-.835 2.345-1.728 4.71l-1.871-.707q.887-2.347 1.715-4.673zm-404.19-2.852q.982 2.283 2.022 4.546l-1.817.834q-1.049-2.285-2.041-4.59zm407.332-6.6 1.911.59q-.735 2.382-1.534 4.782l-1.9-.631q.792-2.379 1.52-4.74zM16.054 292.1q.87 2.328 1.8 4.638l-1.854.746q-.937-2.332-1.816-4.684zm413.755-6.929 1.937.5q-.622 2.418-1.312 4.851l-1.924-.545q.683-2.411 1.3-4.8zM12.8 282.682c.268.842.541 1.681.82 2.522q.368 1.106.749 2.208l-1.89.653q-.385-1.113-.756-2.231c-.283-.85-.558-1.7-.829-2.547zm419.237-7.2 1.96.4q-.494 2.45-1.061 4.914l-1.949-.448q.561-2.439 1.05-4.862zm-422.024-2.343q.642 2.409 1.336 4.79l-1.92.56q-.7-2.4-1.349-4.835zm423.712-7.465 1.98.281q-.352 2.477-.781 4.968l-1.971-.34q.424-2.462.772-4.909zM7.67 263.452q.532 2.44 1.115 4.852l-1.944.47q-.589-2.434-1.125-4.9zm427.146-7.65 1.993.156q-.2 2.5-.474 5.011l-1.987-.22q.275-2.481.468-4.947zM5.759 253.673q.426 2.461.9 4.9l-1.963.383q-.479-2.456-.909-4.938zm429.5-7.805 2 .021q-.027 2.508-.14 5.029l-2-.09q.112-2.488.138-4.961zm-431-2.029q.325 2.477.7 4.93l-1.977.3q-.376-2.473-.7-4.97zm432.747-8.013q.152 2.507.214 5.028l-2 .049q-.061-2.485-.211-4.956zm-433.85-1.9q.229 2.488.5 4.953l-1.987.221q-.276-2.484-.506-4.991zm-.728-9.947q.137 2.5.318 4.969l-1.989.152q-.182-2.492-.32-5.005zm-.372-9.933q.051 2.5.144 4.981l-2 .075q-.093-2.5-.145-5.015zm-2.038-10 2 .025q-.031 2.5-.022 4.982H2l-2 .007q-.009-2.5.022-5.014zm437.916-8.365 1.069 1.69c-.717.453-1.441.895-2.1 1.279a4.711 4.711 0 0 1-2.6.845 2.956 2.956 0 0 1-.6-.1l.526-1.929.1.031a2.772 2.772 0 0 0 1.5-.528q1.069-.626 2.116-1.289zM.3 194.022l2 .086q-.108 2.5-.178 4.981l-2-.056q.07-2.5.179-5.012zm428.9-4.229q1.306 2.155 2.522 4.364l-1.752.965q-1.2-2.172-2.481-4.292zm16.687.071 1.288 1.53q-1.938 1.631-3.985 3.129l-1.181-1.614q1.991-1.457 3.878-3.046zM.886 184l1.994.145q-.181 2.494-.325 4.974l-2-.116q.145-2.494.327-5zm452.108-.983 1.483 1.342q-1.7 1.879-3.525 3.639l-1.388-1.439q1.775-1.712 3.431-3.542zm-29.377-1.64q1.481 2.039 2.876 4.14l-1.665 1.107q-1.372-2.065-2.829-4.071zm35.5-6.121 1.651 1.129q-1.431 2.093-3 4.083l-1.57-1.238q1.526-1.937 2.919-3.974zM1.75 174.005l1.99.2q-.25 2.489-.464 4.964L1.284 179q.216-2.489.466-4.991zm415.614-.528q1.645 1.91 3.209 3.887l-1.568 1.241q-1.538-1.944-3.157-3.823zm45.582-4.487 1.756.956q-.6 1.1-1.232 2.175l-1.723-1.015q.617-1.048 1.2-2.117zm-52.484-2.885q1.8 1.767 3.52 3.607l-1.46 1.367q-1.694-1.809-3.463-3.547zm-407.58-2.058 1.984.251q-.314 2.481-.6 4.95l-1.987-.226q.282-2.482.6-4.976zm400.1-4.7q1.939 1.612 3.809 3.3l-1.341 1.483q-1.839-1.663-3.746-3.249zm20.746.458 2 .023q-.018 1.561-.077 3.117l-2-.076q.059-1.529.076-3.063zM4.265 154.129l1.977.3q-.351 2.3-.682 4.659l-.039.277-1.98-.276.263-1.852q.226-1.567.461-3.109zm421.156-4.376q.183 2.522.26 5.034l-2 .062q-.076-2.47-.256-4.951zm-419.5-5.516 1.967.359q-.443 2.427-.857 4.908l-1.972-.329q.417-2.5.862-4.938zm418.375-4.5q.381 2.5.663 4.995l-1.987.224q-.277-2.455-.652-4.918zM7.883 134.4l1.954.426q-.525 2.411-1.017 4.876l-1.961-.391q.5-2.483 1.024-4.91zm414.517-4.57q.564 2.466 1.035 4.927l-1.964.375q-.463-2.425-1.02-4.857zm-412.192-5.2 1.935.5q-.62 2.389-1.2 4.833L9 129.5q.586-2.464 1.211-4.872zm409.606-4.537q.731 2.422 1.374 4.842l-1.933.513q-.634-2.387-1.356-4.777zm-406.872-5.12 1.911.589q-.727 2.358-1.409 4.772l-1.924-.544q.689-2.437 1.422-4.817zm403.662-4.411q.88 2.369 1.679 4.74l-1.895.639q-.789-2.341-1.659-4.682zm-400.46-5.124 1.878.686q-.846 2.317-1.643 4.693l-1.9-.636q.806-2.4 1.66-4.742zm396.684-4.193q1.015 2.314 1.955 4.632l-1.853.751q-.929-2.291-1.933-4.58zM64.61 98.749l1.97.342q-.427 2.455-.817 4.917l-1.975-.313q.392-2.476.822-4.946zm-44.749-2.658 1.836.793q-.978 2.265-1.9 4.592l-1.858-.738q.935-2.354 1.925-4.646zm388.679-3.954q1.137 2.255 2.2 4.517l-1.808.853q-1.056-2.238-2.181-4.47zM66.473 88.9l1.959.4q-.5 2.441-.963 4.89l-1.969-.374q.466-2.463.968-4.919zM24.14 86.985l1.781.909q-1.122 2.2-2.184 4.46l-1.81-.85Q23 89.212 24.14 86.985zm379.655-3.7q1.245 2.193 2.426 4.4l-1.762.945q-1.17-2.182-2.4-4.354zM68.63 79.1l1.946.459q-.572 2.426-1.108 4.86l-1.953-.43q.539-2.449 1.115-4.889zm-39.595-.93 1.712 1.03q-.649 1.074-1.286 2.175-.608 1.052-1.2 2.121l-1.748-.97q.6-1.084 1.219-2.152.647-1.119 1.305-2.208zm369.6-3.506q1.343 2.132 2.629 4.278l-1.715 1.028q-1.274-2.126-2.605-4.239zM34.6 69.765l1.617 1.176q-1.437 1.978-2.817 4.071l-1.668-1.1q1.408-2.129 2.874-4.144zm36.477-.4 1.932.517q-.644 2.407-1.252 4.823l-1.939-.488q.612-2.431 1.259-4.852zm322.015-3.083q1.433 2.07 2.814 4.158l-1.668 1.1q-1.369-2.07-2.791-4.123zM40.954 61.895l1.487 1.337q-1.633 1.816-3.2 3.766l-1.561-1.255q1.6-1.992 3.274-3.849zm32.859-2.167 1.915.574q-.715 2.387-1.4 4.785l-1.918-.547q.684-2.412 1.4-4.813zM387.2 58.144q1.481 1.952 2.988 4.036l-1.62 1.172q-1.5-2.07-2.961-4zM48.161 54.79l1.31 1.511q-1.843 1.6-3.62 3.354l-1.405-1.423q1.822-1.8 3.715-3.442zm28.676-4.632 1.9.631q-.786 2.365-1.537 4.741l-1.907-.6q.755-2.391 1.546-4.77zm304.061.155q1.607 1.872 3.213 3.872l-1.559 1.252q-1.588-1.976-3.171-3.821zm-6.867-7.4q1.764 1.745 3.506 3.625L376.07 47.9q-1.714-1.849-3.445-3.563zM80.136 40.7l1.891.65c-.037.108-.076.217-.119.335l-.79 2.188-.774 2.194-1.888-.659Q79.228 43.2 80.03 41zM366.5 36.179q.89.716 1.758 1.449 1.055.892 2.094 1.824l-1.332 1.488q-1.019-.914-2.05-1.785-.849-.717-1.72-1.418zM75.779 33.9c1.261.437 2.547.891 3.809 1.348a4.656 4.656 0 0 1 1.071.437l-.98 1.743a3 3 0 0 0-.689-.274L78 36.8l-1.93-.682-.946-.329zm282.539-3.637q2.135 1.389 4.163 2.853l-1.17 1.621q-1.989-1.436-4.083-2.8zm-292.064.5q2.393.748 4.775 1.532l-.625 1.9q-2.367-.78-4.746-1.523zm-9.619-2.844q2.415.674 4.819 1.384l-.567 1.918q-2.387-.708-4.787-1.378zm293-2.779q2.249 1.2 4.394 2.468l-1.015 1.723q-2.111-1.243-4.324-2.428zm-302.706.23q2.435.6 4.86 1.236l-.508 1.934q-2.41-.633-4.83-1.228zm-9.771-2.246q2.452.524 4.9 1.086l-.448 1.949q-2.428-.558-4.865-1.079zM340.586 20.7q2.33 1.048 4.556 2.136l-.879 1.8q-2.2-1.075-4.5-2.109zm-313.269.475q2.467.449 4.926.935l-.388 1.962q-2.444-.483-4.9-.929zm92.422-1.575.605 1.906q-2.371.753-4.745 1.534l-.625-1.9q2.383-.783 4.764-1.54zm211.568-2.766q2.388.924 4.662 1.869l-.767 1.846q-2.253-.936-4.616-1.85zm-202-.167.566 1.918q-2.385.7-4.774 1.435l-.586-1.912q2.4-.735 4.794-1.441zm9.643-2.733.524 1.93q-2.4.652-4.8 1.333l-.545-1.924q2.413-.684 4.823-1.339zm182.906-.525q2.379.806 4.737 1.661l-.681 1.88q-2.339-.848-4.7-1.647zm-173.2-2 .481 1.941q-2.417.6-4.838 1.229l-.5-1.935q2.432-.632 4.86-1.234zm163.614-1.02q2.411.706 4.8 1.46l-.6 1.907q-2.372-.748-4.763-1.448zM158.423 9.114l.436 1.951q-2.43.543-4.866 1.117l-.459-1.946q2.447-.577 4.888-1.123zm144.156-1.346q2.438.606 4.858 1.261l-.522 1.93q-2.4-.649-4.819-1.25zm-134.366-.719.387 1.961q-2.437.483-4.881 1l-.413-1.957q2.455-.518 4.9-1zM292.781 5.54q2.461.508 4.9 1.063l-.443 1.95Q294.819 8 292.377 7.5zm-114.693-.321.339 1.971q-2.45.422-4.908.878l-.364-1.968q2.47-.458 4.933-.882zM282.912 3.7q2.479.412 4.942.87l-.366 1.966q-2.443-.455-4.9-.863zM188 3.644l.288 1.979q-2.461.358-4.93.75L183.04 4.4q2.482-.4 4.96-.756zm9.935-1.308.234 1.986q-2.469.291-4.948.617l-.261-1.982q2.492-.328 4.975-.62zm75.047-.089q2.494.318 4.972.681l-.29 1.978q-2.459-.36-4.935-.675zM207.9 1.306l.177 1.992q-2.475.22-4.96.477l-.206-1.989q2.5-.259 4.988-.48zm55.119-.141q2.5.226 4.993.5l-.216 1.988q-2.471-.268-4.957-.493zm-45.109-.6.118 2q-2.483.147-4.976.332L212.9.9q2.508-.186 5.006-.334zM253 .44q2.511.137 5.007.318l-.144 1.994q-2.479-.179-4.972-.316zM227.925.125l.056 2Q225.5 2.194 223 2.3l-.088-2q2.512-.11 5.012-.181zm15.054-.061q2.513.052 5.013.145l-.075 2q-2.483-.093-4.979-.144zM236.3 0h1.668l-.008 2q-2.484-.01-4.98.021l-.024-2q2.513-.031 5.012-.021z" style="fill:#2b2e34"/>
</svg>
