<svg xmlns="http://www.w3.org/2000/svg" width="276.029" height="272.27" viewBox="0 0 276.029 272.27">
  <g id="Gruppe_1420" data-name="Gruppe 1420" transform="translate(-75.923 -2427.198)">
    <path id="Pfad_1021" data-name="Pfad 1021" d="M203.306,2671.578c-20.937,2.186-41.837-5.032-60.057-15.54-26.7-15.4-49.665-38.917-59.855-68.252-7.7-22.179-7.787-46.5-4.038-69.772,2.436-15.12,6.557-30.242,14.692-43.2a55.652,55.652,0,0,1,13.384-15.072" fill="none" stroke="#181b1f" stroke-miterlimit="9.998" stroke-width="2" stroke-dasharray="7 5 0 0 0 0"/>
    <path id="Pfad_1022" data-name="Pfad 1022" d="M116.294,2485.433a177.938,177.938,0,0,1,9.963-34.578c.3-.738.575-1.656.066-2.261a2.144,2.144,0,0,0-1.02-.559,201.354,201.354,0,0,0-33.1-7.8" fill="none" stroke="#181b1f" stroke-miterlimit="9.998" stroke-width="2" stroke-dasharray="7 5 0 0 0 0"/>
    <path id="Pfad_1023" data-name="Pfad 1023" d="M145.414,2440.646c41.212-12.977,86.39-17.944,127.073-3.846,7.9,2.739,15.652,6.222,22.244,11.4a76.407,76.407,0,0,1,13.42,14.212c11.8,15.566,20.629,34.5,19.61,54.148" fill="none" stroke="#181b1f" stroke-miterlimit="9.998" stroke-width="2" stroke-dasharray="7 5 0 0 0 0"/>
    <path id="Pfad_1024" data-name="Pfad 1024" d="M314.746,2515.645a65.7,65.7,0,0,1,17.012,19.47c.4.7.918,1.489,1.715,1.524a2.313,2.313,0,0,0,1.171-.378,43.478,43.478,0,0,0,16.451-15.808" fill="none" stroke="#181b1f" stroke-miterlimit="9.998" stroke-width="2" stroke-dasharray="7 5 0 0 0 0"/>
    <path id="Pfad_1025" data-name="Pfad 1025" d="M334.7,2557.184c1.225,22.588-8.507,44.355-19.854,63.938-6.149,10.614-12.98,21.072-22.289,29-18.7,15.927-44.459,19.475-68.693,22.377" fill="none" stroke="#181b1f" stroke-miterlimit="9.998" stroke-width="2" stroke-dasharray="7 5 0 0 0 0"/>
    <path id="Pfad_1026" data-name="Pfad 1026" d="M241.332,2698.795l-23.794-26.155a2,2,0,0,1,.061-3.458l19.376-17.81" fill="none" stroke="#181b1f" stroke-miterlimit="9.998" stroke-width="2" stroke-dasharray="7 5 0 0 0 0"/>
  </g>
</svg>
