<svg xmlns="http://www.w3.org/2000/svg" width="327.285" height="324.677" viewBox="0 0 327.285 324.677">
    <g data-name="Gruppe 2248">
        <path data-name="Pfad 1623" d="M136 31.621c.96-9.214 3.835-18.8 10.84-24.865a23.814 23.814 0 0 1 38.867 12.994c2.1 9.73-1.8 20.859 3.483 29.294 4.911 7.837 15.316 9.55 24.334 11.6s19.34 7.036 20.135 16.256c.172 1.988-.346 4.3-2.106 5.239a6.172 6.172 0 0 1-2.748.535c-11.5.349-24.753-2.44-33.15 5.421-8.493 7.951 3.506 28.443 3.427 40.076-.2 28.41-12.28 64.927-38.7 75.371-1.622.641-14.062 1.674-15.708 1.1-10.081-4.347-14.328-17.6-13.22-21.294-.545-11.994 4.889-19.021 9.908-28.643 2.175-4.169 4.556-8.348 5.365-12.979s-.3-9.93-4.021-12.8c-4.068-3.134-9.831-2.515-14.815-1.278-21.73 5.393-40.182 19.234-59.161 31.112s-33.28 15.527-55.513 12.894c-2.871-.34-5.858-.964-8.058-2.839-3.089-2.633-3.879-7.05-4.08-11.1a63.668 63.668 0 0 1 1.988-19.225c1.493-5.712 3.033-12.21 7.808-15.682 3.638-6.564 5.695-10.713 11.861-11.061 12.309-4.139 15.779-8.526 26.779-9.146 6.413-.361 16.232-13.073 12.283-18.88s-15.248-1.583-28.08-4.356c-9.475-2.048-19.326-4.27-26.882-10.341-2.982-2.4-5.667-5.722-5.621-9.546.048-3.853 2.84-7.113 5.832-9.542 9.425-7.651 22.021-10.512 34.158-10.29s24.026 3.262 35.783 6.285c8.133 2.09 16.681 4.411 22.617 10.349 2.351 2.351 21.794 1.026 26.446-6.428s8.993-9.017 9.949-18.231z" transform="rotate(43 70.167 178.175)" style="fill:none;stroke:#fff;stroke-width:2px;stroke-dasharray:6 4"/>
        <path data-name="Pfad 1624" d="M564.012 183.992a306.817 306.817 0 0 1 33.708 3.312c12.187 1.926 25.377 5.468 32.414 15.6 2.734 3.937 4.283 8.554 5.8 13.1.529 1.589-.41 3.608-.978 5.184-1.025 2.843-10.242 8.346-13.252 8.086-12.23-1.055-16.513-12.6-26.182-20.157s-18.206-16.489-27.874-24.051" transform="rotate(43 346.23 -156.657)" style="fill:none;stroke:#fff;stroke-width:2px;stroke-dasharray:6 4"/>
    </g>
</svg>
