<svg id="Gruppe_2052" data-name="Gruppe 2052" xmlns="http://www.w3.org/2000/svg" width="782.208" height="659.064" viewBox="0 0 782.208 659.064">
    <defs>
        <clipPath id="clip-path">
            <path id="Rechteck_483" data-name="Rechteck 483" style="fill:none;stroke:#fff;stroke-width:2px;stroke-dasharray:6 4" d="M0 0h782.208v659.064H0z"/>
        </clipPath>
        <style>
            .cls-3{fill:none;stroke:#fff;stroke-width:2px;stroke-dasharray:6 4;stroke-miterlimit:10}
        </style>
    </defs>
    <g id="Gruppe_2051" data-name="Gruppe 2051" style="clip-path:url(#clip-path)">
        <path id="Pfad_1728" data-name="Pfad 1728" class="cls-3" d="M261.473 190.994C191.54 327.528 95.858 448.91.808 569.316a2669.314 2669.314 0 0 1 251.37 115.236 3946.83 3946.83 0 0 0 261.273-408.7c2.964-5.333 5.979-10.87 6.54-16.946.724-7.847-2.725-15.408-6.09-22.533l-45.794-96.944c-1.28-2.71-2.907-5.719-5.814-6.452-2.2-.556-4.468.39-6.543 1.307A797.246 797.246 0 0 1 251.888 193.4" transform="translate(-.158 -26.005)"/>
        <path id="Pfad_1729" data-name="Pfad 1729" class="cls-3" d="M538.21 214.061a191.272 191.272 0 0 0-60.2-1.881c-4.666.6-10.215 2.123-11.5 6.648-.906 3.193.834 6.54 2.949 9.1 9.571 11.575 26.135 14.056 41.138 14.759 6.218.291 12.577.4 18.519-1.457s11.485-6.018 13.473-11.917-.62-13.42-6.447-15.61" transform="translate(-91.299 -41.246)"/>
        <path id="Pfad_1730" data-name="Pfad 1730" class="cls-3" d="M508.327 201.142c2.52-14.29 13.717-25.889 26.7-32.365s27.669-8.574 42.1-10.045c47.439-4.833 95.348-3.836 142.734-9.177s95.351-17.642 133.735-45.934c12.544-9.246 24.54-21.23 27.2-36.584 3.54-20.44-10.9-40.227-28.477-51.249-43.55-27.316-101.316-14.225-146.887 9.567-51.118 26.687-96.753 67.205-120.12 119.923" transform="translate(-99.535 -.098)"/>
    </g>
</svg>
