<svg xmlns="http://www.w3.org/2000/svg" width="204.552" height="140.039" viewBox="0 0 204.552 140.039">
  <g id="Gruppe_1606" data-name="Gruppe 1606" transform="translate(-137.33 -1153.429)">
    <g id="Gruppe_1309" data-name="Gruppe 1309" transform="translate(55.265 17.762)">
      <path id="Pfad_989" data-name="Pfad 989" d="M184.216,1215.133a39,39,0,0,0-15.321,1.856c-4.137,1.376-8.465,4.044-9.057,8.193a8.623,8.623,0,0,0,3.2,7.421,20.342,20.342,0,0,0,7.69,3.812c5.881,1.758,12.709,2.334,17.844-.921a12.67,12.67,0,0,0,4.7-15.7,6.551,6.551,0,0,0-2.354-2.857,8.869,8.869,0,0,0-2.8-.961,84.74,84.74,0,0,0-11.926-1.709" fill="none" stroke="#181b1f" stroke-miterlimit="10" stroke-width="2" stroke-dasharray="7 5 0 0 0 0"/>
      <path id="Pfad_990" data-name="Pfad 990" d="M231.678,1171.675c-4.265-2.3-9.573-2.2-14.276-.885-2.8.779-5.585,2.035-7.385,4.229-2.715,3.309-2.554,8.271-.235,11.845s6.444,5.834,10.74,6.74a23.546,23.546,0,0,0,22.509-7.73,6.637,6.637,0,0,0,1.586-2.986,5.265,5.265,0,0,0-1.823-4.513,16.813,16.813,0,0,0-4.4-2.7c-2.575-1.235-5.359-2.505-8.209-2.107" fill="none" stroke="#181b1f" stroke-miterlimit="10" stroke-width="2" stroke-dasharray="7 5 0 0 0 0"/>
      <path id="Pfad_991" data-name="Pfad 991" d="M238.478,1208.934c-6.139-.649-12.321,2.513-15.969,7.28s-4.968,10.9-4.6,16.8c.241,3.88,1.332,7.988,4.4,10.541,2.195,1.828,5.111,2.62,7.948,3.242a107.327,107.327,0,0,0,21.508,2.481c8.477.117,17.356-.9,24.372-5.455s11.5-13.441,8.5-21.024c-2.428-6.142-8.9-9.928-15.32-12.261a68.393,68.393,0,0,0-33.852-3.228" fill="none" stroke="#181b1f" stroke-miterlimit="10" stroke-width="2" stroke-dasharray="7 5 0 0 0 0"/>
      <path id="Pfad_992" data-name="Pfad 992" d="M176.727,1264.107c-2.869,1.645-2.824,6.055-.457,8.314s6.151,2.625,9.4,1.852c3.6-.855,6.958-3.09,8.432-6.339a7.891,7.891,0,0,0-2.327-9.583,9.817,9.817,0,0,0-3.593-1.46,10.621,10.621,0,0,0-3.464-.217c-4.049.485-6.969,3.821-9.459,6.912" fill="none" stroke="#181b1f" stroke-miterlimit="10" stroke-width="2" stroke-dasharray="7 5 0 0 0 0"/>
      <path id="Pfad_994" data-name="Pfad 994" d="M178.407,1136.441a33.406,33.406,0,0,0-4.344,4.273,5.461,5.461,0,0,0-1.216,2c-.473,1.727.735,3.486,2.185,4.61a10.789,10.789,0,0,0,8.363,2.1,9.165,9.165,0,0,0,6.72-5.082,5.281,5.281,0,0,0,.375-3.587,5.718,5.718,0,0,0-4.064-3.524,17.924,17.924,0,0,0-5.684-.368l-3.825.161" fill="none" stroke="#181b1f" stroke-miterlimit="10" stroke-width="2" stroke-dasharray="7 5 0 0 0 0"/>
      <path id="Pfad_995" data-name="Pfad 995" d="M98.669,1205.993a21.2,21.2,0,0,0-14.606,12.3,10.8,10.8,0,0,0-.8,6.519c.75,3.112,3.427,5.465,6.257,7.162,4.7,2.815,10.545,4.383,15.846,2.834a15.945,15.945,0,0,0,10.769-11.95c1.131-5.415-.488-11.161-3.71-15.743a7.044,7.044,0,0,0-2.228-2.228,7.591,7.591,0,0,0-3.092-.751,31.7,31.7,0,0,0-10.861,1.01" fill="none" stroke="#181b1f" stroke-miterlimit="10" stroke-width="2" stroke-dasharray="7 5 0 0 0 0"/>
    </g>
  </g>
</svg>
