<svg xmlns="http://www.w3.org/2000/svg" width="450.629" height="254.023" viewBox="0 0 450.629 254.023">
    <defs>
        <clipPath id="wwbn2ygn2a">
            <path data-name="Rechteck 453" style="fill:none;stroke:#fff;stroke-width:2px;stroke-dasharray:6 4" d="M0 0h450.629v254.023H0z"/>
        </clipPath>
    </defs>
    <g data-name="Gruppe 2226">
        <g data-name="Gruppe 2091">
            <g data-name="Gruppe 1971">
                <g data-name="Gruppe 1970" style="clip-path:url(#wwbn2ygn2a)">
                    <path data-name="Pfad 1623" d="M180.432 79.67c2.2-12.3 1.378-24.937 2.673-37.365s5.173-25.364 14.622-33.54a32.122 32.122 0 0 1 52.421 17.527c2.828 13.125-2.431 28.136 4.7 39.514 6.625 10.572 20.659 12.882 32.823 15.652s26.089 9.486 27.16 21.917c.232 2.682-.466 5.8-2.841 7.067a8.325 8.325 0 0 1-3.707.722c-15.508.471-33.389-3.291-44.715 7.313-11.456 10.725-8.672 29.041-8.779 44.734-.263 38.322-25.584 75.284-61.224 89.372-2.187.864-4.623 1.654-6.844.88-4.909-1.713-4.537-8.734-3.043-13.712a232.361 232.361 0 0 1 16.518-40.624c2.933-5.623 6.146-11.26 7.237-17.507s-.4-13.394-5.423-17.264c-5.487-4.228-13.261-3.392-19.984-1.724-29.311 7.275-54.2 25.944-79.8 41.966S47.471 234.741 17.48 231.19c-3.873-.459-7.9-1.3-10.869-3.83-4.166-3.552-5.232-9.51-5.5-14.978a85.88 85.88 0 0 1 2.681-25.932c2.014-7.7 5.4-15.513 11.845-20.2 6.738-4.9 15.568-5.542 23.886-6.011l44.516-2.508c8.651-.487 17.684-1.087 25.126-5.525s12.592-14.014 9.128-21.955c-3.406-7.806-12.906-10.524-21.231-12.323L45.133 106.7c-12.78-2.762-26.068-5.76-36.261-13.949-4.022-3.227-7.644-7.713-7.581-12.871.064-5.2 3.831-9.595 7.867-12.871 12.714-10.321 29.7-14.179 46.075-13.88s32.408 4.4 48.267 8.477c10.97 2.82 22.5 5.95 30.508 13.96 3.172 3.172 5.674 7.015 9.171 9.825 9.236 7.425 24.753 4.794 31.027-5.259" transform="translate(-.376 -.376)" style="fill:none;stroke:#fff;stroke-width:2px;stroke-dasharray:6 4"/>
                    <path data-name="Pfad 1624" d="M564.012 183.992a413.865 413.865 0 0 1 45.469 4.467c16.438 2.6 34.231 7.376 43.723 21.045 3.688 5.31 5.777 11.538 7.821 17.672.714 2.144 1.429 4.487.662 6.612-1.382 3.834-6.461 4.564-10.522 4.214-16.5-1.423-31.608-9.916-44.651-20.117s-24.557-22.241-37.6-32.443" transform="translate(-212.012 -69.163)" style="fill:none;stroke:#fff;stroke-width:2px;stroke-dasharray:6 4"/>
                </g>
            </g>
        </g>
    </g>
</svg>
