<?xml version="1.0" encoding="UTF-8"?>
<svg width="1078px" height="755px" viewBox="0 0 1078 755" version="1.1" xmlns="http://www.w3.org/2000/svg" xmlns:xlink="http://www.w3.org/1999/xlink">
    <title>Group</title>
    <g id="Page-1" stroke="none" stroke-width="1" fill="none" fill-rule="evenodd" stroke-dasharray="6">
        <g id="Artboard" transform="translate(-188.000000, -111.000000)" stroke="#FFFFFF" stroke-width="2">
            <g id="Group" transform="translate(189.184565, 112.000000)">
                <g id="condition-1">
                    <path d="M1.42108547e-14,111.12 C10.807742,126.308639 22.8969523,140.543362 36.135,153.668 C42.0657638,133.687423 46.3625791,113.257818 48.983,92.581 C54.810872,106.818954 61.6967928,120.60049 69.583,133.81 C79.4294273,116.603681 87.7453881,98.565689 94.435,79.904 L144.483,123.64 C152.4034,104.583902 158.154575,84.6971469 161.628,64.355 L208.045,100.635 C220.9544,80.5854085 231.342753,59.0207581 238.975,36.429 C254.303667,52.823 270.275667,68.582 286.891,83.706 C301.060648,66.3245639 309.824309,45.1707192 312.098,22.861 L342.506,59.649 C357.994599,42.4188383 369.630402,22.0835402 376.637,2.33146835e-15" id="Path"></path>
                </g>
                <g id="condition-blob" transform="translate(625.815435, 499.254830)">
                    <path d="M179.425565,78.7371699 C181.625565,66.4371699 180.803565,53.8001699 182.098565,41.3721699 C183.393565,28.9441699 187.271565,16.0081699 196.720565,7.83216995 C205.301491,0.406864236 217.163448,-1.94005078 227.925413,1.65822019 C238.687378,5.25649117 246.752313,14.2659773 249.141565,25.3591699 C251.969565,38.4841699 246.710565,53.4951699 253.841565,64.8731699 C260.466565,75.4451699 274.500565,77.7551699 286.664565,80.5251699 C298.828565,83.2951699 312.753565,90.0111699 313.824565,102.44217 C314.056565,105.12417 313.358565,108.24217 310.983565,109.50917 C309.819525,110.030641 308.551226,110.277664 307.276565,110.23117 C291.768565,110.70217 273.887565,106.94017 262.561565,117.54417 C251.105565,128.26917 253.889565,146.58517 253.782565,162.27817 C253.519565,200.60017 228.198565,237.56217 192.558565,251.65017 C190.371565,252.51417 187.935565,253.30417 185.714565,252.53017 C180.805565,250.81717 181.177565,243.79617 182.671565,238.81817 C186.884559,224.786379 192.415184,211.184483 199.189565,198.19417 C202.122565,192.57117 205.335565,186.93417 206.426565,180.68717 C207.517565,174.44017 206.026565,167.29317 201.003565,163.42317 C195.516565,159.19517 187.742565,160.03117 181.019565,161.69917 C151.708565,168.97417 126.819565,187.64317 101.219565,203.66517 C75.6195654,219.68717 46.4645654,233.80817 16.4735654,230.25717 C12.6005654,229.79817 8.57356537,228.95717 5.60456537,226.42717 C1.43856537,222.87517 0.372565373,216.91717 0.104565373,211.44917 C-0.326630903,202.719103 0.577450237,193.974369 2.78556537,185.51717 C4.79956537,177.81717 8.18556537,170.00417 14.6305654,165.31717 C21.3685654,160.41717 30.1985654,159.77517 38.5165654,159.30617 L83.0325654,156.79817 C91.6835654,156.31117 100.716565,155.71117 108.158565,151.27317 C115.600565,146.83517 120.750565,137.25917 117.286565,129.31817 C113.880565,121.51217 104.380565,118.79417 96.0555654,116.99517 L44.1265654,105.76717 C31.3465654,103.00517 18.0585654,100.00717 7.86556537,91.8181699 C3.84356537,88.5911699 0.221565373,84.1051699 0.284565373,78.9471699 C0.348565373,73.7471699 4.11556537,69.3521699 8.15156537,66.0761699 C20.8655654,55.7551699 37.8515654,51.8971699 54.2265654,52.1961699 C70.6015654,52.4951699 86.6345654,56.5961699 102.493565,60.6731699 C113.463565,63.4931699 124.993565,66.6231699 133.001565,74.6331699 C136.173565,77.8051699 138.675565,81.6481699 142.172565,84.4581699 C151.408565,91.8831699 166.925565,89.2521699 173.199565,79.1991699" id="Path"></path>
                    <path d="M351.369565,114.27217 C366.596587,114.922818 381.776044,116.414089 396.838565,118.73917 C413.276565,121.33917 431.069565,126.11517 440.561565,139.78417 C444.249565,145.09417 446.338565,151.32217 448.382565,157.45617 C449.096565,159.60017 449.811565,161.94317 449.044565,164.06817 C447.662565,167.90217 442.583565,168.63217 438.522565,168.28217 C422.022565,166.85917 406.914565,158.36617 393.871565,148.16517 C380.828565,137.96417 369.314565,125.92417 356.271565,115.72217" id="Path"></path>
                </g>
            </g>
        </g>
    </g>
</svg>