<svg xmlns="http://www.w3.org/2000/svg" width="378.405" height="155.856" viewBox="0 0 378.405 155.856">
    <g data-name="Gruppe 2277">
        <g data-name="Gruppe 2278">
            <path data-name="Pfad 1903" d="M92.052 111.271a326.36 326.36 0 0 0 36.135 42.548 384.609 384.609 0 0 0 12.848-61.087 308.156 308.156 0 0 0 20.6 41.229 338.524 338.524 0 0 0 24.852-53.906l50.048 43.736a275.117 275.117 0 0 0 17.145-59.285l46.417 36.28a290.131 290.131 0 0 0 30.93-64.206q22.993 24.591 47.916 47.277a114.7 114.7 0 0 0 25.207-60.845L434.558 59.8A162.93 162.93 0 0 0 468.689.151" transform="translate(-91.237 .151)" style="fill:none;stroke:#fff;stroke-miterlimit:10;stroke-width:2px;stroke-dasharray:6 4"/>
        </g>
    </g>
</svg>
