<svg xmlns="http://www.w3.org/2000/svg" width="1158.224" height="881.629" viewBox="0 0 1158.224 881.629">
    <defs>
        <clipPath id="ov7wucggqa">
            <path data-name="Rechteck 450" style="fill:none;stroke:#fff;stroke-width:2px;stroke-dasharray:6 4" d="M0 0h298.409v270.982H0z"/>
        </clipPath>
    </defs>
    <g data-name="Gruppe 2331">
        <g data-name="Gruppe 2330">
            <g data-name="Gruppe 2082">
                <g data-name="Gruppe 1963">
                    <g data-name="Gruppe 1962" style="clip-path:url(#ov7wucggqa)" transform="rotate(34 75.767 247.818)">
                        <path data-name="Pfad 1610" d="M1.1 32.137c1.348 0 10.757-2.036 12.088-2.238 2.833-.429 5.708-1.354 8.5-1.969 6.062-1.335 20.318-2.3 26.247-4.175 13.384-4.236 27.421-5.736 40.846-9.933q5.579-1.7 10.99-3.85 1.076.117 1.13 1.375a22.265 22.265 0 0 0 3.024 5.068 40.2 40.2 0 0 0 4.779 4.647c5.854 4.755 13.579 7.58 20.516 10.423a38.343 38.343 0 0 0 10.631 3.01c7.73.729 13.638-8.017 18.5-12.554a34.346 34.346 0 0 0 8.249-10.718 19.591 19.591 0 0 0 1.732-6 29.119 29.119 0 0 1 .652-4.069c2.132-.428 4.441.186 6.412.4 2.333.251 4.613.09 6.965.372a58.14 58.14 0 0 0 7.667.942c3.109.066 6.227-.147 9.338-.088 6.7.125 13.44.694 20.133 1.034 8.05.41 16.157.13 24.215.128 8.4 0 16.883.369 25.274-.2a70.529 70.529 0 0 0 12.629-1.715 5.688 5.688 0 0 1 3.636-.911c1.858 3.974.648 8.658 2.526 12.606a67.213 67.213 0 0 1 3.908 9.677c3.118 10.3 4.2 21.427 5.347 32.073.553 5.154 1.569 11.078 1.621 16.355a8.9 8.9 0 0 1-3.39.134c-4.113-.066-8.256-.343-12.362-.592-1.991-.12-4.023-.82-5.974-.441a13.641 13.641 0 0 1-3.376.4c-4.369-.03-8.684 1.049-12.99 1.614-7.474.983-15.733 2.021-23.287 1.189a6.325 6.325 0 0 0 .372 2.42q1.6 6.929 3.065 13.887a588.505 588.505 0 0 1 3.579 18.692c3.525 20.23 8.1 40.218 10.856 60.622 3.745 27.75 6.617 55.571 9.584 83.4 0 0 1.22 6.285.385 6.841-1.176.783-5.384.068-6.738.059-2.8-.02-5.528.246-8.319.44-3.156.22-6.621-.369-9.73.113-6.27.973-12.932.592-19.375 1.244-5.14.52-10.188 1.358-15.361 1.62q-7.153.236-14.287.79c-10.022.784-19.9 2.083-29.958 2.733-12 .776-23.927 1.728-35.951 2.152q-20.919.561-41.842.993-6.878.018-13.725.616a6.574 6.574 0 0 1-5.2-.379c-.684-2.143-.079-5.243-.079-7.461q0-4.9.013-9.79c.067-16.046-1.172-32.116-2.466-48.1-.9-11.17-2.681-22.14-2.807-33.376-.187-16.623-.1-33.29.03-49.913.115-15.261 1.7-8.811 1.81-24.046-2.236-.311-4.5.071-6.744-.054-2-.111-3.829-.58-5.87-.685C40 96.5 31.528 97.45 23.22 95.66c-3.625-.781-12.768.653-16.557.1z" transform="translate(-.651 -.566)" style="fill:none;stroke:#fff;stroke-width:2px;stroke-dasharray:6 4"/>
                    </g>
                </g>
            </g>
            <path data-name="Pfad 1994" d="M405.577 219.751s-.052 42.456 13.125 53.069 30.812 10.93 37.226-1.653-3.113-56.456-3.113-56.456l-40.532 6.089" transform="rotate(34 391.912 -97.292)" style="fill:none;stroke:#fff;stroke-width:2px;stroke-dasharray:6 4"/>
        </g>
        <g data-name="Gruppe 2328">
            <path data-name="Pfad 1990" d="m-330.981 2057.247 90.846-61.016v-37.8" transform="rotate(-10.02 -6591.075 -6377.467)" style="fill:none;stroke:#fff;stroke-width:2px;stroke-dasharray:6 4"/>
            <path data-name="Pfad 1991" d="M-549.476 1901.3v77.655l120.679 52.916 8.535-130.571-129.214-58.315-31.9 48.755 113.3 57.876 47.812-57.876" transform="rotate(-10.02 -6423.365 -6844.763)" style="fill:none;stroke:#fff;stroke-width:2px;stroke-dasharray:6 4"/>
            <path data-name="Pfad 1992" d="m-554.378 1799.694 82.738-36.226 137.83 54.519 50.1-18.293-148.332-65.545-33.253 29.318-63.527-20.911-92.851 39.708z" transform="rotate(-10.02 -6234.471 -6934.147)" style="fill:none;stroke:#fff;stroke-width:2px;stroke-dasharray:6 4"/>
            <path data-name="Pfad 1993" d="m-242.428 1856.439 38.713 40.659-108.492 60.819-26.066-47.564z" transform="rotate(-10.02 -6409.27 -6406.583)" style="fill:none;stroke:#fff;stroke-width:2px;stroke-dasharray:6 4"/>
        </g>
        <g data-name="Gruppe 2329">
            <path data-name="Pfad 1690" d="M139.181 307.174C98.764 293.73 59.911 262.252 27.549 196.89A263.989 263.989 0 0 1 .5 62.534C1.3 41.027 3.509 18.77 15.144 0" transform="rotate(140 428.643 332.724)" style="stroke-miterlimit:10;fill:none;stroke:#fff;stroke-width:2px;stroke-dasharray:6 4"/>
            <path data-name="Pfad 1691" d="M0 37.664q16.165-11.387 33.225-22.246C43.454 8.906 54.585 2.3 68.634 0Q82.9 24.322 98.9 48.217" transform="rotate(140 450.91 341.278)" style="stroke-miterlimit:10;fill:none;stroke:#fff;stroke-width:2px;stroke-dasharray:6 4"/>
        </g>
    </g>
</svg>
