<svg xmlns="http://www.w3.org/2000/svg" width="821.725" height="576.307" viewBox="0 0 821.725 576.307">
    <g data-name="Gruppe 2230">
        <g data-name="Pfad 1824" style="stroke-dasharray:6 4;fill:none">
            <path d="M304.825 0C459.034 0 586.5 85.358 606.876 196.435c1 5.439 3.856 28.963 1.179 53.063-2.124 19.121-9.184 38.72-13.652 48.886-39.76 90.463-72.347 150.489-289.577 156.06C136.475 454.444 0 352.713 0 227.222S54.976 2.9 304.825 0z" style="stroke:none" transform="rotate(-9 665.018 -709.593)"/>
            <path d="M314.83.12c1.78.043 3.557.097 5.33.163h.014l.12.004.037.002.492.019-.077 1.998a413.934 413.934 0 0 0-5.965-.187l.048-1.999zm9.993.361c.56.027 1.119.055 1.678.085h.016l.073.004.033.002.06.003.048.003.054.003.086.004h.011l.107.006.013.001.096.005.015.001.089.005.024.001.09.005h.013a384.762 384.762 0 0 1 .332.019l.102.006h.012l.095.006a2.575 2.575 0 0 1 .11.006h.013l.215.013h.02l.08.005.043.003.056.003c.018 0 .035.002.053.003l.043.002.061.004.03.002c.74.042 1.48.087 2.22.133l-.126 1.996c-1.975-.124-3.98-.236-5.96-.331l.095-1.998zm9.98.604a417.852 417.852 0 0 1 1.468.11l.098.007.015.001.09.007.058.004.054.005.064.005.033.002.077.006.016.001.085.007h.005l1.211.096h.004l.089.008h.007a315.591 315.591 0 0 1 .38.031l.058.005.04.004.059.004.05.005a25.365 25.365 0 0 1 .121.01 437.939 437.939 0 0 1 .24.02c.558.046 1.104.093 1.66.142l-.174 1.992a405.803 405.803 0 0 0-5.954-.477l.145-1.995zm9.964.848.696.069h.005l.096.01.019.002.08.008.028.002.08.009c.013 0 .025.002.037.003l.084.009.06.006.036.003.069.007.028.003.074.007.02.003.077.007.017.002c1.49.151 2.976.31 4.458.477l-.224 1.987a403.83 403.83 0 0 0-5.934-.623l.194-1.99zm9.942 1.095c1.553.19 3.101.39 4.646.598l.012.001.08.011.021.003.073.01c.375.05.741.1 1.117.152l-.274 1.982c-1.96-.27-3.951-.53-5.919-.772l.244-1.985zm9.907 1.342c.891.132 1.782.267 2.67.405l.027.004.051.008.054.009.04.006.068.01.027.005.08.012.021.004c.638.1 1.26.198 1.896.3l.028.005.068.01.047.008.04.007.067.01.02.004.726.118-.323 1.974c-1.953-.32-3.939-.63-5.9-.92l.293-1.979zm9.872 1.592.09.015.006.002.081.014.03.005.06.01.06.01.036.007c1.089.191 2.164.384 3.248.584l.034.006a30.516 30.516 0 0 1 .118.022l.035.006.068.013.021.004c.672.124 1.343.25 2.013.377l-.373 1.965a389.13 389.13 0 0 0-5.87-1.07l.343-1.97zm9.831 1.843.42.085.047.01.03.005.074.016.02.004.09.018h.002c1.04.211 2.069.424 3.104.643l.027.006.066.014.044.009.052.01c.016.004.032.008.048.01.017.005.029.007.046.01l.055.013.036.007.062.013.02.004.348.075h.001c.427.091.854.183 1.28.276l-.424 1.954a386.48 386.48 0 0 0-5.842-1.22l.394-1.962zm9.775 2.096c1.959.447 3.899.905 5.84 1.38l-.474 1.943c-1.922-.47-3.877-.932-5.811-1.373l.445-1.95zm9.72 2.352a372.249 372.249 0 0 1 2.38.617l.023.006.078.02.017.005.082.021.019.005.082.022.014.003c.033.01.056.015.09.024l.007.002c1.008.266 2.005.534 3.007.808l-.526 1.93a375.462 375.462 0 0 0-5.768-1.526l.496-1.937zm9.656 2.608c.539.153 1.077.308 1.615.463l.011.004.057.016a12.134 12.134 0 0 1 .084.024l.057.017.031.009.067.02.027.007a94.218 94.218 0 0 1 .093.027l.087.025.006.002c1.216.354 2.414.71 3.622 1.075l-.578 1.914a369.624 369.624 0 0 0-5.727-1.68l.548-1.923zm9.576 2.865c1.405.441 2.804.89 4.198 1.347h.002l.084.027.01.004.082.027c.009.003-.005-.002.003 0l.617.204.005.001.083.028.007.002.079.026.013.004c.026.01.054.018.08.027l.006.002.083.027.008.003.083.027c.008.003-.004 0 .004.002l.084.028.006.002.173.057-.63 1.898a363.857 363.857 0 0 0-5.68-1.835l.6-1.908zm9.502 3.129c.57.196 1.12.387 1.688.586l.068.024.02.007.086.03h.001c1.27.446 2.533.897 3.793 1.355l-.684 1.88a357.52 357.52 0 0 0-5.623-1.991l.651-1.891zm9.405 3.389c.504.189 1.002.378 1.504.57h.002l.088.034.032.012.052.02.05.019.043.016.048.019.04.015.052.02.038.015.055.02.032.013.057.022.037.014.055.02.029.012.063.025.021.008.07.027.011.004.079.03.003.001.318.123.033.012.05.02.041.016.043.016.05.02.038.014.056.022.029.011.064.025.028.01.07.028.014.005.086.034h.003c.741.289 1.477.577 2.215.87l-.736 1.859c-1.837-.728-3.71-1.45-5.567-2.15l.704-1.871zm9.31 3.655h.001c1.353.555 2.7 1.116 4.04 1.684l.033.014.035.015.06.026.015.006.077.032.012.006c.42.178.84.358 1.259.538l-.79 1.837a343.193 343.193 0 0 0-5.5-2.307l.758-1.85zm9.198 3.922c.355.157.707.315 1.06.473l.02.009.06.027.04.017.04.018.06.027.016.007.074.034.007.003c1.196.537 2.388 1.08 3.574 1.63l.018.008.064.03.047.022.033.015.35.163-.843 1.813a337.305 337.305 0 0 0-5.43-2.468l.81-1.828zm9.079 4.191.008.004.067.033.015.007.072.034.012.006.08.038.085.041.17.082 1.083.525.017.008.05.024.04.02.038.018.048.024.033.016a50.41 50.41 0 0 0 .078.038l.07.034.012.006.167.082h.001a330.714 330.714 0 0 1 3.238 1.605l-.898 1.787a329.307 329.307 0 0 0-5.351-2.628l.865-1.804zm8.95 4.464c.553.287 1.106.575 1.657.865l.018.01c.02.01.041.02.062.032l.028.015.05.025.042.023.038.02c.021.01.04.021.062.033l.013.006.08.043h.003c1.086.573 2.173 1.155 3.249 1.738l-.953 1.758c-1.735-.94-3.508-1.88-5.27-2.792l.92-1.776zm8.805 4.736a312.677 312.677 0 0 1 3.379 1.914l.076.044.01.006.07.04.018.01.064.037.019.011.06.035.028.016.051.03.035.02.042.024.045.026.035.02.052.03.024.014.06.035.019.01.068.04.006.003.078.045.97.564-1.008 1.728a312.957 312.957 0 0 0-5.176-2.955l.975-1.747zm8.653 5.014c.653.393 1.294.782 1.943 1.178l.008.005.07.042.027.017.05.03c.013.01.027.018.041.026l.037.023.048.029.032.02.055.034.022.013.068.042.01.005.075.047.003.002.077.047.003.002c.851.523 1.7 1.05 2.544 1.58l-1.064 1.694c-1.67-1.05-3.38-2.1-5.08-3.121l1.031-1.715zm8.484 5.292c.218.14.437.283.654.424l.018.012.056.036.034.023a25.845 25.845 0 0 1 .095.06l.015.011.072.047c.007.005-.004-.003.002.001.864.564 1.723 1.13 2.579 1.701l.007.006.062.04.025.017.047.032.037.025.032.021.054.036.018.012.067.045.004.003c.377.252.75.503 1.126.757l-1.12 1.657a295.735 295.735 0 0 0-4.97-3.287l1.086-1.68zm8.304 5.573a288.477 288.477 0 0 1 1.962 1.378l.066.047.013.009.059.041.022.017.052.036.028.02.043.03c.013.01.026.02.04.028l.034.025.045.032.027.02.055.038.019.014.063.045.008.006a287.6 287.6 0 0 1 2.353 1.693l-1.177 1.617a287.55 287.55 0 0 0-4.855-3.455l1.143-1.641zm8.106 5.855.6.45.007.005.068.052.007.005.066.05.013.01.06.045.02.015.053.04.024.019.05.037.025.019.049.037.03.023.04.03.04.03.032.025.047.036.024.018.05.037.025.02a35.923 35.923 0 0 1 .072.054l.054.041.018.014.057.043.016.013.056.042.018.014.06.046.01.006.066.05.005.005.144.11a279.691 279.691 0 0 1 1.824 1.403l.002.001c.344.267.688.535 1.03.804l-1.233 1.574a278.807 278.807 0 0 0-4.728-3.623l1.2-1.6zm7.892 6.138.632.511.012.01.058.047.013.01.056.047.016.012.055.045.017.014.05.04.024.02.046.038.024.02.047.037.026.022.044.035.029.024.039.032.036.03.034.028.037.03.036.029.036.03.035.028.036.03.034.028.041.033.03.025.041.034.03.024.046.037.024.02.049.04.022.019.055.045.015.012.057.047.016.013.062.05.008.007.067.055.004.004.07.058.002.001.865.716.006.005.065.054.01.008.061.051.014.012.055.046.024.02.046.038.028.023.042.035.031.026.039.033.035.029.032.027.047.039.02.016a102.157 102.157 0 0 1 .068.057l.062.052.003.003c.32.267.645.54.963.81l-1.29 1.527a269.534 269.534 0 0 0-4.593-3.792l1.256-1.556zm7.665 6.426a260.071 260.071 0 0 1 4.301 3.83c.002 0 .004.002.006.004l.054.05a8.319 8.319 0 0 1 .062.056l.045.041.011.01-1.348 1.478a259.98 259.98 0 0 0-4.444-3.961l1.313-1.508zm7.41 6.707.175.165.01.008.049.047.021.02.043.04.026.025.036.034.033.031.034.032.034.032.03.029.038.036.029.027.043.04.02.02.051.048.016.015c.02.02.04.04.061.058l.004.004.067.063v.001l.544.518.067.064.004.003.061.059.01.01.056.053.015.014.049.047.02.02.047.045c.01.01.01.008.02.019l.045.043.023.022.043.04.025.025.036.034.033.032.03.03.037.035.024.023.043.042.016.015c.755.726 1.51 1.461 2.253 2.195l-1.405 1.424a251.557 251.557 0 0 0-4.286-4.13l1.37-1.457zm7.148 6.999c.658.67 1.312 1.344 1.96 2.021l.002.002.06.062.007.008.054.056.012.013.053.055.01.011.05.051.017.019.042.043.022.024.034.035.031.033.02.02c.599.628 1.184 1.249 1.775 1.88l-1.462 1.366a242.145 242.145 0 0 0-4.115-4.299l1.428-1.4zm6.854 7.28.25.277.004.005.06.066.002.002.06.067.003.003.124.139.374.418.007.008.055.061.007.008.053.06.012.013.051.057.01.01a28.959 28.959 0 0 1 .063.072l.049.055.012.014.05.055.011.014.054.06.006.007.057.065.005.005.31.35.003.003.056.064.01.012.051.057.011.013.05.056.013.015.048.054.013.015a85.804 85.804 0 0 1 .062.07l.047.054.013.015.05.056.01.012.056.064.004.004.057.065.004.005.245.28.01.01.05.059.012.013.048.054.016.02.044.05.019.021.039.045c.01.01.014.016.023.027l.037.042.023.026.037.042.022.027.038.042.024.028.03.035.032.036.024.029.035.04.022.025.037.043.015.016.835.969-1.518 1.302a233.466 233.466 0 0 0-3.93-4.466l1.484-1.34zm6.54 7.56a227.217 227.217 0 0 1 3.764 4.672l-1.574 1.234a225.457 225.457 0 0 0-3.731-4.63l1.54-1.275zm6.206 7.845c.92 1.217 1.822 2.438 2.712 3.669l.005.006.041.057.013.018.034.047.021.03.03.04.025.035.024.034.036.05.014.019c.2.277.398.554.595.831l-1.628 1.161a217.276 217.276 0 0 0-3.518-4.792l1.596-1.205zm5.842 8.114.016.022.01.014.04.061.002.002a210.049 210.049 0 0 1 3.254 4.898l-1.682 1.083a209.414 209.414 0 0 0-3.29-4.95l1.65-1.13zm5.454 8.377a204.313 204.313 0 0 1 2.511 4.18l.003.004.044.075.004.007.041.071.007.01.04.07.006.01.04.07.007.01.185.32.003.005.043.074.005.01.04.068.008.014.038.066.008.013.038.066.005.01-1.732.999a202.54 202.54 0 0 0-3.046-5.101l1.702-1.05zm5.042 8.638a196.933 196.933 0 0 1 2.815 5.298l-1.78.911a195.624 195.624 0 0 0-2.786-5.244l1.751-.965zm4.601 8.878a190.516 190.516 0 0 1 2.538 5.436l-1.825.818a189.764 189.764 0 0 0-2.512-5.38l1.799-.874zm4.133 9.103.026.06.002.005.029.07.004.008.03.072.001.003c.462 1.096.91 2.192 1.35 3.295l.002.003.242.61c0 .003.002.005.003.007l.028.073.002.004.029.073.001.004c.167.424.334.852.497 1.277l-1.866.719a184.587 184.587 0 0 0-2.222-5.504l1.842-.779zm3.642 9.312a182.02 182.02 0 0 1 1.94 5.678l-1.904.615c-.604-1.87-1.249-3.759-1.917-5.615l1.881-.678zm3.127 9.498c.143.478.284.957.423 1.437l.003.01.022.076.005.018.019.066.007.026.018.061.007.025.018.062.008.026.019.067.005.018.024.083.006.02.019.068a11.278 11.278 0 0 0 .037.13l.01.037.014.048.01.034.014.051.01.032a17.298 17.298 0 0 0 .021.078l.018.06v.004l.088.31.002.007.02.073.002.007a32.666 32.666 0 0 1 .023.081c.257.92.506 1.837.748 2.762l-1.935.507c-.498-1.9-1.037-3.822-1.601-5.712l1.916-.572zm2.59 9.657a165.888 165.888 0 0 1 .79 3.47l.002.009.017.077.004.017.015.071.004.02.016.074.003.013.017.08.002.01.038.176.006.029.013.058.007.036.01.049.01.04.009.046.01.044.008.04.01.046.008.04.01.047.006.032.042.2.004.018.013.061.005.024.012.06.005.024.013.061.005.022.013.063c0 .006.002.011.003.017l.114.555.047.23-1.96.396c-.39-1.926-.82-3.875-1.276-5.792l1.946-.463zm2.032 9.786a122.8 122.8 0 0 1 .792 5.948l-1.988.223c-.25-2.23-.526-4.307-.778-5.847l1.974-.324zm1.195 9.93c.034.378.069.764.102 1.156l.001.009a3.222 3.222 0 0 0 .005.056v.008c.128 1.488.249 3.077.357 4.752l-1.996.129c-.129-2-.284-3.994-.46-5.928l1.991-.182zm.689 9.975c.091 1.917.164 3.922.21 5.996l-2 .045a234.665 234.665 0 0 0-.208-5.946l1.998-.095zm.263 9.996.001.212v.239l.001.017v.176c.004 1.75-.014 3.539-.055 5.356l-2-.045c.045-1.95.063-3.95.053-5.945l2-.01zm-2.18 9.914 1.997.084-.023.55-.001.011-.003.077-.001.023-.003.06-.002.044-.002.044-.003.054-.001.029-.004.078v.01c-.028.583-.058 1.166-.09 1.753l-.001.01-.005.087-.001.019-.004.07-.002.033-.003.054-.003.045-.002.043-.004.058-.002.03c0 .022-.002.045-.004.067l-.001.024-.004.072-.001.015-.005.082v.012l-.006.085v.008l-.011.181v.003c-.047.75-.097 1.504-.153 2.26l-1.995-.148c.143-1.933.258-3.928.342-5.927zm-.678 9.867 1.991.193-.072.726-.002.025-.004.038a164.774 164.774 0 0 1-.157 1.477l-.003.03-.007.063a118.92 118.92 0 0 1-.352 2.854l-.001.007a8.982 8.982 0 0 0-.005.039l-.003.019-.004.028-.004.03-.002.017-.006.04-.001.01-.078.555-1.98-.28c.17-1.192.32-2.383.448-3.54.086-.766.167-1.55.242-2.33zm-1.302 9.762 1.97.34a149.203 149.203 0 0 1-1.141 5.891l-1.956-.42c.421-1.963.8-3.918 1.127-5.81zm-2.002 9.665 1.945.467a177.596 177.596 0 0 1-.99 3.925v.004a43.74 43.74 0 0 0-.023.085l-.003.01-.02.076-.003.01-.02.073c-.001.01-.004.017-.006.026l-.018.068-.008.031a9.472 9.472 0 0 0-.01.04l-.018.065-.007.026-.04.149v.002c-.11.408-.22.815-.332 1.22l-1.928-.532c.53-1.927 1.029-3.86 1.48-5.745zm-2.572 9.551 1.917.571c-.432 1.45-.872 2.866-1.317 4.248l-.003.007-.012.039-.005.015-.009.029-.009.027-.005.015-.01.031-.004.012c-.141.438-.283.872-.425 1.302l-1.899-.628c.623-1.884 1.222-3.79 1.78-5.668zm-3.06 9.416 1.886.664a198.3 198.3 0 0 1-2.08 5.63l-1.865-.722c.702-1.814 1.395-3.69 2.058-5.572zm-3.525 9.243 1.848.763a148.06 148.06 0 0 1-1.293 3.038 2090.766 2090.766 0 0 1-1.088 2.472l-1.83-.807c.362-.82.724-1.644 1.087-2.47.418-.95.847-1.959 1.276-2.996zm-3.98 9.119 1.829.811-.726 1.633-.005.01-.024.055-.017.038-.015.034c-.552 1.239-1.109 2.483-1.661 3.71l-1.824-.821c.778-1.73 1.578-3.518 2.444-5.47zm-4.088 9.106 1.82.829a855.792 855.792 0 0 1-.554 1.213l-.013.029a705.699 705.699 0 0 1-1.94 4.207l-1.814-.844a725.457 725.457 0 0 0 2.5-5.434zm-4.195 9.044 1.807.856a507.915 507.915 0 0 1-2.598 5.405l-1.797-.877a509.144 509.144 0 0 0 2.588-5.384zm-4.351 8.955 1.789.894-.207.412-.012.024a23.58 23.58 0 0 1-.024.048l-.016.032-.032.064-.027.055-.003.006a380.336 380.336 0 0 1-2.25 4.412l-.001.004-.03.056-.006.013-.042.082-.022.041-.013.026-.037.071-1.775-.921c.889-1.713 1.8-3.502 2.708-5.319zm-4.561 8.836 1.764.943a312.932 312.932 0 0 1-1.28 2.372l-.004.007-.025.046-.014.025-.024.044-.033.06c-.008.014-.01.02-.019.034l-.018.035-.021.038-.022.04-.027.049-.025.046-.016.029-.029.052-.01.02-.038.069-.012.021-.032.059-.01.016-.04.074-.005.01-.036.066-.008.015-.084.152-.007.013-.085.154-.005.009-.036.065-.01.018-.04.073-.004.007-.035.064-.014.025-.031.057-.01.019-.035.061c-.005.01-.016.028-.02.038l-.017.03-.08.144-.011.02-.607 1.09-1.745-.978a303.47 303.47 0 0 0 2.86-5.23zm-4.825 8.68 1.731 1.003c-.33.569-.66 1.135-.993 1.7l-.006.01-.04.068-.005.009-.042.07-.014.024a16.66 16.66 0 0 0-.045.077l-.036.061-.02.034a6.35 6.35 0 0 1-.019.03l-.024.042-.012.02-.05.083-.01.017a21.39 21.39 0 0 1-.029.05l-.003.005-.096.162-.003.005a206.132 206.132 0 0 1-.294.493l-.006.01-.029.049-.009.015-.05.082-.013.023-.025.042-.013.023a26.664 26.664 0 0 0-.078.129l-.03.051a3.266 3.266 0 0 0-.012.02l-.044.072-.002.003-.044.073-.004.008c-.321.534-.644 1.067-.969 1.597l-1.706-1.044a249.788 249.788 0 0 0 3.044-5.115zm-5.141 8.48 1.688 1.074a215.579 215.579 0 0 1-2.868 4.393l-.005.008-.05.074-.044.066-.019.028-.025.037-.09.134a162.594 162.594 0 0 1-.188.279l-1.657-1.12a213.33 213.33 0 0 0 3.258-4.972zm-5.507 8.231 1.634 1.153c-.324.46-.65.918-.977 1.374l-.002.002-.105.147-.007.01-.102.141-.01.013-.046.064-.004.006-.048.067-.016.02-.036.051-.012.017-.047.064a4.195 4.195 0 0 1-.014.02l-.037.05-.014.02-.044.062-.02.027-.029.04-.02.026-.043.06-.02.027-.027.037-.023.032-.03.042-.032.044-.025.034-.025.034a8.62 8.62 0 0 1-.025.034l-.037.05a9.67 9.67 0 0 1-.137.188l-.025.035-.023.03-.049.067-.014.02-.03.04-.015.021-.03.041-.007.009-.059.08a7.374 7.374 0 0 0-.02.027l-.026.036-.026.036-.04.053-.02.027-.028.038-.018.024a45.614 45.614 0 0 1-.066.09l-.03.04-.015.02-.052.072-.016.02-.028.039-.021.028-.041.056-.024.032-.027.035-.023.032-.023.03-.041.057-.023.03-.029.038-.02.026-.044.061-.016.022-.033.043-.02.026-.042.057-.018.024-.035.047-.017.023-.042.056-.012.016-.043.058-.014.018-.044.059-.007.009-.05.066-.011.015-.046.061-.005.007-.052.07-.008.01-.048.063-.004.005-1.597-1.203a187.871 187.871 0 0 0 3.497-4.798zm-5.912 7.93 1.57 1.239-.55.692-.014.017-.03.039-.027.034-.038.046-.028.036-.023.028-.1.126-.014.016-.05.062-.002.003-.054.068-.01.011a171.12 171.12 0 0 1-2.858 3.466l-1.526-1.294a171.045 171.045 0 0 0 3.754-4.59zm-6.345 7.574 1.494 1.329-.001.001-.123.138-.001.002-.06.065-.004.005-.12.135-.005.005-.119.133-.007.008-.057.064-.002.002-.06.066-.006.007-.054.06-.007.008-.059.066-.005.005-.052.058a4.018 4.018 0 0 1-.011.012l-.057.064-.005.005-.051.056-.016.018-.052.058-.004.004-.054.059-.017.02-.045.05-.011.011-.054.059-.019.021-.037.041-.02.021-.05.055-.022.025-.033.037-.024.026-.043.047-.03.033-.028.03-.03.033-.02.023-.06.065-.017.018-.035.039-.013.013-.118.129-.01.012c-.768.836-1.553 1.673-2.342 2.495l-1.444-1.384a160.512 160.512 0 0 0 4.02-4.352zm-6.789 7.17 1.409 1.419c-.794.787-1.598 1.568-2.413 2.343l-.005.004-.063.06-.003.003-.067.063-.002.002-.059.056-.014.013-.055.053-.015.013-.05.047-.023.023-.036.034-.026.024-.05.048-.033.03-.024.023c-.464.437-.929.87-1.4 1.303l-1.354-1.473a155.632 155.632 0 0 0 4.283-4.089zm-7.225 6.723 1.315 1.507a156.75 156.75 0 0 1-4.594 3.856l-1.256-1.556a155.488 155.488 0 0 0 4.535-3.807zm-7.64 6.248 1.218 1.588a160.566 160.566 0 0 1-4.18 3.098l-.052.036h-.001l-.087.063-.034.024-.029.02c-.016.013-.032.024-.049.036l-.018.013-.38.27-1.156-1.632a159.767 159.767 0 0 0 4.769-3.516zm-8.018 5.761 1.116 1.66-.608.407-.015.01-.066.044-.02.013-.05.033-.042.028-.022.015-.049.033-.002.001c-1.068.71-2.148 1.409-3.247 2.103-.002 0-.003.002-.005.003l-.056.035-.01.007-.157.099-.029.018-.038.024-.04.025-.029.018-.071.045-.008.005a47.86 47.86 0 0 1-.066.041l-.018.011-.062.039-.013.008-.317.198-1.057-1.698a168.19 168.19 0 0 0 4.98-3.225zm-8.36 5.276 1.018 1.721a181.22 181.22 0 0 1-5.21 2.966l-.961-1.754a180.11 180.11 0 0 0 5.153-2.933zm-8.644 4.796.923 1.774c-.488.254-.97.503-1.464.754l-.002.001c-.017.01-.042.022-.059.03l-.017.009-.055.028a8.691 8.691 0 0 1-.017.009l-.056.028a4.518 4.518 0 0 1-.017.009l-.107.054-.017.009-.042.021-.035.018-.039.02-.04.02-.036.018a31.2 31.2 0 0 0-.045.023l-.03.015a47.67 47.67 0 0 1-.069.035l-.008.004-.08.04-.013.007-.064.032-.02.01-.065.033-.013.006c-.974.49-1.96.976-2.957 1.456l-.869-1.801c1.792-.864 3.58-1.76 5.313-2.662zm-8.898 4.348.834 1.818-.586.268-.012.005-.066.03a7.798 7.798 0 0 0-.024.01l-.057.027-.024.01c-.019.01-.038.018-.058.027a7.982 7.982 0 0 0-.181.082 8.848 8.848 0 0 1-.025.011l-.056.026-.035.015-.043.02-.041.018-.037.017-.045.02-.03.014-.05.022-.027.012-.052.024a193.663 193.663 0 0 1-.294.132l-.004.002-.067.03-.01.004-.069.03-.001.001c-1.181.528-2.377 1.05-3.589 1.565l-.783-1.84a215.432 215.432 0 0 0 5.432-2.4zm-9.093 3.92.75 1.853c-1.142.463-2.298.92-3.468 1.373l-.01.004-.078.03-.007.003-.082.031-.004.002c-.644.248-1.292.495-1.944.74l-.704-1.872a238.53 238.53 0 0 0 5.547-2.164zm-9.27 3.53.674 1.883a265.12 265.12 0 0 1-5.314 1.838l-.01.003c-.026.01-.052.018-.078.026l-.013.005-.075.025-.015.005-.074.024-.017.006-.07.023-.013.004-.63-1.897a264.32 264.32 0 0 0 5.635-1.945zm-9.41 3.17.604 1.907c-.647.205-1.305.41-1.96.613l-.016.005a52.183 52.183 0 0 1-.25.077l-.013.004a116.05 116.05 0 0 1-.087.027c-1.129.347-2.26.688-3.411 1.027l-.565-1.919c1.917-.564 3.834-1.15 5.698-1.741zm-9.52 2.84.54 1.927a324.26 324.26 0 0 1-1.905.528l-.081.022a5.346 5.346 0 0 0-.09.025l-.033.009-.055.015-.048.013a70.277 70.277 0 0 1-.1.027l-.027.008-.071.019-.016.004-.079.022-.01.002c-1.081.295-2.172.585-3.273.873l-.505-1.935c1.933-.505 3.869-1.03 5.752-1.558zm-9.609 2.542.483 1.94c-1.074.268-2.144.529-3.236.79l-.015.003-.065.016-.036.009-.009.002c-.82.195-1.644.39-2.474.581l-.451-1.948c1.95-.452 3.902-.92 5.803-1.393zm-9.679 2.268.43 1.953c-.536.119-1.076.237-1.617.354l-.022.004a16.91 16.91 0 0 0-.098.021l-.052.012a29.965 29.965 0 0 0-.093.02l-.057.012-.038.008-.078.017-.014.003c-1.258.27-2.522.536-3.803.798l-.401-1.959c1.961-.402 3.927-.82 5.843-1.243zm-9.738 2.023.383 1.963c-1.073.21-2.14.413-3.229.618l-.008.001-.095.018-.018.003-.083.016-.024.004c-.027.005-.048.01-.075.014l-.033.007-.086.016-.014.002-.096.018-.069.013-.027.005-.086.016h-.003c-.647.12-1.298.24-1.95.359l-.358-1.968c1.97-.357 3.945-.73 5.871-1.105zm-9.792 1.8.34 1.97-.056.01-.03.005-.043.007c-1.417.245-2.847.485-4.29.72l-.007.001-.07.012-.038.006-.053.009-.069.01-.03.006c-.415.067-.814.132-1.232.198l-.316-1.974c1.977-.317 3.96-.647 5.894-.98zm-9.843 1.597.3 1.977c-1.369.208-2.751.414-4.144.614h-.002l-.115.017-.012.002-.093.014-.037.005-.069.01-.05.007-.035.005-1.38.196-.28-1.98c1.984-.28 3.974-.571 5.917-.867zm-9.851 1.408.265 1.982c-.572.077-1.147.153-1.723.228l-.036.005-.052.007-.066.009-.038.004c-1.343.176-2.67.345-4.034.513l-.246-1.984a601.38 601.38 0 0 0 5.93-.764zm-9.893 1.241.233 1.986-1.28.15c-.01 0-.012 0-.023.002l-.078.009c-.01 0-.018.002-.028.003l-.136.016c-.01 0-.018.002-.029.003l-.067.008-.045.005-.06.007c-.01 0-.042.004-.053.006l-.093.01-.062.007a30.788 30.788 0 0 0-.377.043l-.048.006-.07.008-.04.004-.11.013-.02.002-.092.01-.04.005-.073.008-.043.005-.109.012-.023.003-.087.01-.043.004-.079.01-.033.003-.108.012-.037.004-.077.009-.043.005-.068.007a50.94 50.94 0 0 0-.067.008l-.083.009-.052.006-.05.005-.068.008-.043.005-.1.01-.06.007-.06.007-.048.005-.065.008-.032.003-.127.014-.044.005-.068.008c-.011 0-.02.002-.031.003l-.253.028c-.01 0-.007 0-.017.002l-.085.009-.013.001-.262.029-.018.002-.086.01h-.004l-.273.03h-.01l-.373.04-.215-1.988c1.992-.215 3.993-.44 5.948-.669zm-9.909 1.085.203 1.99c-1.972.201-3.955.395-5.968.584l-.186-1.992a715.21 715.21 0 0 0 5.951-.582zm-9.93.944.176 1.992-1.364.119-.06.005-.04.004c-1.5.129-3 .254-4.524.376l-.16-1.993c1.999-.16 4.008-.33 5.972-.503zm-9.935.812.15 1.994c-1.975.149-3.97.292-5.983.43l-.136-1.995c1.997-.137 4.005-.281 5.97-.43zm-9.97.693.128 1.995c-.61.04-1.22.078-1.833.115l-.04.003-.053.003c-1.326.082-2.659.16-4 .238l-.029.001c-.012 0-.01 0-.022.002l-.114-1.997a912.6 912.6 0 0 0 5.963-.36zm-9.945.579.106 1.997c-1.04.055-2.088.109-3.137.161l-.028.001-.113.006-.068.003-.04.002c-.869.043-1.742.085-2.618.126l-.093-1.997c2.003-.094 4.019-.195 5.99-.3zm-9.966.477.086 1.998a1206.387 1206.387 0 0 1-.976.042l-.091.003c-1.632.069-3.275.134-4.929.196l-.075-1.999c2-.075 4.014-.155 5.985-.24zm-9.984.382.067 1.999-.676.022-.086.003-.033.001-1.854.06-.154.005h-.01l-.12.004-.045.001-.106.003-.08.003h-.018l-2.025.061-.12.004-.66.018-.056-1.999c1.997-.057 4.007-.119 5.976-.185zm-15.91.22c1.98.031 3.99.05 5.972.053l-.003 2a420.67 420.67 0 0 1-2.695-.014h-.126l-.065-.001h-.035l-.08-.001h-.008c-.998-.01-1.996-.022-2.992-.038l.033-2zm-9.948-.282c1.978.08 3.985.147 5.966.198l-.051 1.999a416.137 416.137 0 0 1-5.995-.198l.08-1.999zm-9.94-.521c1.976.128 3.982.243 5.962.342l-.1 1.997c-2.002-.1-3.999-.215-5.99-.344l.129-1.995zm-9.919-.765c1.973.177 3.976.341 5.954.488l-.149 1.995-1.114-.085-.02-.001-.078-.006-.028-.002-.093-.008-.077-.006-.042-.003-.073-.006-.035-.002-.08-.007-.03-.002-.226-.018-.015-.001-.106-.009h-.007l-.35-.028-.016-.001-.105-.009a307.631 307.631 0 0 1-.246-.02l-.11-.009-.017-.001-.232-.02h-.001l-.109-.008-.024-.002-.086-.007-.03-.003-.222-.018-.024-.002-.088-.008-.028-.002-.086-.007c-.01 0-.019-.002-.029-.003l-.109-.009h-.013l-.096-.009-.03-.003-.086-.007-.027-.002c-.598-.05-1.198-.103-1.795-.157l.178-1.992zm-9.898-1.008c1.966.225 3.962.438 5.934.634l-.198 1.99-.458-.045-.024-.003-.07-.007-.084-.008-.016-.002-.116-.012h-.005c-1.308-.133-2.606-.27-3.908-.415l-.018-.003-.076-.008-.062-.007-.026-.003c-.367-.04-.734-.082-1.1-.124l.227-1.987zm-9.873-1.255c1.96.274 3.951.537 5.919.782l-.247 1.985c-1.992-.248-3.971-.51-5.95-.786l.278-1.981zm-9.834-1.502c1.953.324 3.938.637 5.9.932l-.297 1.977-1.093-.165-.033-.005-.06-.01-.052-.008-.047-.007-.086-.013c-.006 0-.011-.002-.017-.003l-.227-.035h-.006a393.15 393.15 0 0 1-4.308-.69l.326-1.973zm-9.793-1.751c1.942.373 3.917.736 5.87 1.08l-.348 1.97c-1.417-.25-2.831-.507-4.24-.772l-.012-.002-.078-.014-.077-.015c-.006 0-.011-.002-.017-.003-.496-.093-.98-.185-1.475-.28l.377-1.964zm-9.746-2.003c1.932.423 3.897.838 5.841 1.232l-.397 1.96c-.17-.035-.348-.07-.518-.106h-.006a379.427 379.427 0 0 1-.345-.071l-.096-.02a530.968 530.968 0 0 1-.35-.072h-.002l-.107-.023a386.805 386.805 0 0 1-4.448-.947l.428-1.953zm-9.685-2.254c1.92.473 3.873.939 5.805 1.383l-.448 1.95c-1.96-.451-3.894-.912-5.836-1.392l.479-1.941zm-9.628-2.51c1.906.524 3.846 1.04 5.766 1.536l-.5 1.936c-1.94-.5-3.873-1.015-5.797-1.544l.53-1.929zm-9.554-2.766c1.892.575 3.818 1.144 5.725 1.69l-.55 1.923c-1.068-.306-2.11-.61-3.172-.924l-.032-.01-.063-.018-.05-.015-.043-.013-.058-.017-.03-.009c-.771-.229-1.54-.46-2.309-.694l.582-1.913zm-9.472-3.024c1.874.627 3.782 1.248 5.673 1.845l-.603 1.907c-1.25-.395-2.496-.796-3.737-1.203l-.017-.006-.06-.02-.042-.013a27.186 27.186 0 0 1-.106-.035l-.037-.012-.09-.03h-.003c-.539-.178-1.075-.356-1.613-.536l.635-1.897zm-9.389-3.285a356.86 356.86 0 0 0 5.621 2.002l-.655 1.89a357.37 357.37 0 0 1-5.653-2.013l.687-1.879zm-9.285-3.544c1.835.73 3.705 1.457 5.56 2.158l-.708 1.871a353.784 353.784 0 0 1-5.591-2.17l.74-1.859zm-9.187-3.812c1.813.783 3.662 1.563 5.496 2.318l-.76 1.85-.26-.108h-.002l-.078-.032-.018-.008-.071-.03-.022-.008-.066-.028-.032-.013c-.027-.01-.053-.022-.08-.033l-.071-.03-.02-.008-.075-.03-.029-.013-.07-.029-.023-.01-.078-.031-.017-.008a81.642 81.642 0 0 1-.091-.038h-.003c-.738-.307-1.468-.614-2.202-.925l-.017-.007-.075-.032-.03-.012-.066-.029-.032-.013-.056-.024-.042-.018a67.776 67.776 0 0 1-.046-.02l-.051-.021c-.008-.004.006.002-.003-.001-.602-.256-1.203-.514-1.803-.773l.793-1.836zm-9.062-4.075c1.788.836 3.613 1.67 5.425 2.478l-.815 1.826c-.734-.327-1.467-.657-2.197-.99l-.038-.017-.04-.017a48.473 48.473 0 0 0-.057-.027l-.029-.013-.074-.033-.015-.008c-1.005-.457-2.01-.921-3.008-1.388l.848-1.811zm-8.943-4.348c1.762.89 3.56 1.778 5.347 2.64l-.869 1.801c-.45-.217-.9-.435-1.349-.654l-.015-.008-.072-.034-.011-.006-.113-.055-.047-.023-.031-.016-.064-.03-.024-.012-.068-.034-.025-.012-.07-.035-.021-.01a89.975 89.975 0 0 1-.09-.044 323.375 323.375 0 0 1-1.155-.57l-.076-.037-.021-.01-.066-.033-.032-.016-.056-.028-.038-.019-.04-.02-.055-.027-.004-.002c-.614-.305-1.226-.612-1.837-.92l.902-1.786zm-8.798-4.614c1.734.944 3.505 1.887 5.264 2.803l-.923 1.774a321.25 321.25 0 0 1-1.991-1.045l-.014-.008-.069-.036-.02-.01c-.02-.012-.042-.023-.063-.034l-.047-.025a317.193 317.193 0 0 1-2.536-1.36l-.024-.013-.06-.032-.045-.025-.03-.016a72.691 72.691 0 0 0-.067-.036c-.008-.005.002 0-.005-.003l-.326-.177.956-1.757zm-8.653-4.89a312.85 312.85 0 0 0 5.171 2.966l-.978 1.744a562.671 562.671 0 0 1-.276-.155l-.079-.044a11.997 11.997 0 0 0-.02-.012l-.065-.036-.027-.016-.058-.032-.034-.02-.05-.027a23.442 23.442 0 0 1-.038-.022l-.041-.023a303.77 303.77 0 0 1-.276-.156l-.024-.013-.06-.034-.023-.014-.061-.034-.024-.014-.06-.034-.025-.014c-.02-.01-.039-.022-.059-.033l-.027-.016-.06-.034-.016-.009-.07-.04h-.003l-.237-.136-.005-.003-.06-.033-.028-.017-.054-.03a16.456 16.456 0 0 0-.032-.019l-.047-.027-.043-.024-.044-.025-.042-.024-.043-.025-.043-.024-.044-.025-.054-.032-.028-.015a231.473 231.473 0 0 1-.357-.205l-.006-.003-.082-.047-.01-.006-.083-.048-.004-.002c-.695-.4-1.382-.798-2.073-1.202l-.017-.01-.065-.038a41.371 41.371 0 0 1-.133-.078l-.027-.015-.06-.035-.008-.006 1.012-1.725zm-8.483-5.162a303.391 303.391 0 0 0 5.071 3.131l-1.034 1.712-.775-.47-.034-.02-.025-.016-.065-.04-.012-.006a303.38 303.38 0 0 1-4.193-2.6l1.067-1.691zm-8.314-5.444a296.3 296.3 0 0 0 4.964 3.298l-1.09 1.677c-.342-.222-.683-.444-1.023-.668l-.077-.05-.003-.002a295.287 295.287 0 0 1-3.894-2.6l1.123-1.655zm-8.115-5.717a286.976 286.976 0 0 0 4.846 3.465l-1.146 1.638a298.665 298.665 0 0 1-.804-.564l-.063-.044-.028-.02-.046-.033-.044-.03-.028-.02a46.507 46.507 0 0 0-.057-.04l-.014-.01c-.713-.504-1.422-1.01-2.128-1.518l-.009-.006-.066-.048a16.327 16.327 0 0 0-.028-.02l-.045-.032-.073-.053a289.416 289.416 0 0 1-1.446-1.05l1.18-1.615zm-7.912-6.002a277.644 277.644 0 0 0 4.72 3.634l-1.203 1.598a279.053 279.053 0 0 1-4.754-3.66l1.237-1.572zm-7.685-6.281a268.33 268.33 0 0 0 4.583 3.802l-1.26 1.554c-.148-.12-.3-.243-.447-.364l-.003-.002a72.238 72.238 0 0 0-.071-.058l-.015-.013-.064-.051-.007-.006-.068-.055-.013-.011-.063-.052-.013-.01-.063-.052-.014-.011-.064-.052-.01-.01c-.027-.02-.04-.032-.066-.053a2.837 2.837 0 0 0-.08-.066c-.002 0-.003-.002-.004-.003a267.093 267.093 0 0 1-3.552-2.962l1.294-1.525zm-7.442-6.563A259.562 259.562 0 0 0 74 372.986l-1.317 1.505c-1.51-1.322-3-2.656-4.47-4.003l1.351-1.475zm-7.182-6.847a250.498 250.498 0 0 0 4.276 4.141l-1.375 1.453a252.321 252.321 0 0 1-2.49-2.388l-.018-.017-.03-.029-.044-.043-.006-.005-.065-.064a249.203 249.203 0 0 1-1.656-1.628l1.408-1.42zm-6.895-7.124a242.23 242.23 0 0 0 4.103 4.309l-1.432 1.397-.007-.008-.057-.059-.004-.003-.062-.064-.003-.003c-.393-.403-.784-.807-1.173-1.212l-.001-.001-.127-.132-.004-.005-.06-.062-.005-.006-.055-.057-.012-.013a45.603 45.603 0 0 1-.054-.056l-.01-.011-.055-.057-.011-.012-.056-.057-.008-.01-.053-.055-.015-.015-.052-.055-.012-.012-.051-.054-.016-.016a37.7 37.7 0 0 0-.049-.052l-.016-.017-.046-.048-.022-.023-.044-.047a10.552 10.552 0 0 1-.02-.02l-.045-.048-.021-.022a19.986 19.986 0 0 1-.065-.069l-.043-.044-.023-.025-.044-.046-.018-.02-.046-.048-.022-.023-.042-.045-.023-.024a27.165 27.165 0 0 0-.066-.07l-.042-.043a14.336 14.336 0 0 1-.065-.07l-.02-.02-.045-.048a11.844 11.844 0 0 0-.019-.02l-.046-.05-.017-.017-.049-.052-.01-.01-.055-.059-.007-.007-.057-.061-.005-.006-.059-.062-.012-.013c-.338-.36-.675-.72-1.01-1.082l1.465-1.36zm-6.593-7.406a232.856 232.856 0 0 0 3.918 4.476l-1.489 1.336a235.038 235.038 0 0 1-1.898-2.14l-.031-.036c-.68-.776-1.355-1.556-2.022-2.339l1.522-1.297zm-6.264-7.683a224.22 224.22 0 0 0 3.717 4.642l-1.544 1.27c-.359-.435-.715-.871-1.07-1.308v-.001l-.059-.072v-.001l-.054-.067-.008-.01-.048-.059-.013-.016-.041-.051-.02-.025-.036-.044-.025-.03-.031-.04-.031-.038-.024-.03-.036-.044-.022-.028-.04-.048-.016-.02a80.008 80.008 0 0 1-.042-.054l-.016-.02-.046-.057-.009-.01-.051-.065a223.152 223.152 0 0 1-2.013-2.545l1.578-1.229zm-5.91-7.95a216.279 216.279 0 0 0 3.503 4.803l-1.6 1.2c-.376-.5-.75-1.003-1.121-1.506l-.002-.002-.053-.073-.01-.013-.043-.059-.028-.038a9.965 9.965 0 0 1-.027-.036l-.042-.057a1.837 1.837 0 0 0-.011-.016l-.048-.065a215.96 215.96 0 0 1-1.915-2.65l-.005-.007-.04-.056-.019-.027-.027-.039-.03-.043-.016-.02-.044-.064c-.019-.025-.036-.05-.054-.076l1.632-1.156zm-5.533-8.214a208.936 208.936 0 0 0 3.273 4.96l-1.654 1.125-.447-.66-.008-.012-.038-.057-.018-.026-.032-.048-.023-.034-.025-.036-.031-.047-.018-.027-.04-.058-.007-.012-.048-.071-.002-.003a209.509 209.509 0 0 1-2.314-3.523l-.002-.002-.047-.073-.025-.04-.024-.038c-.054-.084-.1-.157-.155-.24l1.685-1.078zm-5.13-8.47a201.195 201.195 0 0 0 3.028 5.11l-1.706 1.045-.008-.014-.029-.047c-.008-.013-.013-.02-.02-.034-.01-.014-.018-.028-.026-.042l-.026-.041-.02-.034a33.786 33.786 0 0 0-.03-.048l-.015-.025-.035-.058-.01-.016-.039-.063-.008-.014a59.747 59.747 0 0 1-.042-.07l-.001-.001a201.54 201.54 0 0 1-2.748-4.655l1.736-.994zm-4.697-8.712c.888 1.752 1.818 3.52 2.765 5.255l-1.755.958c-.554-1.015-1.1-2.034-1.635-3.057l-.003-.006-.036-.07a1.81 1.81 0 0 1-.01-.017l-.03-.058-.014-.028-.022-.043-.024-.045-.013-.025-.03-.059-.008-.014c-.326-.626-.65-1.258-.97-1.887l1.785-.904zm-4.241-8.938c.795 1.796 1.632 3.61 2.488 5.39l-1.802.867c-.474-.986-.94-1.976-1.397-2.969l-.002-.004c-.01-.025-.022-.05-.034-.074l-.006-.015-.031-.067-.009-.02-.027-.058-.013-.03-.022-.047-.018-.039-.016-.035-.024-.052-.01-.022-.029-.063-.006-.013c-.291-.639-.587-1.298-.871-1.94l1.829-.809zm-3.76-9.149a183.33 183.33 0 0 0 2.196 5.513l-1.845.77a184.679 184.679 0 0 1-2.221-5.573l1.87-.71zm-3.255-9.338c.595 1.873 1.231 3.765 1.89 5.624l-1.884.669a180.932 180.932 0 0 1-1.275-3.723l-.002-.006a35.612 35.612 0 0 1-.027-.08l-.003-.01-.025-.074a2.035 2.035 0 0 0-.006-.02l-.022-.066-.007-.022-.02-.063-.01-.028-.018-.056-.011-.033-.015-.047-.016-.046-.01-.03-.018-.058-.008-.022c-.141-.435-.28-.867-.419-1.303l1.906-.606zm-2.727-9.501a175.601 175.601 0 0 0 1.572 5.72l-1.92.562a178.66 178.66 0 0 1-.278-.961l-.022-.075a.939.939 0 0 1-.003-.013l-.021-.073-.005-.015-.02-.07-.005-.02-.02-.068-.005-.017a27.031 27.031 0 0 1-.02-.07l-.004-.016-.02-.073-.005-.014-.02-.07-.006-.02-.019-.07-.004-.015c-.006-.022-.015-.05-.02-.072l-.004-.013-.022-.076-.001-.004-.023-.083v-.002c-.098-.346-.194-.69-.289-1.036v-.002l-.047-.173c-.244-.889-.478-1.772-.707-2.664l1.938-.497zm-2.183-9.64c.379 1.928.797 3.88 1.243 5.799l-1.948.452-.063-.272-.001-.006-.019-.08a3.141 3.141 0 0 0-.005-.021l-.015-.067-.006-.027-.014-.06-.008-.034-.012-.055-.01-.038-.01-.048-.01-.045-.01-.044-.01-.045-.01-.044-.011-.047-.01-.041-.01-.05-.009-.035-.012-.056-.007-.031-.014-.06a4.056 4.056 0 0 1-.02-.09l-.005-.02-.015-.07-.003-.013a34.364 34.364 0 0 1-.017-.076v-.002a177.41 177.41 0 0 1-.212-.96l-.002-.006-.018-.084v-.004l-.019-.084v-.004l-.018-.08-.002-.01a40.079 40.079 0 0 1-.036-.168l-.002-.008-.018-.082a.16.16 0 0 1 0-.005l-.018-.08-.002-.01-.018-.083a174.88 174.88 0 0 1-.557-2.72l1.963-.386zm-1.624-9.75c.267 1.95.572 3.92.907 5.861l-1.971.34a172.24 172.24 0 0 1-.917-5.93l1.981-.27zm-1.055-9.824c.153 1.962.343 3.948.565 5.903l-1.988.225c-.112-.99-.215-1.979-.31-2.972l-.008-.08-.001-.012-.006-.064a5.088 5.088 0 0 1-.003-.03l-.005-.054-.004-.039-.004-.047-.004-.045-.005-.046-.004-.047-.004-.043-.004-.049-.005-.045-.004-.046-.004-.046-.004-.046a11.881 11.881 0 0 1-.004-.046l-.005-.046-.004-.044-.004-.049a11.226 11.226 0 0 0-.008-.09l-.004-.046-.004-.046-.005-.048a9.542 9.542 0 0 1-.003-.042l-.005-.051a8.548 8.548 0 0 0-.003-.04l-.005-.053-.003-.037-.005-.055-.003-.036a18.041 18.041 0 0 1-.005-.058l-.003-.03-.005-.061-.003-.03-.005-.064-.002-.023-.006-.07-.002-.016c-.033-.392-.065-.788-.096-1.18l1.994-.156zm-.482-9.87c.04 1.969.113 3.963.22 5.926l-1.996.11a171.97 171.97 0 0 1-.223-5.996l2-.04zm-1.981-9.966 2 .031c-.032 1.962-.049 3.971-.052 5.973l-2-.003c.003-2.005.02-4.01.052-6.001zm.287-9.996 1.998.084c-.082 1.959-.15 3.966-.202 5.965l-2-.052c.032-1.223.07-2.442.113-3.66v-.001l.003-.087v-.016a3.365 3.365 0 0 0 .004-.098l.003-.064v-.034c.002-.017.002-.035.003-.052l.002-.053v-.027c.002-.023.003-.049.003-.072v-.014l.004-.081v-.003c.022-.58.045-1.157.069-1.735zm.561-9.982 1.995.141a340.705 340.705 0 0 0-.369 5.952l-1.997-.107c.053-.993.11-1.98.17-2.968l.001-.009.005-.069.001-.027.004-.05c0-.017.002-.033.003-.05l.002-.032.004-.069v-.012c.057-.902.118-1.802.181-2.7zm.864-9.963 1.99.205c-.201 1.949-.387 3.946-.553 5.935l-1.993-.166c.167-2.002.352-3.99.556-5.974zm1.194-9.93 1.981.275c-.268 1.94-.522 3.93-.753 5.912l-1.986-.232.017-.144.009-.079.002-.02.007-.06.005-.04.006-.048.006-.05.004-.035.009-.076.001-.011c.096-.808.195-1.615.297-2.42v-.002l.06-.463.002-.016.01-.07.004-.038.007-.052a11.208 11.208 0 0 0 .011-.087l.007-.05.005-.04.007-.051.004-.035.007-.057.004-.03a22.1 22.1 0 0 0 .009-.063l.002-.02.01-.07.001-.014.01-.076v-.003l.104-.774.01-.082.002-.01.01-.071c0-.007.002-.013.003-.02l.009-.068.002-.02.01-.066.003-.025.008-.063.004-.027.008-.058.005-.038.007-.051.007-.047.005-.04.038-.274zm1.554-9.876 1.97.349a257.1 257.1 0 0 0-.97 5.873l-1.977-.303c.285-1.858.588-3.707.911-5.546l.003-.012.013-.074c0-.007.002-.014.003-.02l.011-.063a6.63 6.63 0 0 1 .014-.077l.009-.051.004-.023.01-.053zm1.946-9.807 1.953.43c-.42 1.911-.826 3.87-1.205 5.824l-1.964-.38c.159-.82.322-1.64.49-2.454 0-.008.002-.015.004-.023l.01-.049.008-.04.009-.041.01-.051.006-.03.013-.063.005-.023.015-.073.003-.013.017-.082.001-.006c.203-.978.41-1.954.625-2.926zm2.368-9.716 1.932.517a217.73 217.73 0 0 0-1.46 5.765l-1.945-.465.264-1.095.001-.004.02-.081.005-.018.015-.064.009-.034.011-.046.011-.046.008-.03.015-.062v-.004a217.94 217.94 0 0 1 .942-3.685l.012-.045.012-.045.009-.035.015-.058.007-.024.019-.073.003-.01.095-.358zm2.82-9.593 1.904.611a202.589 202.589 0 0 0-1.73 5.682l-1.922-.554c.456-1.578.93-3.153 1.422-4.714l.013-.042.005-.015.023-.075.002-.006.283-.887zm3.297-9.44 1.87.71c-.694 1.83-1.372 3.709-2.016 5.583l-1.891-.65c.162-.472.326-.944.492-1.415l.002-.006.029-.081.002-.008.03-.081v-.005l.124-.349.006-.017.024-.065.01-.03.019-.052.013-.037.017-.047.013-.036.016-.045.015-.042a8.705 8.705 0 0 0 .03-.084l.01-.027.073-.205.002-.006.025-.07.004-.01.026-.072.002-.006.026-.073.003-.007c.334-.924.676-1.849 1.024-2.767zm3.797-9.25 1.828.811a178.353 178.353 0 0 0-2.313 5.464l-1.855-.75c.75-1.856 1.53-3.697 2.34-5.524zm4.313-9.02 1.778.916a170.2 170.2 0 0 0-2.62 5.32l-1.809-.853c.346-.734.697-1.466 1.053-2.196l.003-.006.037-.075.006-.012.033-.069.009-.016.031-.064.01-.019.03-.065.01-.016.037-.077.002-.004.04-.08.013-.028.025-.051.018-.036.02-.043.02-.039.02-.039.021-.044.015-.03.025-.05.013-.027.026-.052.008-.016.175-.352.004-.008.035-.07.001-.002c.302-.604.602-1.196.91-1.796zm4.836-8.75 1.72 1.02c-1 1.687-1.985 3.42-2.928 5.153l-1.757-.957.001-.002.088-.161.01-.018.032-.058.022-.04.018-.034.027-.05.014-.025.029-.052a3.61 3.61 0 0 0 .044-.081l.004-.007c.544-.99 1.095-1.968 1.66-2.949l.003-.005.038-.065.005-.01.036-.062.01-.016.032-.057.011-.019.032-.055.004-.007.056-.096.026-.046.017-.029.029-.049.015-.026.032-.055.012-.02.036-.063.007-.012.043-.073.002-.004.57-.97zm5.36-8.44 1.655 1.123a160.838 160.838 0 0 0-3.238 4.964l-1.695-1.062.332-.527v-.001l.043-.068.003-.004.04-.065.006-.009.041-.064.002-.003.263-.413.005-.008.04-.062.006-.01a36.71 36.71 0 0 1 .086-.135l.002-.003.267-.415.002-.004.044-.067.001-.002.044-.068.001-.003c.67-1.036 1.356-2.07 2.05-3.094zm5.872-8.091L40.702 90a159.456 159.456 0 0 0-3.538 4.75l-1.626-1.164c.317-.442.64-.888.962-1.328l.048-.066.004-.006.045-.06.007-.011.045-.06v-.001a128.715 128.715 0 0 1 .201-.273l.03-.04.025-.034.025-.034.029-.04.022-.03.034-.045.018-.025.036-.049.017-.023.042-.056.01-.015c.39-.524.783-1.047 1.18-1.569l.008-.01.045-.059.019-.025.033-.043.027-.035.024-.032a19.31 19.31 0 0 1 .096-.126l.55-.715zm6.363-7.712 1.502 1.32c-1.299 1.479-2.587 3-3.827 4.523l-1.55-1.263c.274-.338.55-.674.828-1.01l.003-.003.054-.065.007-.008.05-.06.01-.013.052-.062.006-.007.059-.07.118-.142.01-.013c.017-.02.033-.038.048-.058a2.24 2.24 0 0 1 .057-.068l.019-.022.04-.047.02-.024.037-.045c.01-.01.011-.013.02-.024l.04-.048.018-.02a21.85 21.85 0 0 1 .058-.07l.049-.058.008-.01.239-.283.004-.004.055-.066.007-.008.053-.063.007-.008.054-.064.005-.005c.564-.665 1.135-1.327 1.712-1.986l.012-.014.046-.052.02-.023.036-.04.014-.017zm6.828-7.308 1.42 1.41c-1.39 1.4-2.77 2.84-4.102 4.283l-1.47-1.357a164.5 164.5 0 0 1 4.017-4.2l.014-.013.048-.05.026-.025.036-.037.011-.011zm7.251-6.879 1.333 1.491a168.39 168.39 0 0 0-4.347 4.028l-1.385-1.443c.93-.893 1.873-1.778 2.832-2.657l.001-.001.063-.058.005-.004a35.893 35.893 0 0 1 .065-.06l.061-.056a.855.855 0 0 0 .006-.005l.06-.056.004-.002.063-.058.516-.469.013-.011.049-.044.019-.018a65.994 65.994 0 0 0 .11-.1c.01-.007.018-.015.027-.023l.038-.035.031-.028.035-.031.035-.031.031-.029.039-.034.03-.027.04-.036.026-.024.044-.04a5.534 5.534 0 0 0 .073-.064l.018-.017.056-.05.01-.008zm7.64-6.447 1.246 1.565a175.774 175.774 0 0 0-4.574 3.771l-1.299-1.521.85-.721.003-.002.069-.058.002-.002.142-.12h.001l.058-.049.015-.012.064-.054.006-.005.142-.119.026-.021.043-.037.035-.029.036-.03.032-.026.04-.033c.01-.01.021-.019.033-.028l.036-.03.038-.032.032-.026.04-.035.03-.024.038-.031.034-.029.037-.03.034-.028.037-.031.033-.028.038-.031.034-.029.034-.027.038-.032.034-.028.037-.03.034-.028.037-.03.035-.03.037-.03.032-.026.04-.034.031-.025.042-.035.028-.023.045-.036.026-.022.05-.04.02-.017.052-.043.02-.017.051-.041.021-.017.05-.041.023-.019.055-.045.014-.012.059-.048.014-.01.063-.053.008-.006.066-.054.007-.005.436-.354.008-.006.065-.053.01-.008.061-.05.018-.014.055-.045.019-.014a24.287 24.287 0 0 1 .124-.1l.033-.027.037-.03.038-.03.034-.028.04-.032.03-.024.045-.036.027-.021.048-.039.022-.017.052-.042.019-.015.056-.045.013-.01.062-.05.007-.005.107-.086zm7.988-6.013 1.16 1.63a185.132 185.132 0 0 0-4.78 3.517l-1.212-1.591c1.036-.788 2.085-1.57 3.149-2.344l.002-.002.072-.052.007-.006.066-.047.016-.012.06-.043a4.665 4.665 0 0 1 .073-.053l.024-.018.05-.036.03-.022.044-.032.035-.025.041-.03.036-.026.037-.027.043-.03.032-.024.047-.034.027-.019.051-.037.025-.017.053-.039.021-.015.057-.041.018-.013.061-.044.013-.01.062-.044.016-.01c.025-.02.038-.029.064-.047l.01-.007.067-.048.008-.006.07-.05.004-.003.074-.052.003-.003.264-.188zm8.295-5.585 1.075 1.687a196.587 196.587 0 0 0-4.962 3.267l-1.125-1.653c.268-.183.532-.361.802-.543l.004-.003.076-.051.001-.001.077-.052.004-.002.075-.05.004-.003.074-.05.007-.005.075-.05h.001l.078-.053h.002a138.943 138.943 0 0 1 .16-.107c.026-.018.05-.035.077-.052l.078-.052.003-.002.076-.051.003-.002.075-.05.006-.004a198.563 198.563 0 0 1 3.254-2.118zm8.561-5.166.993 1.736a210.18 210.18 0 0 0-5.12 3.023l-1.041-1.707a211.293 211.293 0 0 1 5.168-3.052zm8.79-4.764.914 1.78a225.474 225.474 0 0 0-5.255 2.787l-.96-1.755a225.989 225.989 0 0 1 4.3-2.294c.017-.01.034-.018.052-.027l.037-.02.043-.022.049-.025.034-.018.06-.031.021-.011.076-.04.01-.004c.205-.107.414-.214.62-.32zm8.987-4.38.84 1.816a243 243 0 0 0-5.372 2.563l-.883-1.795c.441-.217.884-.434 1.33-.65l.013-.006.069-.033.02-.01.063-.03.028-.014.06-.029.032-.016.052-.025.051-.024.038-.019.09-.043.01-.005.08-.038.023-.011.071-.035.019-.009.071-.034.024-.011.072-.035.018-.008.076-.037.016-.008a79.887 79.887 0 0 1 .469-.223l.002-.002.09-.042.01-.005a100.083 100.083 0 0 1 .095-.045l.08-.039.014-.006.09-.043.381-.18.004-.002.087-.041.014-.007a65.555 65.555 0 0 1 .094-.044l.08-.037.015-.008.085-.04.007-.003.379-.178.009-.004a103.344 103.344 0 0 1 .099-.046l.079-.037a3.23 3.23 0 0 1 .015-.007l.078-.037.017-.008.089-.04.001-.002c.233-.108.473-.22.707-.327zm9.156-4.015.768 1.846a262.538 262.538 0 0 0-5.47 2.35l-.81-1.83.02-.009.029-.012.065-.029.03-.013.063-.028.033-.015.07-.03.021-.01.19-.084.016-.007.077-.033.026-.012.07-.03.025-.012.07-.03.026-.012.078-.034.015-.007.193-.084.008-.003.086-.038.02-.009.078-.034.018-.008.078-.034.019-.008.086-.038c.003 0 .005-.002.008-.003l.29-.126.019-.008.078-.035.019-.008.08-.034.016-.007.09-.039.004-.002.397-.171.002-.001.096-.041.005-.003c.958-.411 1.926-.82 2.898-1.225zm9.301-3.675.702 1.873a283.788 283.788 0 0 0-5.555 2.148l-.74-1.857.83-.33.31-.123.004-.001.096-.038.012-.005.092-.036.01-.004.097-.038.004-.001.203-.08.016-.006.082-.033.025-.01.073-.028.028-.01.075-.03.024-.01.195-.075.032-.013.065-.025.038-.015.06-.023.038-.015.065-.025.032-.013a121.067 121.067 0 0 1 .195-.075l.026-.01.071-.028.035-.013.063-.025.037-.014.062-.024.037-.014.095-.037.007-.002.087-.034.044-.017.055-.02a25.254 25.254 0 0 1 .097-.038l.044-.017a39.323 39.323 0 0 1 .1-.038l.045-.018a106.63 106.63 0 0 1 .138-.053l.057-.022.04-.015.058-.022.034-.013.063-.024.026-.01.326-.124.012-.004.08-.03.009-.004.083-.032h.001l1.06-.4zm9.43-3.355.64 1.895a306.856 306.856 0 0 0-5.628 1.96l-.676-1.882c1.863-.67 3.751-1.327 5.664-1.973zm9.514-3.047.581 1.913c-1.908.58-3.822 1.18-5.69 1.785l-.616-1.903c1.883-.61 3.795-1.21 5.725-1.795zm9.607-2.768.527 1.929c-1.925.525-3.857 1.07-5.743 1.62l-.559-1.921a355.144 355.144 0 0 1 4.19-1.192l.096-.026.021-.006.103-.029.06-.016.039-.011.077-.022.012-.003 1.177-.323zm9.69-2.508.476 1.943c-1.937.474-3.883.967-5.783 1.464l-.506-1.935.26-.069.028-.007.069-.017.096-.026.037-.01.08-.02.03-.008c1.726-.448 3.452-.883 5.213-1.315zm9.73-2.256.428 1.953c-1.95.428-3.908.872-5.823 1.32l-.456-1.946c.903-.212 1.81-.421 2.722-.629l.015-.003.173-.04.071-.016.037-.008.067-.015.06-.014.077-.017.077-.017.04-.01.099-.022.01-.002.124-.028.006-.001c.76-.171 1.506-.337 2.273-.505zm9.804-2.032.384 1.963c-1.96.383-3.929.782-5.855 1.185l-.41-1.957c.605-.127 1.212-.253 1.821-.378l.008-.001.249-.051.033-.007.069-.014.054-.011.082-.017.075-.015.048-.01a72.708 72.708 0 0 1 .229-.046l.027-.006.11-.022.009-.002c1.017-.206 2.04-.41 3.067-.61zm9.821-1.812.343 1.97c-1.967.342-3.946.699-5.881 1.06l-.367-1.966c1.72-.321 3.437-.632 5.186-.938l.032-.006.083-.014.096-.017.045-.008.084-.015.015-.002.364-.064zm9.874-1.614.303 1.977c-1.97.302-3.953.619-5.893.94l-.327-1.974c.725-.12 1.437-.236 2.167-.353l.018-.003.122-.02.04-.006.077-.013.058-.009.054-.009.125-.02.014-.002a521.595 521.595 0 0 1 2.143-.338l.082-.013.094-.014.046-.007.11-.018h.007c.249-.04.51-.08.76-.118zm9.9-1.425.266 1.982c-1.98.267-3.975.546-5.926.831l-.289-1.98.213-.03.077-.011.043-.007a550.46 550.46 0 0 1 5.615-.785zm9.913-1.248.232 1.987c-1.982.232-3.978.476-5.932.725l-.253-1.983c1.48-.19 2.97-.373 4.47-.553l.085-.01.049-.006 1.349-.16zm9.947-1.084.2 1.99c-1.983.2-3.98.411-5.936.628l-.22-1.988c.701-.078 1.385-.152 2.09-.228h.006l.143-.016a8.605 8.605 0 0 0 .208-.022l.066-.007.08-.008.012-.002.172-.018h.006c.618-.066 1.237-.13 1.859-.195h.006l.156-.016.034-.004.072-.007.089-.01.057-.005.122-.013h.007l.77-.079zm9.965-.928.17 1.993c-1.993.17-4.002.351-5.97.538l-.188-1.991a670.567 670.567 0 0 1 2.93-.271l.156-.014h.006l.135-.013.03-.002.126-.012.045-.004.117-.01.06-.006.068-.006.126-.01.031-.004.274-.024h.007l1.584-.139.025-.002.122-.01.076-.007.05-.004.02-.002zm9.957-.78.142 1.995c-1.993.142-4.001.294-5.969.45l-.159-1.993.552-.044.02-.001.1-.008c1.75-.138 3.542-.272 5.314-.399zm9.976-.643.115 1.997c-1.992.115-3.999.239-5.966.368l-.132-1.995 1.371-.09.046-.002.065-.004.144-.01h.008c1.424-.09 2.855-.177 4.294-.26l.055-.004zm9.989-.513.09 1.998c-1.99.09-3.996.188-5.962.291l-.105-1.997c.83-.044 1.662-.086 2.497-.127l.017-.001.08-.004.111-.006.055-.002.132-.007h.022c1.022-.05 2.033-.098 3.063-.145zm9.998-.39.066 2c-1.995.065-4.007.139-5.98.218l-.08-1.998.103-.004.061-.003.131-.005.03-.001.153-.006h.009c1.82-.073 3.664-.14 5.507-.2zm10.005-.273.043 2c-2 .043-4.019.093-5.998.15l-.057-2a893.105 893.105 0 0 1 6.012-.15zM304.825 0H305.18a54.329 54.329 0 0 1 .224 0h.292a36.762 36.762 0 0 1 .101.001h.252a110.586 110.586 0 0 1 .175.001h.116c1.5.006 2.996.02 4.49.041l-.028 2A416.73 416.73 0 0 0 304.835 2c-1.806.02-3.629.047-5.417.078l-.035-2a933.233 933.233 0 0 1 4.512-.067l.17-.002.183-.002.172-.002.186-.002.22-.003z" style="fill:#fff;stroke:none" transform="rotate(-9 665.018 -709.593)"/>
        </g>
        <g data-name="Ellipse 155" transform="rotate(-9 1221.313 -3963.856)" style="stroke:#fff;stroke-width:2px;stroke-dasharray:6 4;fill:none">
            <ellipse cx="18.181" cy="15.487" rx="18.181" ry="15.487" style="stroke:none"/>
            <ellipse cx="18.181" cy="15.487" rx="17.181" ry="14.487" style="fill:none"/>
        </g>
        <path data-name="Pfad 1825" d="m56.075-623.715 20.747-66.4s-47.7 6.922-109.921 34.431" transform="rotate(-9 4838.706 -4034.117)" style="stroke:#fff;stroke-width:2px;stroke-dasharray:6 4;fill:none"/>
        <path data-name="Pfad 1830" d="M-381.3-527.423s-.567-32.724-37.78-29.816-40.869 13.475-40.869 29.816 23.731 25.454 40.869 13.857 4.139-68.1-23.44-76.666-64.072 1.939-75.981 23.351" transform="rotate(-9 5150.017 -3468.249)" style="stroke:#fff;stroke-width:2px;stroke-dasharray:6 4;fill:none"/>
        <path data-name="Pfad 1827" d="m0 0 17.819 119.158h33.06l34.39-75.946" transform="rotate(-1 26273.783 -15690.683)" style="stroke:#fff;stroke-width:2px;stroke-dasharray:6 4;fill:none"/>
        <path data-name="Pfad 1828" d="m0 30.846 24.277 64.726h39.815L78.393 0" transform="rotate(-18 1718.713 -1668.95)" style="stroke:#fff;stroke-width:2px;stroke-dasharray:6 4;fill:none"/>
        <path data-name="Pfad 1829" d="M0 3.3S87.208-8.8 133.774 13.328" transform="rotate(-12 641.4 -1567.885)" style="stroke:#fff;stroke-width:2px;stroke-dasharray:6 4;fill:none"/>
        <path data-name="Pfad 1831" d="m-678.71-541.146 49.359 9.2-9.489 74.525-62.837 9.927" transform="rotate(-9 4717.405 -9294.63)" style="stroke:#fff;stroke-width:2px;stroke-dasharray:6 4;fill:none"/>
    </g>
</svg>
