<svg xmlns="http://www.w3.org/2000/svg" width="1042.055" height="766.661" viewBox="0 0 1042.055 766.661">
    <defs>
        <clipPath id="clip-path">
            <path id="Rechteck_469" data-name="Rechteck 469" style="fill:none;stroke:#fff;stroke-width:2px;stroke-dasharray:6 4" d="M0 0h101.288v253.189H0z"/>
        </clipPath>
        <style>
            .cls-2{fill:none;stroke:#fff;stroke-width:2px;stroke-dasharray:6 4;stroke-miterlimit:10}
        </style>
    </defs>
    <g id="Gruppe_2070" data-name="Gruppe 2070" transform="translate(-152.774 -39.499)">
        <g id="Gruppe_1594" data-name="Gruppe 1594" transform="translate(-184.355 -74.518)">
            <path id="Pfad_1221" data-name="Pfad 1221" class="cls-2" d="M416.139 233.2c24.226 7.347 52.736-3.381 66.125-24.884 13.687-21.98 11.386-50.3 20.68-74.476 3.634-9.449 11.1-19.374 21.2-18.8 8.582.492 14.811 8.524 17.9 16.556 3.675 9.564 4.616 19.954 4.831 30.2a228.358 228.358 0 0 1-2.235 37c-1.381 9.69-3.474 19.517-8.588 27.862s-13.762 15.049-23.529 15.564" transform="translate(-6.743)"/>
            <path id="Pfad_1222" data-name="Pfad 1222" class="cls-2" d="M522.869 260.463c-6.8-6.341-16.974-7.178-26.264-6.9-6.734.2-13.675.869-19.606 4.066s-10.644 9.487-10.133 16.211a18.146 18.146 0 0 0 4.355 9.894c7.323 8.951 19.414 12.214 30.791 14.26a278.821 278.821 0 0 0 88.048 1.677c5.3-.746 11.573-2.465 13.138-7.591 1.469-4.813-2.207-9.578-5.831-13.066a119.667 119.667 0 0 0-62.515-31.539c-6.116-1.037-12.967-1.428-17.947 2.274a4.024 4.024 0 0 0-1.687 2.174 4.419 4.419 0 0 0 .666 2.909 29.046 29.046 0 0 0 14.174 13.253" transform="translate(-11.119 -11.259)"/>
            <path id="Pfad_1223" data-name="Pfad 1223" class="cls-2" d="M477.546 296.467c-6.618.867-13.433 2.188-18.863 6.073s-9.088 10.984-7.071 17.353c1.415 4.467 5.223 7.711 9.033 10.435 28.711 20.528 65.865 25.014 101.14 24.233 5.916-.132 11.966-.42 17.45-2.645a26.057 26.057 0 0 0 11.427-39.239" transform="translate(-9.757 -15.507)"/>
            <path id="Pfad_1224" data-name="Pfad 1224" class="cls-2" d="M565.391 361.356c3.1 7.255-1.037 16.012-7.483 20.554s-14.589 5.806-22.435 6.587c-22.838 2.273-47.967.8-65.481-14.05-4.8-4.067-8.994-9.358-9.884-15.587s2.483-13.34 8.545-15.011" transform="translate(-10.527 -19.557)"/>
            <path id="Pfad_1225" data-name="Pfad 1225" class="cls-2" d="M546.289 388.22c11.075 2.94 16.906 16.714 13.5 27.665s-13.93 18.586-25.075 21.25-22.862 1.09-34.04-1.428c-14.936-3.365-30.426-9.048-39.546-21.355A39.238 39.238 0 0 1 458.379 373" transform="translate(-9.991 -22.048)"/>
            <path id="Pfad_1226" data-name="Pfad 1226" class="cls-2" d="M441.935 402.854c-45.333-11.1-84.806-44.029-103.894-86.66" transform="translate(0 -17.193)"/>
        </g>
        <g id="Gruppe_2013" data-name="Gruppe 2013" transform="scale(-1) rotate(66 138.89 -1144.38)">
            <g id="Gruppe_2011" data-name="Gruppe 2011" style="clip-path:url(#clip-path)">
                <path id="Pfad_1690" data-name="Pfad 1690" class="cls-2" d="M54.164 229.129C28.794 214.9 13.64 194.475 6.455 173.512s-12.22-40.4-11.071-61.836C-2.6 74.038 10.726 27.44 39.837-5.407" transform="translate(19.932 23.326)"/>
                <path id="Pfad_1691" data-name="Pfad 1691" class="cls-2" d="M17.269 17.769c10.3-7.258 52.3-20.185 53.41-20.367.331.564 9.63 31.6 14.05 45.756" transform="translate(-1.963 6.36)"/>
            </g>
        </g>
    </g>
</svg>
