<svg xmlns="http://www.w3.org/2000/svg" width="181.672" height="701.829" viewBox="0 0 181.672 701.829">
    <g data-name="Gruppe 2094">
        <g data-name="Gruppe 2049">
            <g data-name="Gruppe 1594">
                <path data-name="Pfad 1221" d="M416.139 198.533c17.12 5.192 37.267-2.389 46.729-17.585 9.672-15.533 8.046-35.55 14.614-52.631 2.568-6.677 7.842-13.691 14.979-13.282 6.065.348 10.466 6.024 12.647 11.7 2.6 6.759 3.262 14.1 3.414 21.341a161.375 161.375 0 0 1-1.579 26.148c-.976 6.848-2.455 13.792-6.069 19.69s-9.726 10.635-16.627 11" transform="translate(-364.801 -114.018)" style="stroke-dasharray:6 4;stroke-miterlimit:10;fill:none;stroke:#fff;stroke-width:2px"/>
                <path data-name="Pfad 1222" d="M506.431 256.445c-4.806-4.481-12-5.073-18.56-4.877-4.759.142-9.664.614-13.855 2.873s-7.522 6.7-7.161 11.456a12.823 12.823 0 0 0 3.078 6.992c5.175 6.326 13.72 8.631 21.76 10.077a197.037 197.037 0 0 0 62.222 1.185c3.747-.527 8.179-1.742 9.285-5.364 1.038-3.4-1.559-6.769-4.121-9.233a84.566 84.566 0 0 0-44.179-22.287c-4.322-.733-9.163-1.009-12.683 1.607a2.844 2.844 0 0 0-1.192 1.536 3.123 3.123 0 0 0 .471 2.056 20.526 20.526 0 0 0 10.017 9.365" transform="translate(-382.762 -160.618)" style="stroke-dasharray:6 4;stroke-miterlimit:10;fill:none;stroke:#fff;stroke-width:2px"/>
                <path data-name="Pfad 1223" d="M469.775 296.467c-4.677.613-9.493 1.547-13.33 4.291s-6.422 7.762-5 12.263c1 3.156 3.691 5.449 6.383 7.374 20.289 14.506 46.546 17.677 71.473 17.125 4.181-.093 8.456-.3 12.332-1.869a18.414 18.414 0 0 0 8.075-27.729" transform="translate(-377.172 -178.199)" style="stroke-dasharray:6 4;stroke-miterlimit:10;fill:none;stroke:#fff;stroke-width:2px"/>
                <path data-name="Pfad 1224" d="M534.468 356.221c2.191 5.127-.733 11.315-5.288 14.525s-10.31 4.1-15.854 4.655c-16.139 1.606-33.9.562-46.274-9.929-3.391-2.874-6.356-6.613-6.985-11.015s1.755-9.427 6.039-10.608" transform="translate(-380.331 -194.959)" style="stroke-dasharray:6 4;stroke-miterlimit:10;fill:none;stroke:#fff;stroke-width:2px"/>
                <path data-name="Pfad 1225" d="M519.148 383.755c7.827 2.078 11.947 11.811 9.54 19.55s-9.844 13.134-17.72 15.017-16.156.77-24.056-1.009c-10.555-2.378-21.5-6.394-27.946-15.091A27.729 27.729 0 0 1 457.024 373" transform="translate(-378.131 -205.269)" style="stroke-dasharray:6 4;stroke-miterlimit:10;fill:none;stroke:#fff;stroke-width:2px"/>
                <path data-name="Pfad 1226" d="M411.461 377.435a110.542 110.542 0 0 1-73.42-61.241" transform="translate(-337.129 -185.177)" style="stroke-dasharray:6 4;stroke-miterlimit:10;fill:none;stroke:#fff;stroke-width:2px"/>
            </g>
        </g>
        <g data-name="Gruppe 2016">
            <path data-name="Pfad 1536" d="M0 65c10.616-27.647 47.823-28.336 69.835-20.023S85.62 65.53 80.206 71.595 63.849 83.008 51.73 68.988s-12.794-26.867 4.886-42.2S103.485-3.42 130.785.695" transform="rotate(111 -108.041 344.19)" style="stroke-dasharray:6 4;fill:none;stroke:#fff;stroke-width:2px"/>
            <path data-name="Pfad 1105" d="m0 0 19.544 2.295-9.571 15.154" transform="rotate(141 -51.74 368.65)" style="stroke-dasharray:6 4 6 4 6 4;fill:none;stroke:#fff;stroke-width:2px"/>
        </g>
    </g>
</svg>
