<svg xmlns="http://www.w3.org/2000/svg" width="204.032" height="150.727" viewBox="0 0 204.032 150.727">
  <g id="Gruppe_1427" data-name="Gruppe 1427" transform="translate(-72.549 -1786.016)">
    <path id="Pfad_1040" data-name="Pfad 1040" d="M86.884,1819.873l.266,100.658" fill="none" stroke="#181b1f" stroke-miterlimit="10" stroke-width="2" stroke-dasharray="7 5 0 0 0 0"/>
    <path id="Pfad_1041" data-name="Pfad 1041" d="M93.881,1817.4a1280.422,1280.422,0,0,0,146.073-6.014c2.594-.256,5.526-.44,7.509.979" fill="none" stroke="#181b1f" stroke-miterlimit="10" stroke-width="2" stroke-dasharray="7 5 0 0 0 0"/>
    <path id="Pfad_1042" data-name="Pfad 1042" d="M257.242,1818.656a702.653,702.653,0,0,0,7.41,113.636" fill="none" stroke="#181b1f" stroke-miterlimit="10" stroke-width="2" stroke-dasharray="7 5 0 0 0 0"/>
    <path id="Pfad_1043" data-name="Pfad 1043" d="M264.08,1933.129l-176.039,2.614" fill="none" stroke="#181b1f" stroke-miterlimit="10" stroke-width="2" stroke-dasharray="7 5 0 0 0 0"/>
    <path id="Pfad_1044" data-name="Pfad 1044" d="M73.174,1809.534a1012.24,1012.24,0,0,1,80.951,72.192,5.305,5.305,0,0,0,3.1,1.852,5.708,5.708,0,0,0,3.72-1.451,1063.751,1063.751,0,0,0,114.945-95.388" fill="none" stroke="#181b1f" stroke-miterlimit="10" stroke-width="2" stroke-dasharray="7 5 0 0 0 0"/>
  </g>
</svg>
