<svg xmlns="http://www.w3.org/2000/svg" width="174.737" height="92.178" viewBox="0 0 174.737 92.178">
  <g id="Gruppe_1607" data-name="Gruppe 1607" transform="translate(-439.939 -1198.704)">
    <g id="Gruppe_1310" data-name="Gruppe 1310" transform="translate(55.265 17.762)">
      <path id="Pfad_985" data-name="Pfad 985" d="M558.582,1181.5c-14.02,20.824-28.152,41.785-46.51,60.065-8.076,8.042-17.285,15.725-28.886,19.672-9.167,3.118-19.274,3.7-29.158,3.48-11.271-.253-22.681-1.548-33-5.369-10.365-3.837-19.422-10.25-25.355-18.366-5.257-7.193-7.983-15.521-9.392-23.883-.844-5.006-1.2-10.263.976-14.973,2.442-5.273,7.878-9.278,13.974-11.668s12.844-3.33,19.533-3.911c7.58-.658,15.331-.879,22.734.641,7.01,1.438,13.454,4.386,19.51,7.686,36.212,19.735,59.927,51.886,91.652,76.489.566.438,1.3.959,2.005.693s-.185-1.431-.509-.843" fill="none" stroke="#181b1f" stroke-miterlimit="10" stroke-width="2" stroke-dasharray="7 5 0 0 0 0"/>
      <path id="Pfad_986" data-name="Pfad 986" d="M403.138,1215.45c-.933,4.1,2,8.288,5.818,10.374a9.469,9.469,0,0,0,5.2,1.328c2.53-.2,4.678-1.8,6.529-3.462a50.946,50.946,0,0,0,9.144-10.833" fill="none" stroke="#181b1f" stroke-miterlimit="10" stroke-width="2" stroke-dasharray="7 5 0 0 0 0"/>
      <path id="Pfad_987" data-name="Pfad 987" d="M407.923,1197.072a29.193,29.193,0,0,0-.376,7.266" fill="none" stroke="#181b1f" stroke-miterlimit="10" stroke-width="2" stroke-dasharray="7 5 0 0 0 0"/>
      <path id="Pfad_988" data-name="Pfad 988" d="M436.891,1195.755a35.176,35.176,0,0,0-2.647,7.276" fill="none" stroke="#181b1f" stroke-miterlimit="10" stroke-width="2" stroke-dasharray="7 5 0 0 0 0"/>
    </g>
  </g>
</svg>
