<svg xmlns="http://www.w3.org/2000/svg" width="321.668" height="282.95" viewBox="0 0 321.668 282.95">
    <g data-name="Gruppe 2251">
        <path data-name="Pfad 1702" d="M208.5 369.782c-7.633-10.152-21.562-12.7-34.158-14.328-25.1-3.243-50.531-5.857-75.673-2.959s-50.243 11.735-68.859 28.88C1.385 407.555-7.668 452.57 8.426 487.7a81.926 81.926 0 0 0 23.5 30.394c9.4 7.379 20.468 12.345 31.74 16.309a219.668 219.668 0 0 0 111.03 8.954c12.871-2.306 25.783-5.88 36.679-13.11 21.139-14.025 31.711-40.137 33.173-65.463a124.8 124.8 0 0 0-35.076-93.373" transform="rotate(14 1321.246 388.088)" style="fill:none;stroke:#fff;stroke-miterlimit:10;stroke-width:2px;stroke-dasharray:6 4"/>
        <path data-name="Pfad 1703" d="M478.116 120.416c4.946-12.011 12.022-23.012 19.262-33.8 12.085-18 24.741-35.611 37.394-53.218" transform="rotate(14 492.874 -892.495)" style="fill:none;stroke:#fff;stroke-miterlimit:10;stroke-width:2px;stroke-dasharray:6 4"/>
        <path data-name="Pfad 1704" d="M594.985 13.39Q612.538 6.255 630.678.7q-2.29 24.188-2.636 48.508" transform="rotate(14 437.25 -1258.817)" style="fill:none;stroke:#fff;stroke-miterlimit:10;stroke-width:2px;stroke-dasharray:6 4"/>
        <path data-name="Pfad 1705" d="M460.181 138.406q32.782 22.135 63.347 47.339" transform="rotate(14 804.397 -799.078)" style="fill:none;stroke:#fff;stroke-miterlimit:10;stroke-width:2px;stroke-dasharray:6 4"/>
    </g>
</svg>
