<svg xmlns="http://www.w3.org/2000/svg" width="829.451" height="1022.872" viewBox="0 0 829.451 1022.872">
    <defs>
        <clipPath id="0ypr7tuxza">
            <path data-name="Rechteck 522" transform="translate(-31)" style="fill:none;stroke:#fff;stroke-width:2px;stroke-dasharray:6 4" d="M0 0h643.191v901.285H0z"/>
        </clipPath>
    </defs>
    <g data-name="Gruppe 2267">
        <g data-name="Gruppe 2266" transform="rotate(13 85.874 1025.776)" style="clip-path:url(#0ypr7tuxza)">
            <path data-name="Pfad 1864" d="M215.614 981.223c-53.551-2.383-106.6 21.813-144 60.214s-59.793 89.925-68.024 142.892c-5.191 33.4-4.8 68.68 8.716 99.662 5.938 13.613 14.267 26.073 23.516 37.694a270.507 270.507 0 0 0 61.964 56.826c29.341 19.468 62.383 33.073 96.557 41.562 85.066 21.132 178.79 9.42 253.5-36.421s128.381-126.33 137.067-213.551c4.66-46.8-3.891-96.146-30.959-134.612-29.3-41.639-76.9-66.58-124.885-83.6-73.729-26.155-155.131-37.047-230.434-15.846-29.043 8.177-59.663 24.123-68.788 52.883" transform="translate(-15.483 -541.348)" style="stroke-miterlimit:10;fill:none;stroke:#fff;stroke-width:2px;stroke-dasharray:6 4"/>
            <path data-name="Pfad 1865" d="M912.192 453.593a2667.947 2667.947 0 0 0 185.793-376.135" transform="translate(-543.611 -46.159)" style="stroke-miterlimit:10;fill:none;stroke:#fff;stroke-width:2px;stroke-dasharray:6 4"/>
            <path data-name="Pfad 1866" d="M779.11 574.733q137.339 27.75 276.419 45.691" transform="translate(-464.302 -342.505)" style="stroke-miterlimit:10;fill:none;stroke:#fff;stroke-width:2px;stroke-dasharray:6 4"/>
            <path data-name="Pfad 1867" d="M1030.445 100.861A762.85 762.85 0 0 0 1187.112.959a1900.792 1900.792 0 0 0 38.966 207.132" transform="translate(-614.083 -.571)" style="stroke-miterlimit:10;fill:none;stroke:#fff;stroke-width:2px;stroke-dasharray:6 4"/>
        </g>
    </g>
</svg>
