<svg xmlns="http://www.w3.org/2000/svg" width="1311.608" height="800.766" viewBox="0 0 1311.608 800.766">
    <defs>
        <style>
            .cls-1{fill:none;stroke:#fff;stroke-miterlimit:10;stroke-width:2px;stroke-dasharray:7 5 0 0 0 0}
        </style>
    </defs>
    <g id="Gruppe_2037" data-name="Gruppe 2037" transform="translate(-83.679 -79.622)">
        <path id="Pfad_1229" data-name="Pfad 1229" class="cls-1" d="M210.243 1568.431a1254.573 1254.573 0 0 1 142.821 168.009" transform="translate(785.611 -902.122)"/>
        <path id="Pfad_1229-2" data-name="Pfad 1229" class="cls-1" d="M210.243 1568.431c76.392 24.942 145.659 51.9 207.009 80.57" transform="translate(977.611 -954.804)"/>
        <path id="Pfad_1228" data-name="Pfad 1228" class="cls-1" d="M202.673 1626.729A1804.088 1804.088 0 0 0 354.921 1481.3c5.311-5.714 10.7-11.594 16.036-17.5" transform="translate(844.043 -1383.478)"/>
        <path id="Pfad_1228-2" data-name="Pfad 1228" class="cls-1" d="M202.673 1593.754c7.435-41.259 14.312-84.661 20.589-129.951" transform="translate(602.043 -1353.455)"/>
        <path id="Pfad_1232" data-name="Pfad 1232" class="cls-1" d="M267.461 1562.793q-56.746-85.357-139.321-168.83" transform="translate(336.859 -1313.639)"/>
        <path id="Pfad_1231" data-name="Pfad 1231" class="cls-1" d="m266.255 1571.154-199.939 82.428" transform="translate(17.744 -920.214)"/>
        <path id="Pfad_1230" data-name="Pfad 1230" class="cls-1" d="M306.592 1584.008a2241.949 2241.949 0 0 1-139.084 191.617l-6.479-6.023" transform="translate(198.971 -896.699)"/>
    </g>
</svg>
