<svg data-name="Gruppe 2024" xmlns="http://www.w3.org/2000/svg" width="321.09" height="430.35" viewBox="0 0 321.09 430.35">
    <defs>
        <clipPath id="6wqkv6vg7a">
            <path data-name="Rechteck 473" style="fill:none;stroke:#fff;stroke-width:2px;stroke-dasharray:6 4" d="M0 0h321.09v430.35H0z"/>
        </clipPath>
    </defs>
    <g data-name="Gruppe 2023" style="clip-path:url(#6wqkv6vg7a)">
        <path data-name="Pfad 1700" d="M113.925 383.641a202.036 202.036 0 0 1-20.382-20.982C51.027 312.737 19.469 238.72 5.66 156.537 1.985 134.668-.48 111.92.878 89.358S7.734 44.3 18.014 28.956a61.853 61.853 0 0 1 28.937-23.2c40.381-16.416 85.861 6.436 113.47 57.014" transform="translate(-.35 -.256)" style="stroke-miterlimit:10;fill:none;stroke:#fff;stroke-width:2px;stroke-dasharray:6 4"/>
        <path data-name="Pfad 1701" d="M436.115 75.958c15.17-17.287 31.895-30.973 49.477-40.489 12.242-6.626 25.011-11.258 37.916-11.258 20.315 0 40.552 11.9 56.154 33.02a89.09 89.09 0 0 1 14.52 29.018c7.03 25.068 2.639 54.563-3.8 80.049a457.67 457.67 0 0 1-80.816 167.2c-34.451 44.722-73.714 78.653-113.662 109.021" transform="translate(-276.832 -12.389)" style="stroke-miterlimit:10;fill:none;stroke:#fff;stroke-width:2px;stroke-dasharray:6 4"/>
    </g>
</svg>
