<svg xmlns="http://www.w3.org/2000/svg" width="381.328" height="204.29">
    <path d="M184.674 196.6q.845 2.071 1.823 4.277l1.512 3.413-3.645-2.66-1.233-.9.7-.956-.3-.714q-.182-.43-.358-.855l-.348-.845zm-.359 2.515-.482.655.065.152q.374.872.771 1.765l.914-.405.589-.808zm-11.13-8.44q.738.582 1.5 1.179l1.562 1.209 1.623 1.242.835.634-1.207 1.595q-.848-.642-1.664-1.266l-1.6-1.232q-1.178-.912-2.291-1.79zm7.057-7.209a88.378 88.378 0 0 0 1.984 6.629l-1.893.646a88.21 88.21 0 0 1-2.03-6.782zm-17.713-1.755c1.63 1.484 3.369 3 5.245 4.572l-1.284 1.533a166.044 166.044 0 0 1-5.307-4.626zm-9.723-9.9c1.5 1.726 3.054 3.412 4.71 5.093l-1.425 1.4a112.553 112.553 0 0 1-4.8-5.187zm25.416-1.978a66.171 66.171 0 0 0 .652 6.866l-1.978.294a68.166 68.166 0 0 1-.671-7.072zm-33.843-9.055a133.157 133.157 0 0 0 4.055 5.642l-1.592 1.211a136.38 136.38 0 0 1-4.116-5.726zm32.136-4.953 2 .11-.1 1.823-.127 2.62-.04.978-.052 1.546-2-.057.019-.619.046-1.265.094-2.1zM136.9 149l.863 1.425.831 1.36.8 1.3 1.162 1.856-1.691 1.068-.385-.611-1.18-1.898-1.244-2.029-.868-1.432zm40.217-7.13 2 .04c-.013.656-.029 1.31-.047 1.966l-.064 1.984-.08 2.03-.046 1.041-2-.092c.048-1.045.09-2.056.126-3.05l.063-1.969c.018-.652.034-1.3.047-1.951zm-48.317-5.117.886.04 3.638 6.2-1.723 1.016-3.367-5.735.51-.3zm.3 1.014-.353.206-.035.778.343.015zm116.2-1.225q3.521.039 6.982.016l.013 2q-3.479.023-7.017-.016zm20.931-.345.092 2q-3.477.16-7.014.251l-.051-2q3.517-.09 6.973-.249zm-151.407-.115 2.971.154 4.015.2-.095 2-2.461-.118-4.537-.231zm116.52.074q3.52.153 6.979.249l-.056 2q-3.475-.1-7.01-.25zm-13.956-.805q3.518.251 6.972.451l-.116 2q-3.468-.2-7-.453zm62.782-.1.181 1.992q-3.468.315-7 .554l-.135-2q3.508-.238 6.953-.551zm-179.3-.054q1.122.086 2.268.168l2.321.161 2.381.155-.126 2q-1.211-.076-2.39-.155l-2.33-.161q-1.151-.082-2.277-.168zm102.572-1.012q3.515.335 6.961.625l-.167 1.993q-3.458-.29-6.984-.627zm-116.47-.3c2.256.26 4.565.5 6.941.723l-.187 1.991a334.427 334.427 0 0 1-6.983-.727zm207.05-.24.281 1.98q-3.451.49-6.966.9l-.23-1.987q3.49-.4 6.914-.89zm-104.476-.931q3.513.407 6.948.771l-.211 1.989q-3.446-.365-6.967-.773zm-116.384-.787q3.37.578 6.886 1.074l-.279 1.98q-3.549-.5-6.945-1.083zm103.911-.753 1.156.15 2.922.374 1.449.182-.247 1.985-1.452-.182-1.777-.228v.136l.019 1.29-2 .023q-.015-1.274-.045-2.565zm130.7.129.392 1.961q-3.422.685-6.911 1.278l-.335-1.972q3.461-.589 6.854-1.268zm-128.676.989-1 .023-.129.992 1.152.147-.024-1.162zm-119.576-3.2 1.458.355q2.627.627 5.338 1.189l-.406 1.958q-3.427-.71-6.72-1.523l-.152-.038zm261.829-.943.516 1.932-1.1.289q-2.841.74-5.728 1.41l-.452-1.948q2.862-.664 5.676-1.4zm-275.13-3.055q3.233 1.152 6.6 2.162l-.574 1.916q-3.416-1.023-6.7-2.194zm288.419-1.084.678 1.881q-3.261 1.176-6.681 2.237l-.593-1.91q3.374-1.048 6.6-2.209zm-301.215-4.327q3.041 1.517 6.3 2.892l-.777 1.843q-3.317-1.4-6.42-2.945zm314.036-1.07.882 1.8q-3.1 1.52-6.429 2.918l-.774-1.844q3.276-1.374 6.321-2.868zm-325.914-6.027q2.73 1.964 5.787 3.781l-1.022 1.719q-3.128-1.86-5.933-3.877zm337.846-.954 1.15 1.636q-2.815 1.978-5.972 3.814l-1.006-1.729q3.082-1.793 5.828-3.722zM11.338 103.4a53.229 53.229 0 0 0 4.829 4.888l-1.332 1.492a55.226 55.226 0 0 1-5.01-5.072zm358.368-.865 1.5 1.318a53.961 53.961 0 0 1-5.058 5.03l-1.317-1.505a51.965 51.965 0 0 0 4.871-4.843zM4.236 91.774a35.9 35.9 0 0 0 3.026 6.1l-1.7 1.052a37.9 37.9 0 0 1-3.194-6.44zm372.619-.844 1.865.723a38.759 38.759 0 0 1-3.212 6.427l-1.7-1.055a36.763 36.763 0 0 0 3.047-6.1zM159.306 60.344a13.343 13.343 0 0 1 7.062 1.887 13.093 13.093 0 0 1 4.9 5.4 18.315 18.315 0 0 1 1.79 8.4 18.315 18.315 0 0 1-1.79 8.4 13.093 13.093 0 0 1-4.9 5.4 14.188 14.188 0 0 1-14.139 0 13.083 13.083 0 0 1-4.9-5.407 18.326 18.326 0 0 1-1.79-8.4 18.315 18.315 0 0 1 1.79-8.4 13.093 13.093 0 0 1 4.9-5.4 13.371 13.371 0 0 1 7.077-1.88zm93.695 0a14.194 14.194 0 0 1 4.616.731 12.544 12.544 0 0 1 3.818 2.073 11.729 11.729 0 0 1 4.273 7.263h-4.728l-.13-.382a9.408 9.408 0 0 0-1.026-2.056 7.741 7.741 0 0 0-1.723-1.849 7.307 7.307 0 0 0-2.275-1.171 9.248 9.248 0 0 0-2.8-.4 8.446 8.446 0 0 0-4.653 1.327 9.01 9.01 0 0 0-3.274 3.885 14.661 14.661 0 0 0-1.2 6.257 14.673 14.673 0 0 0 1.211 6.278 8.976 8.976 0 0 0 3.311 3.893 8.779 8.779 0 0 0 4.788 1.327 8.931 8.931 0 0 0 4.348-1.014 7.114 7.114 0 0 0 2.879-2.871l.151-.29a8.907 8.907 0 0 0 .864-3.7v-.16h-7.541v-3.8h12.006v3.475l-.006.449a12.9 12.9 0 0 1-1.628 6.225 11.219 11.219 0 0 1-4.5 4.363 14.808 14.808 0 0 1-13.841-.373 12.916 12.916 0 0 1-4.87-5.422 18.564 18.564 0 0 1-1.745-8.345 18.52 18.52 0 0 1 1.767-8.4 13.02 13.02 0 0 1 4.862-5.414A13.226 13.226 0 0 1 253 60.344zm-204.553.418v13.274h15.227V60.762H68.3v30.545h-4.625V77.988H48.447v13.319h-4.608V60.762zm45.708 0v3.967H79.613v9.307h13.543v3.952H79.613v9.352h14.721v3.967H75V60.762zm10.777 0V87.34h13.841v3.967h-18.45V60.762zm23.7 0V87.34h13.837v3.967h-18.45V60.762zm75.284 0L214.9 91.307h-4.892l-2.793-8.083h-11.93l-2.8 8.083H187.6l10.992-30.545zm80.9 0L295.8 91.307h-4.892l-2.793-8.083h-11.932l-2.8 8.083h-4.892l10.992-30.545zm20 0v30.545h-4.609V60.762zm10.98 0 15.541 22.432h.283V60.762h4.564v30.545h-4.236l-15.526-22.4h-.283v22.4h-4.609V60.762zM159.306 64.55a8.587 8.587 0 0 0-4.713 1.32 8.96 8.96 0 0 0-3.274 3.878 14.741 14.741 0 0 0-1.2 6.287 14.741 14.741 0 0 0 1.2 6.287 8.96 8.96 0 0 0 3.274 3.878 9.061 9.061 0 0 0 9.419 0 8.941 8.941 0 0 0 3.281-3.878 14.741 14.741 0 0 0 1.2-6.287 14.741 14.741 0 0 0-1.2-6.287 8.941 8.941 0 0 0-3.281-3.878 8.6 8.6 0 0 0-4.706-1.32zM.02 78.351l2 .065a34.637 34.637 0 0 0 .439 6.791l-1.973.326a36.637 36.637 0 0 1-.466-7.182zm379.308-.765h2a39.781 39.781 0 0 1-.652 7.151l-1.967-.362a37.784 37.784 0 0 0 .619-6.792zM282.275 66.31h-.239l-4.512 13.036h9.254zm-80.9 0h-.239l-4.512 13.036h9.254zm35.575 7.8v3.863h-21V74.11zM3 64.375l1.861.733a42.493 42.493 0 0 0-2 6.541l-1.946-.424A44.491 44.491 0 0 1 3 64.375zm376-.875.163.5a46.549 46.549 0 0 1 1.564 6.44l-1.973.331a44.554 44.554 0 0 0-1.5-6.163l-.157-.483zM10.047 51.919l1.6 1.2a54.98 54.98 0 0 0-3.779 5.744l-1.738-.99a56.979 56.979 0 0 1 3.917-5.953zm362.7-1.251a57.858 57.858 0 0 1 3.536 6.183l-1.8.882a55.861 55.861 0 0 0-3.414-5.969zM19.706 41.624l1.309 1.512a67.051 67.051 0 0 0-4.98 4.772l-1.457-1.37a69.05 69.05 0 0 1 5.128-4.914zm344.049-1.939q2.556 2.57 4.765 5.255l-1.545 1.27q-2.147-2.61-4.639-5.115zM31.29 33.383l1.01 1.724c-.729.428-1.447.863-2.167 1.313q-1.876 1.173-3.659 2.437l-1.157-1.631q1.829-1.3 3.756-2.5c.736-.46 1.469-.9 2.214-1.342zm321.727-2.89q2.9 2.139 5.545 4.39l-1.3 1.522q-2.583-2.2-5.432-4.3zm-309.079-3.4.773 1.845Q41.463 30.3 38.4 31.815l-.889-1.792q3.117-1.546 6.425-2.931zm297.2-4.255q3.122 1.767 6.044 3.644l-1.082 1.681q-2.872-1.846-5.947-3.586zm-283.892-.456.566 1.918q-3.378 1-6.612 2.138l-.666-1.886q3.282-1.158 6.712-2.17zm13.711-3.35.387 1.962q-3.45.681-6.794 1.5l-.473-1.943q3.385-.825 6.88-1.514zm257.568-2.521q3.262 1.448 6.374 3.005L334 21.3q-3.068-1.536-6.29-2.965zm-243.681.361.23 1.987q-3.486.4-6.9.933l-.307-1.976q3.449-.535 6.974-.943zM98.89 15.76l.087 2q-3.5.153-6.953.425l-.157-1.994q3.488-.275 7.022-.429zm21.093.136q.8.044 1.59.095l-.2-.013.152.769-.078 1.24-1.576-.094zm8.193-1.589.387 1.962-6.863 1.359-.175-.881.048-.756-.2-.013-.062-.312zm-22.234 1.265q3.509-.034 7.033.047l-.046 2q-3.489-.081-6.967-.047zm209.5-4.216q3.357 1.168 6.6 2.446l-.733 1.861q-3.208-1.263-6.529-2.418zm-173.519.274.376 1.964-2.226.427-4.642.9-.383-1.963zM155.7 9.068l.354 1.968-4.084.743-2.792.517-.366-1.966 1.406-.261 2.767-.509zm146.27-1.839q3.42.912 6.767 1.936l-.585 1.912q-3.31-1.013-6.7-1.916zm-132.45-.542.323 1.974q-3.39.555-6.9 1.16l-.34-1.971q3.519-.607 6.913-1.163zm13.852-2.127.282 1.98q-3.412.486-6.914 1.025l-.3-1.977q3.516-.541 6.936-1.028zm104.887-.48q3.462.671 6.882 1.455l-.447 1.949q-3.385-.777-6.815-1.441zm-90.977-1.325.231 1.987q-3.43.4-6.935.855l-.258-1.983q3.52-.458 6.962-.858zm77.079-.881q3.489.434 6.968.986l-.314 1.975q-3.443-.547-6.9-.977zm-63.111-.531.17 1.993q-3.444.293-6.952.649l-.2-1.99q3.525-.357 6.984-.652zm49.1-.763q3.525.227 7.005.543l-.181 1.992q-3.454-.314-6.953-.539zM225.248.4l.1 2q-3.457.169-6.971.406l-.135-2Q221.773.57 225.248.4zm21.071-.373q3.535.054 7.021.191l-.078 2q-3.463-.136-6.974-.189zM239.3 0l.015 2q-3.463.025-6.977.127l-.057-2Q235.812.026 239.3 0z" style="fill:#2b2e34"/>
</svg>
