<svg xmlns="http://www.w3.org/2000/svg" width="866.599" height="868.141" viewBox="0 0 866.599 868.141">
    <defs>
        <clipPath id="kuveifnhxa">
            <path data-name="Rechteck 472" style="fill:none;stroke:#fff;stroke-width:2px;stroke-dasharray:6 4" d="M0 0h678.018v675.437H0z"/>
        </clipPath>
    </defs>
    <g data-name="Gruppe 2022">
        <g data-name="Gruppe 2021" style="clip-path:url(#kuveifnhxa)" transform="matrix(.342 .94 -.94 .342 634.703 0)">
            <path data-name="Pfad 1694" d="M263.264 26.976C297.3 4.54 339.432.142 379.742.521c67.366.634 136.5 13.758 193.082 51.728s98.532 104.05 96.41 173.98" transform="translate(-33.36 -.046)" style="stroke-miterlimit:10;fill:none;stroke:#fff;stroke-width:2px;stroke-dasharray:6 4"/>
            <path data-name="Pfad 1695" d="M683.515 226.1a308.728 308.728 0 0 1 34.862 55.245 128.925 128.925 0 0 0 45.836-66.761" transform="translate(-86.612 -19.967)" style="stroke-miterlimit:10;fill:none;stroke:#fff;stroke-width:2px;stroke-dasharray:6 4"/>
            <path data-name="Pfad 1696" d="M644.186 341.752a722.025 722.025 0 0 1-35.819 166.227c-7.593 22-16.317 43.586-28.073 62.589-13.384 21.632-30.442 39.49-48.627 55.015-62.54 53.387-139.359 79.994-216.178 81.161-47.258.718-95.175-8.065-138.925-30.906A256.706 256.706 0 0 1 67.933 566.226" transform="translate(-8.608 -31.8)" style="stroke-miterlimit:10;fill:none;stroke:#fff;stroke-width:2px;stroke-dasharray:6 4"/>
            <path data-name="Pfad 1697" d="m53.233 610.174-4.112-41.595a5.079 5.079 0 0 1 .254-2.809c1.065-2.085 4.049-1.517 6.164-.652l47.519 19.455" transform="translate(-6.215 -52.512)" style="stroke-miterlimit:10;fill:none;stroke:#fff;stroke-width:2px;stroke-dasharray:6 4"/>
            <path data-name="Pfad 1698" d="M30.675 474.622C9.76 443.592.539 405.1.5 367.226S9.162 291.93 21.541 256.3C48.009 180.12 92.784 109.313 156.09 62.021" transform="translate(-.063 -5.771)" style="stroke-miterlimit:10;fill:none;stroke:#fff;stroke-width:2px;stroke-dasharray:6 4"/>
            <path data-name="Pfad 1699" d="m135.174 55.558 55.026-9.933a246.017 246.017 0 0 1-12.4 63.447" transform="translate(-17.129 -4.245)" style="stroke-miterlimit:10;fill:none;stroke:#fff;stroke-width:2px;stroke-dasharray:6 4"/>
        </g>
    </g>
</svg>
