<?xml version="1.0" encoding="UTF-8"?>
<svg width="137px" height="60px" viewBox="0 0 137 60" version="1.1" xmlns="http://www.w3.org/2000/svg" xmlns:xlink="http://www.w3.org/1999/xlink">
    <title>Pfad_1104</title>
    <g id="Page-1" stroke="none" stroke-width="1" fill="none" fill-rule="evenodd" stroke-dasharray="7">
        <g id="Gruppe-1609" transform="translate(-192.967357, 1.014508)" stroke="#181B1F" stroke-width="2">
            <path d="M235.332357,3.30849179 C223.241357,2.43749179 211.065357,6.68449179 203.881357,13.0844918 C197.367576,18.6818226 193.986034,27.0994881 194.817357,35.6474918 C195.291357,40.8574918 197.441357,46.3754918 203.477357,49.8034918 C207.799357,52.2594918 213.543357,53.3224918 219.130357,54.1574918 C233.156192,56.2476134 247.310232,57.3612918 261.490357,57.4904918 C278.190357,57.6474918 295.673357,56.2754918 309.490357,50.1634918 C323.307357,44.0514918 332.143357,32.1124918 326.240357,21.9294918 C321.459357,13.6804918 308.709357,8.59649179 296.066357,5.46249179 C274.258535,0.181976934 251.70142,-1.28499851 229.393357,1.12649179" id="Pfad_1104"></path>
        </g>
    </g>
</svg>