<svg xmlns="http://www.w3.org/2000/svg" width="796.395" height="172.082">
    <path d="M581.324 5.513q-3.487-.235-6.974-.462l-.13 2q3.485.227 6.969.462zM567.361 4.6q-3.492-.219-6.985-.429l-.12 2q3.49.21 6.98.428zm-13.98-.841q-3.491-.2-6.982-.394l-.11 2q3.489.193 6.977.394zM539.4 2.991q-3.5-.185-6.991-.361l-.1 2q3.493.176 6.986.36zm-13.986-.7q-3.492-.167-6.985-.326l-.091 2q3.49.159 6.98.326zM511.4 1.649q-3.493-.15-6.986-.292l-.081 2q3.491.142 6.981.292zm-13.99-.567q-3.5-.133-6.994-.258l-.071 2q3.495.125 6.989.258zm-13.992-.5q-3.5-.116-7.005-.224l-.062 2q3.5.108 7 .224zm-13.997-.43q-3.5-.1-7-.19l-.052 2q3.5.091 6.991.19zm-13.994-.363q-3.5-.082-7.008-.156l-.042 2q3.5.074 7 .156zM441.4-.506q-3.5-.065-6.995-.121l-.032 2q3.495.056 6.99.121zm-14-.226q-3.5-.048-7-.087l-.022 2q3.5.039 6.991.087zm-14-.157q-3.5-.031-7.006-.053l-.013 2q3.5.022 7 .053zm-14.014-.089q-3.5-.014-7-.019v2q3.5.005 7 .019zm-14-.021q-3.5 0-7 .015l.007 2Q381.895 1 385.391 1zm-14 .048q-3.5.02-7 .049l.017 2q3.5-.029 7-.049zm-14 .116q-3.5.038-7 .084l.026 2q3.5-.046 6.995-.084zm-14.023.185q-3.5.055-7 .118l.036 2q3.5-.063 7-.118zM329.38-.4q-3.5.072-7 .152l.046 2q3.5-.08 6.993-.152zm-13.993.321q-3.5.089-6.995.186l.056 2q3.495-.1 6.99-.186zm-14.019.39q-3.5.106-7 .221l.065 2q3.5-.114 7-.22zm-13.99.46q-3.5.123-7 .255l.075 2q3.5-.132 7-.254zm-13.987.529q-3.5.14-7 .289l.085 2q3.495-.148 6.99-.288zm-14.013.6q-3.5.157-7 .323l.095 2q3.5-.166 6.994-.323zm-13.978.654q-3.5.174-7 .357l.1 2q3.5-.183 6.991-.357zm-13.98.731q-3.494.191-6.988.391l.114 2q3.492-.2 6.983-.391zm-13.977.8q-3.5.208-6.99.425l.124 2q3.493-.217 6.986-.425zm-14 .869q-3.493.225-6.986.459l.134 2q3.49-.234 6.981-.459zm-13.97.936q-3.494.243-6.987.494l.143 1.995q3.491-.251 6.982-.493zm-13.966 1q-3.491.26-6.981.528l.153 1.994q3.488-.268 6.976-.527zm-13.968 1.075q-3.49.277-6.98.562l.163 1.993q3.487-.285 6.975-.561zm-13.958 1.14q-3.489.294-6.978.6l.173 1.993 6.973-.6zm-13.953 1.209q-3.488.311-6.974.63l.182 1.992q3.484-.319 6.97-.629zm-13.92 1.274-4.993.476-2 .2.2 1.99 4.833-.468 2.145-.2zm-13.959 1.4-1.2.134-2.351.27-1.152.137-2.262.278.25 1.984 2.251-.277 2.309-.271q1.17-.135 2.376-.267zM91.82 14.754a277.16 277.16 0 0 0-6.937 1.106l.341 1.971c2.234-.387 4.524-.751 6.886-1.1zm-13.846 2.409q-3.517.721-6.867 1.536l.473 1.943q3.317-.807 6.8-1.52zm-13.693 3.348q-3.443.995-6.724 2.117l.643 1.892q3.236-1.107 6.632-2.087zm-13.334 4.578q-3.314 1.34-6.464 2.841l.861 1.805q3.095-1.476 6.353-2.792zm-12.754 6.1q-3.106 1.743-6.041 3.676l1.1 1.67q2.875-1.895 5.919-3.6zm-11.787 7.775-.758.592q-2.4 1.892-4.658 3.985l1.359 1.467q2.2-2.037 4.537-3.882l.742-.579zM16 48.6q-2.381 2.651-4.489 5.492l1.607 1.191q2.046-2.759 4.37-5.346zM7.562 60.012A66.372 66.372 0 0 0 4.244 66.3l1.817.836a64.374 64.374 0 0 1 3.218-6.1zm-5.913 12.9a55.366 55.366 0 0 0-1.77 6.907l1.966.369a53.367 53.367 0 0 1 1.705-6.656zm-2.6 14.06a48.4 48.4 0 0 0 .109 6.064l.1 1.053 1.989-.206-.021-.183a46.3 46.3 0 0 1-.18-6.64zm1.472 14.153a50.745 50.745 0 0 0 2.267 6.775l1.848-.765a48.746 48.746 0 0 1-2.178-6.505zm5.435 13.185a59.619 59.619 0 0 0 3.925 5.94l1.6-1.2a57.618 57.618 0 0 1-3.793-5.74zm8.492 11.378a68.829 68.829 0 0 0 5.12 4.923l1.311-1.511a66.828 66.828 0 0 1-4.971-4.78zM25.2 135.02a71.286 71.286 0 0 0 5.992 3.8l.988-1.739a69.116 69.116 0 0 1-5.826-3.7zm12.317 7.023q3.173 1.452 6.541 2.7l.694-1.876q-3.3-1.222-6.4-2.639zm13.27 4.934q3.3.984 6.814 1.823l.466-1.945q-3.465-.83-6.709-1.795zm13.7 3.307c2.223.43 4.521.832 6.928 1.214l.313-1.975a209.451 209.451 0 0 1-6.861-1.2zm13.876 2.225 2.195.288 1.522.193 2.4.3.839.1.237-1.986-2.45-.3-1.545-.193-1.489-.191-1.446-.191zm13.919 1.684q3.475.395 6.97.778l.218-1.988q-3.491-.382-6.961-.777zm13.928 1.525q3.475.366 6.972.721l.2-1.99q-3.493-.354-6.964-.72zm13.936 1.414q3.471.339 6.964.666l.187-1.991q-3.489-.327-6.957-.665zm13.944 1.307q3.478.313 6.979.615l.172-1.993q-3.5-.3-6.972-.615zm13.971 1.207q3.476.288 6.975.566l.158-1.994q-3.5-.278-6.968-.565zm13.958 1.109q3.478.265 6.982.52l.145-1.995q-3.5-.255-6.975-.519zm13.964 1.018q3.482.243 6.991.477l.133-2q-3.506-.234-6.985-.476zm13.97.931q3.483.222 6.995.435l.121-2q-3.509-.213-6.989-.435zm14 .851 6.985.4.11-2q-3.505-.194-6.98-.4zm14.085-1.224-.105 2 4.654.241 2.338.118.1-2-4.665-.238zm13.975.7-.1 2 4.658.219 2.34.107.091-2-4.67-.216zm13.979.636-.086 2 7 .3.082-2-4.672-.2zm13.905 2.574 4.656.179 2.342.088.074-2-6.993-.266zm14.065-1.479-.07 2 6.994.24.067-2-4.67-.159zm13.927 2.467 7 .217.06-2-6.993-.217zm14 .423 4.652.131 2.345.064.055-2-6.994-.2zm14 .382 7 .177.049-2-7-.177zm14 .346 7 .161.045-2-7-.161zm14 .315 7 .148.041-2-7-.148zm13.982.289 7 .137.038-2-7-.137zm14 .269 7 .128.036-2-7-.128zm14 .254 7 .123.035-2-7-.123zm14 .243 7 .119.034-2-7-.119zm14 .238 7.014.118.034-2-7.014-.118zm14.012.235 7 .115.032-2-7-.115zm14 .226 7 .106.03-2-7-.106zm14 .206 7 .093.025-2-7-.093zm14 .176 7 .074.02-2-7-.074zm14 .137 4.689.035 2.316.015.012-2-7-.05zm14.012-1.913-.008 2 7 .022v-2l-4.648-.013zm13.994.027v2l4.683-.006 2.321-.006-.006-2-4.652.01zm13.992-.043.012 2 4.678-.032 2.321-.019-.018-2-4.651.036zm13.989-.123.024 2 4.678-.061 2.323-.034-.03-2-4.652.066zm14-.214.037 2 4.678-.093 2.325-.051-.045-2q-3.483.08-7.002.142zm14.048 1.685q3.521-.093 7-.2l-.061-2q-3.478.105-6.994.2zm13.994-.425q3.518-.122 7-.257l-.078-2-2.322.089-4.669.168zm14-.546q3.516-.153 7-.321l-.1-2q-3.477.168-6.988.321zm13.987-.676q3.513-.187 6.995-.39l-.117-2q-3.477.2-6.984.39zm14-.818 2.007-.129 2-.132 2.979-.2-.138-2-2.974.2q-2 .134-4 .261zm13.972-.971q3.551-.269 6.986-.555l-.166-1.993-1.722.142-3.485.277-1.764.135zm13.972-1.167q3.534-.324 6.974-.673l-.2-1.99q-3.432.348-6.955.671zm13.951-1.415q3.522-.393 6.964-.817l-.244-1.985q-3.431.423-6.941.814zm13.926-1.717q3.507-.476 6.941-.988l-.295-1.978q-3.422.51-6.915.984zm13.866-2.07q3.49-.571 6.913-1.185l-.353-1.969q-3.409.612-6.883 1.18zm13.817-2.481q3.468-.68 6.875-1.41l-.419-1.956q-3.39.726-6.841 1.4zm13.726-2.942q3.44-.8 6.821-1.66l-.492-1.939q-3.362.853-6.783 1.651zm13.608-3.453q3.4-.936 6.749-1.933l-.571-1.917q-3.326.991-6.709 1.922zm13.463-4.014q2.2-.709 4.378-1.447l1.542-.529.743-.26-.664-1.887-1.681.583-.583.2q-2.163.733-4.35 1.437zm13.26-4.734a86.516 86.516 0 0 0 6.44-2.946l-.91-1.781a85.24 85.24 0 0 1-6.292 2.878zm12.6-6.531a48.051 48.051 0 0 0 5.652-4.377l-1.343-1.482a46.059 46.059 0 0 1-5.417 4.194zm10.547-9.65a41.818 41.818 0 0 0 3.879-6.03l-1.767-.937a39.82 39.82 0 0 1-3.694 5.743zm6.738-12.586a59.715 59.715 0 0 0 1.949-6.846l-1.952-.437a57.715 57.715 0 0 1-1.883 6.617zm3.165-13.854c.289-2.249.5-4.588.649-7.039l-2-.119a101.02 101.02 0 0 1-.636 6.9zm.885-14.094c.015-1.383.013-2.8 0-4.287l-.026-1.813-.018-.933-2 .042.033 1.832.019 1.765c.008 1.157.006 2.276-.005 3.371zm-.26-14.04-.078-1.98-.06-1.306-.063-1.193-.069-1.118-.078-1.079-.028-.357-1.993.162.055.7.05.71.09 1.484.061 1.212.078 1.818.039 1.019zm-1.312-14.1a37.029 37.029 0 0 0-2.02-6.9l-1.851.757a35.048 35.048 0 0 1 1.909 6.533zm-5.577-13.2a34.114 34.114 0 0 0-4.923-5.269L782 41.143a32.12 32.12 0 0 1 4.637 4.959zm-10.67-9.56c-1.847-1.2-3.843-2.352-6.121-3.567l-.941 1.765c2.232 1.19 4.18 2.319 5.976 3.481zM765.171 28.6q-3.158-1.532-6.381-2.964l-.812 1.828q3.193 1.419 6.321 2.936zm-12.848-5.712q-3.244-1.317-6.555-2.54l-.693 1.876q3.282 1.213 6.5 2.518zm-13.193-4.879q-3.314-1.112-6.7-2.137l-.581 1.914q3.354 1.017 6.64 2.119zm-13.468-4.088q-3.366-.919-6.8-1.76l-.476 1.943q3.408.835 6.748 1.747zm-13.647-3.346q-3.406-.744-6.881-1.418l-.381 1.963q3.452.669 6.835 1.408zM698.243 7.9q-3.431-.586-6.932-1.11l-.3 1.978q3.481.521 6.891 1.1zm-13.9-2.083q-3.447-.447-6.969-.84l-.222 1.988q3.5.391 6.933.836zm-13.958-1.56q-3.453-.327-6.987-.607l-.158 1.994q3.52.279 6.956.6zM656.4 3.147q-3.457-.225-7-.411l-.1 2q3.535.185 6.977.41zm-13.991-.737q-3.452-.141-7.007-.251l-.061 2q3.548.109 6.987.25zm-14.018-.434q-1.719-.037-3.469-.068l-3.537-.056-.028 2 1.773.026 3.494.062 1.723.036zm-14.005-.2-2.756-.017-2.816-.011h-1.432v2l4.242.015 2.752.017zm-14.007 1.97v-2l-3.916.013-3.087.015.011 2 6.036-.025zM586.36 1.821l-2.891.021.015 2 2.89-.021z" style="fill:#2b2e34" transform="translate(1 .999)"/>
</svg>
