<?xml version="1.0" encoding="UTF-8"?>
<svg width="283px" height="60px" viewBox="0 0 283 60" version="1.1" xmlns="http://www.w3.org/2000/svg" xmlns:xlink="http://www.w3.org/1999/xlink">
    <title>Pfad_982</title>
    <g id="Page-1" stroke="none" stroke-width="1" fill="none" fill-rule="evenodd" stroke-dasharray="7">
        <g id="Gruppe-1609" transform="translate(1.032643, -74.985492)" stroke="#181B1F" stroke-width="2">
            <path d="M85.3293573,79.6584918 C59.9363573,78.7874918 34.3653573,83.0344918 19.2783573,89.4344918 C4.19135732,95.8344918 -1.26864268,104.078492 0.242357323,111.997492 C1.24235732,117.207492 5.75235732,122.725492 18.4293573,126.153492 C27.5063573,128.609492 39.5693573,129.672492 51.3033573,130.507492 C80.4673573,132.587492 110.344357,133.707492 140.264357,133.840492 C175.327357,133.997492 212.053357,132.625492 241.074357,126.513492 C270.095357,120.401492 288.649357,108.462492 276.251357,98.2794918 C266.209357,90.0304918 239.435357,84.9464918 212.881357,81.8124918 C166.406919,76.511154 119.573764,75.0608818 72.8603573,77.4764918" id="Pfad_982"></path>
        </g>
    </g>
</svg>