<svg xmlns="http://www.w3.org/2000/svg" width="125.884" height="72.49" viewBox="0 0 125.884 72.49">
  <g id="Gruppe_1610" data-name="Gruppe 1610" transform="translate(-1487.588 -1191.751)">
    <path id="Pfad_1104" data-name="Pfad 1104" d="M1471.046,1179.071a35.129,35.129,0,0,0-29.19,11.98c-6.667,7.845-9.08,17.944-8.413,27.647.44,6.385,2.435,13.146,8.037,17.348,4.011,3.009,9.342,4.312,14.528,5.336a216.9,216.9,0,0,0,39.315,4.084c15.5.193,31.726-1.489,44.551-8.978s21.025-22.12,15.546-34.6c-4.438-10.108-16.27-16.338-28-20.178a138.114,138.114,0,0,0-61.88-5.313" transform="translate(55.265 17.762)" fill="none" stroke="#181b1f" stroke-miterlimit="10" stroke-width="2" stroke-dasharray="7 5 0 0 0 0"/>
  </g>
</svg>
