<svg xmlns="http://www.w3.org/2000/svg" width="796.362" height="172.097" viewBox="0 0 796.362 172.097">
  <g id="Gruppe_1611" data-name="Gruppe 1611" transform="translate(-135.641 -2198.596)">
    <path id="Pfad_1045" data-name="Pfad 1045" d="M662.641,2188.363a2867.218,2867.218,0,0,0-463.614,6.278c-31.994,3.032-65.693,7.3-91.378,27.554-15.941,12.574-28.107,32.636-26.034,53.458,1.971,19.785,16.449,36.279,33.379,45.209s36.154,11.569,54.986,13.754c108.236,12.554,217.309,14.4,326.19,16.242,71.031,1.2,142.152,2.4,213.048-2.341,42.05-2.81,84.318-7.781,124.417-21.365,11.493-3.894,23.282-8.853,31.082-18.533,11.573-14.362,11.494-35.094,10.816-53.892-.3-8.243-.688-16.848-4.57-24.019-4.309-7.961-12.247-12.91-20.067-16.961-56.772-29.4-122.738-29.532-186.038-29.052" transform="translate(55.265 17.762)" fill="none" stroke="#181b1f" stroke-miterlimit="10" stroke-width="2" stroke-dasharray="7 5 0 0 0 0"/>
  </g>
</svg>
