<svg xmlns="http://www.w3.org/2000/svg" width="408.244" height="413.343" viewBox="0 0 408.244 413.343">
    <g data-name="Gruppe 2249">
        <path data-name="Pfad 1612" d="M97.378 0c35.3 1.239 54.3 1.947 89.6.762-4 13.715 5.1 28.562 17.481 35.688s27.215 8.273 41.49 8.844a403.7 403.7 0 0 1 2.9 44.3 5.63 5.63 0 0 1-.811 3.645c-.9 1.118-2.461 1.38-3.88 1.581-19.932 2.82-40.936 10.179-51.9 27.065-8.1 12.475-9.373 28.329-7.234 43.047.557 3.837 1.381 7.769 3.606 10.944 2.782 3.968 7.374 6.23 11.9 7.967a92.713 92.713 0 0 0 38.1 6A489.478 489.478 0 0 1 253.932 275c-26.067-10.945-55.728-14.274-82.972-6.721s-51.654 26.545-63.351 52.282c-1.259-12.083-4.532-24.191-11.36-34.24-9.913-14.59-26.514-23.56-43.638-27.79S17.64 254.308 0 254.34a340.834 340.834 0 0 0 14.505-84.73c18.211-.127 38.309-2.344 50.684-15.705 11.75-12.686 12.749-33.454 3.629-48.146S41.841 82.824 24.569 83.653l2.757-50.126c13.218 1.054 26.889.2 39.046-5.1S89 12.874 92.176 0" transform="rotate(42 106.868 284.802)" style="fill:none;stroke:#fff;stroke-miterlimit:4.002;stroke-width:2px;stroke-dasharray:7 4"/>
    </g>
</svg>
