<svg xmlns="http://www.w3.org/2000/svg" width="1123.612" height="873.604" viewBox="0 0 1123.612 873.604">
    <defs>
        <clipPath id="w7yddu5ena">
            <path data-name="Rechteck 471" style="fill:none;stroke:#fff;stroke-width:2px;stroke-dasharray:6 4" d="M0 0h1123.612v873.604H0z"/>
        </clipPath>
    </defs>
    <g data-name="Gruppe 2092">
        <g data-name="Gruppe 2085">
            <g data-name="Gruppe 2020">
                <g data-name="Gruppe 2019" style="clip-path:url(#w7yddu5ena)">
                    <path data-name="Pfad 1693" d="M327.254 84.235c7.343 20.988 28.22 35.127 50.01 39.557s44.423.558 65.881-5.271c73.789-20.043 140.161-63.14 193.92-117.513l38.927 175.9c2.8 12.668 5.7 25.569 12.229 36.779 8.34 14.312 21.9 24.687 35.11 34.679l214.034 161.876c4.507 3.409 9.338 7.317 10.42 12.864.9 4.611-1.038 9.252-2.933 13.551l-32.678 74.176a329.6 329.6 0 0 1 204.211 97.081c3.094 3.169 6.265 6.678 6.985 11.048 1.421 8.618-6.892 15.386-14.122 20.288-80.348 54.48-148.038 136.759-158.829 233.231l-40.185-147.507c-2.291-8.409-4.838-17.261-11.151-23.269-7.111-6.767-17.483-8.524-27.2-9.947q-131.161-19.225-263.02-33.2a771.192 771.192 0 0 0-8.351 128.076A722.445 722.445 0 0 1 440.2 763.678c-10.25-2.668-20.935-5.844-28.376-13.381-6.261-6.342-9.643-15.246-16.514-20.923-7.817-6.459-18.617-7.562-28.723-8.393l-223.865-18.419c-9.816-.808-20.137-1.533-29.09 2.571-23.58 10.807-22.49 45.127-38.386 65.624a245.525 245.525 0 0 1-64.459-41.306c-4.736-4.211-9.6-9.175-10.221-15.482-.5-5.042 1.868-9.922 4.656-14.153C25 669.8 68.877 655.63 74.955 620.2c1.579-9.2.185-18.614-.278-27.939a140.813 140.813 0 0 1 27.083-89.751c4.064-5.507 8.728-11.2 9.164-18.03.517-8.106-5.042-15.192-10.29-21.391l-57.474-67.9c-3.019-3.566-6.165-7.408-6.775-12.041-.662-5.031 1.8-9.889 4.186-14.367l78.3-146.923c2.261-4.243 4.957-8.86 9.545-10.3 3.927-1.229 8.114.243 12.11 1.226 37.459 9.209 70.545-24.392 94.533-54.6l59.647-75.117c4.041-5.089 8.837-10.6 15.316-11.1" transform="translate(-.209 -.424)" style="stroke-miterlimit:10;fill:none;stroke:#fff;stroke-width:2px;stroke-dasharray:6 4"/>
                </g>
            </g>
        </g>
    </g>
</svg>
