<svg xmlns="http://www.w3.org/2000/svg" width="988.557" height="820.65" viewBox="0 0 988.557 820.65">
    <g data-name="Gruppe 2062">
        <g data-name="Gruppe 1964">
            <path data-name="Pfad 1612" d="M133.184 0c48.276 1.7 74.265 2.663 122.543 1.042-5.468 18.759 6.974 39.064 23.909 48.81s37.222 11.315 56.745 12.1a552.137 552.137 0 0 1 3.963 60.583c.019 1.738-.022 3.628-1.109 4.985-1.224 1.53-3.366 1.888-5.306 2.163-27.261 3.857-55.989 13.922-70.978 37.018-11.075 17.063-12.819 38.745-9.894 58.875.762 5.248 1.889 10.625 4.932 14.968 3.8 5.428 10.086 8.521 16.273 10.9a126.8 126.8 0 0 0 52.1 8.212A669.464 669.464 0 0 1 347.3 376.115c-35.652-14.97-76.219-19.522-113.481-9.192s-70.647 36.305-86.646 71.507c-1.722-16.526-6.2-33.086-15.537-46.83-13.558-19.955-36.264-32.223-59.684-38.008S24.126 347.818 0 347.862a466.161 466.161 0 0 0 19.839-115.886c24.908-.173 52.4-3.206 69.321-21.48 16.07-17.351 17.437-45.756 4.964-65.849s-36.9-31.369-60.52-30.235l3.771-68.557c18.078 1.441 36.776.269 53.4-6.974S121.727 17.608 126.069 0" transform="rotate(50 168.01 364.985)" style="fill:none;stroke:#fff;stroke-miterlimit:4.002;stroke-width:2px;stroke-dasharray:7 4"/>
        </g>
        <g data-name="Gruppe 1965">
            <path data-name="Pfad 1613" d="M748.975 11.463C715.231-5.982 671.082-.692 642.415 24.232a135.409 135.409 0 0 0-17.945 19.52c-15.035 19.416-27.117 41.7-31.194 65.913s.575 50.536 15.9 69.721c7.03 8.8 16.046 15.865 25.75 21.58 18.942 11.155 40.449 17.266 62.064 21.268 15.313 2.834 31 4.668 46.45 2.733a97.821 97.821 0 0 0 68.968-43.3c13.99-21.627 18.74-47.828 21.963-73.383 1.822-14.449 3.245-29.181.631-43.508a78.366 78.366 0 0 0-88.827-63.419" transform="translate(151.26 593.934)" style="fill:none;stroke:#fff;stroke-miterlimit:4.002;stroke-width:2px;stroke-dasharray:7 4"/>
            <path data-name="Pfad 1614" d="M809.109 33.4c-23.751-2.029-47.362 5.089-69.353 14.291-55.4 23.182-105.851 61.44-135.744 113.524" transform="translate(146.606 581.451)" style="fill:none;stroke:#fff;stroke-miterlimit:4.002;stroke-width:2px;stroke-dasharray:7 4"/>
            <path data-name="Pfad 1615" d="M830.349 108.231c-29.342-8.937-61.551-2.862-90.473 7.205-53.842 18.741-102.122 51.311-138.182 93.218" transform="translate(153.326 554.29)" style="fill:none;stroke:#fff;stroke-miterlimit:4.002;stroke-width:2px;stroke-dasharray:7 4"/>
            <path data-name="Pfad 1616" d="M845.359 163.6c-40.684-11.806-85.243-1.245-122.264 19.346s-67.876 50.462-98.262 79.981" transform="translate(138.622 533.282)" style="fill:none;stroke:#fff;stroke-miterlimit:4.002;stroke-width:2px;stroke-dasharray:7 4"/>
            <path data-name="Pfad 1617" d="M824.19 242.916c-8.874-1.56-18.012.176-26.693 2.537-43.388 11.8-80.414 38.721-115.33 66.172" transform="translate(153.833 501.208)" style="fill:none;stroke:#fff;stroke-miterlimit:4.002;stroke-width:2px;stroke-dasharray:7 4"/>
            <path data-name="Pfad 1618" d="M616.017 84.545c62.2 38.274 104.577 100.487 133.674 165.633" transform="translate(139.002 569.522)" style="fill:none;stroke:#fff;stroke-miterlimit:4.002;stroke-width:2px;stroke-dasharray:7 4"/>
            <path data-name="Pfad 1619" d="M704.05 81.613a920.49 920.49 0 0 1 155.834 177.543" transform="translate(88.343 544.842)" style="fill:none;stroke:#fff;stroke-miterlimit:4.002;stroke-width:2px;stroke-dasharray:7 4"/>
            <path data-name="Pfad 1620" d="M753.934 24.958A553.588 553.588 0 0 1 890.721 198.83" transform="translate(82.068 576.161)" style="fill:none;stroke:#fff;stroke-miterlimit:4.002;stroke-width:2px;stroke-dasharray:7 4"/>
        </g>
    </g>
</svg>
