<svg xmlns="http://www.w3.org/2000/svg" width="273.272" height="252.774" viewBox="0 0 273.272 252.774">
    <g data-name="Gruppe 2221">
        <path data-name="Pfad 1788" d="m-15028.992 3683 217.652 130.119-67.614 119.8L-15082 3800.34z" transform="translate(15083.262 -3681.566)" style="fill:none;stroke:#fff;stroke-width:2px;stroke-dasharray:6 4"/>
        <path data-name="Pfad 1675" d="M60.685 1.814C46.04-2.329 29.99.962 16.636 8.265 10.33 11.713 4.228 16.366 1.487 23.01c-4.157 10.075.867 22.153 9.292 29.066s19.482 9.651 30.257 11.285" transform="rotate(11 -403.593 590.864)" style="stroke-miterlimit:10;fill:none;stroke:#fff;stroke-width:2px;stroke-dasharray:6 4"/>
        <path data-name="Pfad 1676" d="M0 0a412.576 412.576 0 0 1 44.284 20.187" transform="rotate(11 -423.95 534.572)" style="stroke-miterlimit:10;fill:none;stroke:#fff;stroke-width:2px;stroke-dasharray:6 4"/>
        <path data-name="Pfad 1677" d="M0 0a300.582 300.582 0 0 0 43.853 12.634" transform="rotate(11 -530.22 525.466)" style="stroke-miterlimit:10;fill:none;stroke:#fff;stroke-width:2px;stroke-dasharray:6 4"/>
        <path data-name="Pfad 1791" d="M-14826.318 3805.4c-3.985-2.386-9.134 3.578-9.618 16.526s9.618 30.59 9.618 30.59" transform="translate(15073.322 -3680.133)" style="fill:none;stroke:#fff;stroke-width:2px;stroke-dasharray:6 4"/>
        <path data-name="Pfad 1792" d="M6.408.35C2.975-2.231.432 9.852.014 23.855s8.742 25.38 8.742 25.38" transform="scale(-1) rotate(83.98 5.099 -44.85)" style="fill:none;stroke:#fff;stroke-width:2px;stroke-dasharray:6 4"/>
        <path data-name="Pfad 1793" d="M9.259.287C4.3-1.831.623 8.086.02 19.578s12.63 20.829 12.63 20.829" transform="rotate(165.02 8.509 67.603)" style="fill:none;stroke:#fff;stroke-width:2px;stroke-dasharray:6 4"/>
        <path data-name="Pfad 1794" d="M8.64.343C4.012-2.187.582 9.656.019 23.379s11.786 24.874 11.786 24.874" transform="rotate(74 -27.936 249.2)" style="fill:none;stroke:#fff;stroke-width:2px;stroke-dasharray:6 4"/>
    </g>
</svg>
