<svg xmlns="http://www.w3.org/2000/svg" width="27.883" height="22.188" viewBox="0 0 27.883 22.188">
    <path d="M20 0a2 2 0 0 1 1.995 1.851L22 2v11.114l5.882 2.2-4.459.949L26.47 19.2l-1.937 2.056-2.955-2.98-.859 3.912L19.153 18H2a2 2 0 0 1-1.995-1.851L0 16V2A2 2 0 0 1 1.851.005L2 0zm-1.729 12.784 2.2 5.879.527-2.4 3.52 3.549.549-.583-3.695-3.549 2.951-.628zM21 12.738V6H1v10a1 1 0 0 0 .883.993L2 17h16.779l-2.213-5.923zM20 1H2a1 1 0 0 0-.993.883L1 2v3h20V2a1 1 0 0 0-.883-.993zM3.117 2a1 1 0 1 1-1 1 1 1 0 0 1 1-1zm3 0a1 1 0 1 1-1 1 1 1 0 0 1 1-1zm3 0a1 1 0 1 1-1 1 1 1 0 0 1 1-1z" style="fill:#26292e"/>
</svg>
