<svg xmlns="http://www.w3.org/2000/svg" width="255.783" height="261.623" viewBox="0 0 255.783 261.623">
  <g id="Gruppe_1605" data-name="Gruppe 1605" transform="translate(-728.875 -402.335)">
    <path id="Pfad_1233" data-name="Pfad 1233" d="M686.295,444.836l33.83,169.924c.622,3.124,1.391,6.495,4.013,8.6a15.813,15.813,0,0,0,6.258,2.55c34.312,8.276,71.635,5.286,104.424,17.639,2.436.917,5,1.938,7.608,1.6,2.58-.335,4.71-1.934,6.69-3.469l74.206-57.545c1.769-1.372,3.6-2.815,4.5-4.759,1.372-2.951.323-6.318-.737-9.373L863.175,385.808q-95.016,28.629-189.255,59.331" transform="translate(55.265 17.762)" fill="none" stroke="#181b1f" stroke-miterlimit="10" stroke-width="2" stroke-dasharray="7 5 0 0 0 0"/>
  </g>
</svg>
