<svg xmlns="http://www.w3.org/2000/svg" width="1184.409" height="878.673" viewBox="0 0 1184.409 878.673">
    <defs>
        <clipPath id="yx072mhmsa">
            <path data-name="Rechteck 542" style="fill:none;stroke:#fff;stroke-width:2px;stroke-dasharray:6 4" d="M0 0h386.065v337.85H0z"/>
        </clipPath>
        <clipPath id="r8mm2k23vb">
            <path data-name="Rechteck 540" style="fill:none;stroke:#fff;stroke-width:2px;stroke-dasharray:6 4" d="M0 0h217.351v284.109H0z"/>
        </clipPath>
    </defs>
    <g data-name="Gruppe 2307">
        <g data-name="Gruppe 2304">
            <g data-name="Gruppe 2303" style="clip-path:url(#yx072mhmsa)" transform="rotate(14.98 43.57 331.894)">
                <path data-name="Pfad 1965" d="M150.629 3.824A478.082 478.082 0 0 1 152.456 68c4.621-2.436 8.006-6.237 11.236-9.977q21.463-24.852 40.314-51.264" transform="translate(31.127 .921)" style="stroke-miterlimit:10;fill:none;stroke:#fff;stroke-width:2px;stroke-dasharray:6 4"/>
                <path data-name="Pfad 1966" d="M199.738 6.981a248.062 248.062 0 0 0 38.685.163 13.138 13.138 0 0 1 4.732.21 12.973 12.973 0 0 1 3.671 2.11c4.739 3.348 10.278 5.746 15.847 7.962C288.417 27.67 315.748 34.6 342.962 41.5c-3.987 1.871-6.314 5.522-8.369 9a399.2 399.2 0 0 0-33.748 72.811Q272.44 109.71 243.1 97.617" transform="translate(41.276 1.682)" style="stroke-miterlimit:10;fill:none;stroke:#fff;stroke-width:2px;stroke-dasharray:6 4"/>
                <path data-name="Pfad 1967" d="M323.426 38.987a175.236 175.236 0 0 1-36.126 78.944" transform="translate(59.369 9.394)" style="stroke-miterlimit:10;fill:none;stroke:#fff;stroke-width:2px;stroke-dasharray:6 4"/>
                <path data-name="Pfad 1968" d="M102.179 200.831c30.9-10.167 62.9-5.453 91.627 13.5" transform="translate(21.115 47.127)" style="stroke-miterlimit:10;fill:none;stroke:#fff;stroke-width:2px;stroke-dasharray:6 4"/>
                <path data-name="Pfad 1969" d="M146.2 96.336q-9.321 50.5-14.9 101.56l-1.22-11.553" transform="translate(26.879 23.211)" style="stroke-miterlimit:10;fill:none;stroke:#fff;stroke-width:2px;stroke-dasharray:6 4"/>
                <path data-name="Pfad 1970" d="M96.693 119.346c1.039-2.682 4.047-5.806 7.665-7.964s7.72-3.269 10.448-2.834c1.324.211 3.275.422 4.606-.916" transform="translate(19.982 25.933)" style="stroke-miterlimit:10;fill:none;stroke:#fff;stroke-width:2px;stroke-dasharray:6 4"/>
                <path data-name="Pfad 1971" d="M167.152 116.224c1.929-2.947 6.049-3.15 9.466-2.626a44.135 44.135 0 0 1 27.664 16.26" transform="translate(34.542 27.316)" style="stroke-miterlimit:10;fill:none;stroke:#fff;stroke-width:2px;stroke-dasharray:6 4"/>
                <path data-name="Pfad 1972" d="M182.183 5.017 118.368.725A36.724 36.724 0 0 0 108.083 1c-3.844.836-7.322 2.874-10.783 4.788A209.861 209.861 0 0 1 2.329 31.872a574.9 574.9 0 0 0-.3 87.78 268.422 268.422 0 0 0 76.651-19c-.058 77.2-25.521 152.811-23.723 229.991q124.85-.052 249.6 6.427c-20.674-79.4-7.666-163.805-17.289-245.408" transform="translate(.103 .12)" style="stroke-miterlimit:10;fill:none;stroke:#fff;stroke-width:2px;stroke-dasharray:6 4"/>
            </g>
        </g>
        <g data-name="Gruppe 2301">
            <g data-name="Gruppe 2300" style="clip-path:url(#r8mm2k23vb)" transform="rotate(-25 1834.664 -1645.595)">
                <path data-name="Pfad 1959" d="M15.143 135.046c4.8 5.56 7.783 12.486 9.654 19.586 4.794 18.187 2.6 37.36 2.238 56.165s1.6 38.857 13.087 53.753A49.9 49.9 0 0 0 83.4 283.415c5.4-.5 10.859-1.974 15.119-5.322 5.888-4.627 8.673-12.107 10.68-19.322 10.236-36.786 7.233-75.863 2.422-113.743-1.089-8.575-2.21-17.618 1.121-25.6 3.64-8.715 11.962-14.544 20.421-18.744C157.3 88.706 185.037 86.3 211.985 86.425a165.925 165.925 0 0 1-45.538-78.3c-.653-2.571-.825-6.056 1.619-7.087a5.3 5.3 0 0 1 3.694.239c13.809 4.648 22.687 17.986 28.886 31.172a182.323 182.323 0 0 1 16.207 57.618" style="stroke-miterlimit:10;fill:none;stroke:#fff;stroke-width:2px;stroke-dasharray:6 4"/>
                <path data-name="Pfad 1960" d="M164.949.333c-5.652 6.3-13 10.792-20.3 15.077-25.693 15.078-52.358 28.89-75.4 47.772-4.63 3.795-9.192 7.841-14.675 10.244C40.173 79.734 21.262 74 9.365 84.281 2.838 89.921.412 99.1.5 107.723a52.242 52.242 0 0 0 9.462 29.326" style="stroke-miterlimit:10;fill:none;stroke:#fff;stroke-width:2px;stroke-dasharray:6 4"/>
                <path data-name="Pfad 1961" d="M25.135 246.8a15.883 15.883 0 0 1 6.278-5.263c30.9-16.869 64.5-18.867 96.006-5.707" transform="rotate(6.02 75.979 199.06)" style="stroke-miterlimit:10;fill:none;stroke:#fff;stroke-width:2px;stroke-dasharray:6 4"/>
                <path data-name="Linie 37" transform="rotate(25 -379.987 227.048)" style="fill:none;stroke:#fff;stroke-width:2px;stroke-dasharray:6 4" d="M4 0 0 33"/>
                <path data-name="Linie 38" transform="rotate(25 -391.03 191.474)" style="fill:none;stroke:#fff;stroke-width:2px;stroke-dasharray:6 4" d="m0 0 32 15"/>
                <path data-name="Linie 39" transform="rotate(25 -373.189 292.443)" style="fill:none;stroke:#fff;stroke-width:2px;stroke-dasharray:6 4" d="m0 0 19 16"/>
                <path data-name="Linie 40" transform="rotate(25 -364.911 308.475)" style="fill:none;stroke:#fff;stroke-width:2px;stroke-dasharray:6 4" d="M8 0 0 26"/>
            </g>
        </g>
    </g>
</svg>
