<svg xmlns="http://www.w3.org/2000/svg" width="317.057" height="349.347" viewBox="0 0 317.057 349.347">
    <defs>
        <clipPath id="08sowjmjla">
            <path data-name="Rechteck 540" style="fill:none;stroke:#fff;stroke-width:2px;stroke-dasharray:6 4" d="M0 0h217.351v284.109H0z"/>
        </clipPath>
    </defs>
    <g data-name="Gruppe 2301">
        <g data-name="Gruppe 2300" style="clip-path:url(#08sowjmjla)" transform="rotate(-25 207.17 45.929)">
            <path data-name="Pfad 1959" d="M15.143 135.046c4.8 5.56 7.783 12.486 9.654 19.586 4.794 18.187 2.6 37.36 2.238 56.165s1.6 38.857 13.087 53.753A49.9 49.9 0 0 0 83.4 283.415c5.4-.5 10.859-1.974 15.119-5.322 5.888-4.627 8.673-12.107 10.68-19.322 10.236-36.786 7.233-75.863 2.422-113.743-1.089-8.575-2.21-17.618 1.121-25.6 3.64-8.715 11.962-14.544 20.421-18.744C157.3 88.706 185.037 86.3 211.985 86.425a165.925 165.925 0 0 1-45.538-78.3c-.653-2.571-.825-6.056 1.619-7.087a5.3 5.3 0 0 1 3.694.239c13.809 4.648 22.687 17.986 28.886 31.172a182.323 182.323 0 0 1 16.207 57.618" style="stroke-miterlimit:10;fill:none;stroke:#fff;stroke-width:2px;stroke-dasharray:6 4"/>
            <path data-name="Pfad 1960" d="M164.949.333c-5.652 6.3-13 10.792-20.3 15.077-25.693 15.078-52.358 28.89-75.4 47.772-4.63 3.795-9.192 7.841-14.675 10.244C40.173 79.734 21.262 74 9.365 84.281 2.838 89.921.412 99.1.5 107.723a52.242 52.242 0 0 0 9.462 29.326" style="stroke-miterlimit:10;fill:none;stroke:#fff;stroke-width:2px;stroke-dasharray:6 4"/>
            <path data-name="Pfad 1961" d="M25.135 246.8a15.883 15.883 0 0 1 6.278-5.263c30.9-16.869 64.5-18.867 96.006-5.707" transform="rotate(6.02 75.979 199.06)" style="stroke-miterlimit:10;fill:none;stroke:#fff;stroke-width:2px;stroke-dasharray:6 4"/>
            <path data-name="Linie 37" transform="rotate(25 -379.987 227.048)" style="fill:none;stroke:#fff;stroke-width:2px;stroke-dasharray:6 4" d="M4 0 0 33"/>
            <path data-name="Linie 38" transform="rotate(25 -391.03 191.474)" style="fill:none;stroke:#fff;stroke-width:2px;stroke-dasharray:6 4" d="m0 0 32 15"/>
            <path data-name="Linie 39" transform="rotate(25 -373.189 292.443)" style="fill:none;stroke:#fff;stroke-width:2px;stroke-dasharray:6 4" d="m0 0 19 16"/>
            <path data-name="Linie 40" transform="rotate(25 -364.911 308.475)" style="fill:none;stroke:#fff;stroke-width:2px;stroke-dasharray:6 4" d="M8 0 0 26"/>
        </g>
    </g>
</svg>
