<svg xmlns="http://www.w3.org/2000/svg" width="460.352" height="426.259" viewBox="0 0 460.352 426.259">
    <defs>
        <clipPath id="0b25pr5kta">
            <path data-name="Rechteck 542" style="fill:none;stroke:#fff;stroke-width:2px;stroke-dasharray:6 4" d="M0 0h386.065v337.85H0z"/>
        </clipPath>
    </defs>
    <g data-name="Gruppe 2304">
        <g data-name="Gruppe 2303" style="clip-path:url(#0b25pr5kta)" transform="rotate(14.98 43.57 331.894)">
            <path data-name="Pfad 1965" d="M150.629 3.824A478.082 478.082 0 0 1 152.456 68c4.621-2.436 8.006-6.237 11.236-9.977q21.463-24.852 40.314-51.264" transform="translate(31.127 .921)" style="stroke-miterlimit:10;fill:none;stroke:#fff;stroke-width:2px;stroke-dasharray:6 4"/>
            <path data-name="Pfad 1966" d="M199.738 6.981a248.062 248.062 0 0 0 38.685.163 13.138 13.138 0 0 1 4.732.21 12.973 12.973 0 0 1 3.671 2.11c4.739 3.348 10.278 5.746 15.847 7.962C288.417 27.67 315.748 34.6 342.962 41.5c-3.987 1.871-6.314 5.522-8.369 9a399.2 399.2 0 0 0-33.748 72.811Q272.44 109.71 243.1 97.617" transform="translate(41.276 1.682)" style="stroke-miterlimit:10;fill:none;stroke:#fff;stroke-width:2px;stroke-dasharray:6 4"/>
            <path data-name="Pfad 1967" d="M323.426 38.987a175.236 175.236 0 0 1-36.126 78.944" transform="translate(59.369 9.394)" style="stroke-miterlimit:10;fill:none;stroke:#fff;stroke-width:2px;stroke-dasharray:6 4"/>
            <path data-name="Pfad 1968" d="M102.179 200.831c30.9-10.167 62.9-5.453 91.627 13.5" transform="translate(21.115 47.127)" style="stroke-miterlimit:10;fill:none;stroke:#fff;stroke-width:2px;stroke-dasharray:6 4"/>
            <path data-name="Pfad 1969" d="M146.2 96.336q-9.321 50.5-14.9 101.56l-1.22-11.553" transform="translate(26.879 23.211)" style="stroke-miterlimit:10;fill:none;stroke:#fff;stroke-width:2px;stroke-dasharray:6 4"/>
            <path data-name="Pfad 1970" d="M96.693 119.346c1.039-2.682 4.047-5.806 7.665-7.964s7.72-3.269 10.448-2.834c1.324.211 3.275.422 4.606-.916" transform="translate(19.982 25.933)" style="stroke-miterlimit:10;fill:none;stroke:#fff;stroke-width:2px;stroke-dasharray:6 4"/>
            <path data-name="Pfad 1971" d="M167.152 116.224c1.929-2.947 6.049-3.15 9.466-2.626a44.135 44.135 0 0 1 27.664 16.26" transform="translate(34.542 27.316)" style="stroke-miterlimit:10;fill:none;stroke:#fff;stroke-width:2px;stroke-dasharray:6 4"/>
            <path data-name="Pfad 1972" d="M182.183 5.017 118.368.725A36.724 36.724 0 0 0 108.083 1c-3.844.836-7.322 2.874-10.783 4.788A209.861 209.861 0 0 1 2.329 31.872a574.9 574.9 0 0 0-.3 87.78 268.422 268.422 0 0 0 76.651-19c-.058 77.2-25.521 152.811-23.723 229.991q124.85-.052 249.6 6.427c-20.674-79.4-7.666-163.805-17.289-245.408" transform="translate(.103 .12)" style="stroke-miterlimit:10;fill:none;stroke:#fff;stroke-width:2px;stroke-dasharray:6 4"/>
        </g>
    </g>
</svg>
