<svg xmlns="http://www.w3.org/2000/svg" width="243.135" height="201.304" viewBox="0 0 243.135 201.304">
  <g id="Gruppe_1598" data-name="Gruppe 1598" transform="translate(-95.777 -4556.165)">
    <path id="Pfad_1237" data-name="Pfad 1237" d="M95.943,4571.377c65.845-11.1,132.794-16.376,199.5-13.393,8.637.386,17.462.953,25.439,4.287s15.083,9.973,16.681,18.47c1.752,9.329-3.549,18.892-11.069,24.685s-16.923,8.49-26.168,10.638c-59.784,13.882-123.973,10.09-180.31,34.441-3.645,1.576-7.68,3.794-8.454,7.688-.981,4.94,3.838,8.981,8.257,11.4,18.038,9.857,38.767,13.579,59.223,15.618a411.667,411.667,0,0,0,101.859-2.535c1.643-.247,3.843-.181,4.326,1.409s-3.209,1.259-1.949.176" fill="none" stroke="#181b1f" stroke-miterlimit="10" stroke-width="2" stroke-dasharray="7 5 0 0 0 0"/>
    <path id="Pfad_1238" data-name="Pfad 1238" d="M199.254,4726.662c-3.167-2.926-8.818-1.687-11.247,1.876s-1.988,8.535.181,12.263,5.777,6.4,9.534,8.516a55.782,55.782,0,0,0,36.2,6.38c1.761-.291,3.655-.758,4.761-2.157,1.554-1.966.885-4.838-.074-7.152-2.891-6.982-7.934-13.215-14.635-16.707s-15.1-3.977-21.8-.485" fill="none" stroke="#181b1f" stroke-miterlimit="10" stroke-width="2" stroke-dasharray="7 5 0 0 0 0"/>
  </g>
</svg>
