<svg xmlns="http://www.w3.org/2000/svg" width="839.169" height="573.155" viewBox="0 0 839.169 573.155">
    <g data-name="Gruppe 2233">
        <g data-name="Gruppe 2231">
            <path data-name="Pfad 1832" d="m1575.725 638.6-397.5-71.981-48.7 263.965 404.888 93.649 120.139-60.243 28.972-86.434z" transform="rotate(-27 -87.509 2758.944)" style="stroke:#fff;stroke-width:2px;stroke-dasharray:6 4;fill:none"/>
            <path data-name="Pfad 1833" d="m1200.525 745.579 20.684-111.6s57.68-12.687 51.635 26.677-44.506 38.1-44.506 38.1l21.7 55.572" transform="rotate(-27 -86.907 2751.423)" style="stroke:#fff;stroke-width:2px;stroke-dasharray:6 4;fill:none"/>
            <path data-name="Pfad 1834" d="m1346.066 781.824-58.217-12.153 22.558-117.962 59.8 16.985" transform="rotate(-27 -61.683 2774.77)" style="stroke:#fff;stroke-width:2px;stroke-dasharray:6 4;fill:none"/>
            <path data-name="Pfad 1835" d="M1299.752 712.961h26.148" transform="rotate(-27 -61.683 2774.77)" style="stroke:#fff;stroke-width:2px;stroke-dasharray:6 4;fill:none"/>
            <path data-name="Pfad 1836" d="m1377.973 792.052 26.8-114.236 27.293 130.889 41.218-110.018" transform="rotate(-27 -98.335 2805.596)" style="stroke:#fff;stroke-width:2px;stroke-dasharray:6 4;fill:none"/>
            <path data-name="Pfad 1837" d="m1505.232 704.5 96.007 16.325" transform="rotate(-27 -54.133 2830.226)" style="stroke:#fff;stroke-width:2px;stroke-dasharray:6 4;fill:none"/>
            <path data-name="Pfad 1838" d="m1553.235 712.961-21.7 97.805" transform="rotate(-27 -54.133 2830.226)" style="stroke:#fff;stroke-width:2px;stroke-dasharray:6 4;fill:none"/>
            <g data-name="Ellipse 156" transform="matrix(1 0 0 1 520.043 227.42)" style="stroke:#fff;stroke-width:2px;stroke-dasharray:6 4;fill:none">
                <ellipse cx="21" cy="24.5" rx="21" ry="24.5" style="stroke:none"/>
                <ellipse cx="21" cy="24.5" rx="20" ry="23.5" style="fill:none"/>
            </g>
            <path data-name="Pfad 1845" d="M1246 682.5s264.348 92.733 292.088 13.293-62.266-2.941-106.764-40.719 0-98.542 0-98.542" transform="matrix(1 0 0 1 -704.962 -430.565)" style="stroke:#fff;stroke-width:2px;stroke-dasharray:6 4;fill:none"/>
        </g>
    </g>
</svg>
