<svg data-name="Gruppe 2289" xmlns="http://www.w3.org/2000/svg" width="1164.338" height="794.169" viewBox="0 0 1164.338 794.169">
    <defs>
        <clipPath id="tivkyncboa">
            <path data-name="Rechteck 536" style="fill:none;stroke:#fff;stroke-width:2px;stroke-dasharray:6 4" d="M0 0h1164.338v794.169H0z"/>
        </clipPath>
    </defs>
    <g data-name="Gruppe 2288" style="clip-path:url(#tivkyncboa)">
        <path data-name="Pfad 1921" d="M5.2 100.554a63.073 63.073 0 0 0 6.3 28.681 12.726 12.726 0 0 0 3.379 4.695c3.43 2.587 8.406.751 10.982-2.878s3.274-8.481 3.527-13.112a89.336 89.336 0 0 0-8.439-43.079c-1.783-3.718-4.167-7.568-7.808-8.623-4.213-1.221-8.683 1.99-10.711 6.313S.311 82 .655 86.872s1.072 9.771.5 14.615" transform="translate(10.452 22.639)" style="stroke-miterlimit:10;fill:none;stroke:#fff;stroke-width:2px;stroke-dasharray:6 4"/>
        <path data-name="Pfad 1922" d="M47.9 66.966c111.71-2.912 219.522-39.592 329.906-57a232.952 232.952 0 0 1 32.574 95.6c.194 1.764.339 3.666-.552 5.2-.907 1.562-2.673 2.378-4.34 3.077-26.86 11.27-55.754 16.781-84.561 21.1-42.419 6.36-85.161 10.3-127.874 14.228L63.487 161.1a116.041 116.041 0 0 0-19.112-99.371" transform="translate(8.096 1.817)" style="stroke-miterlimit:10;fill:none;stroke:#fff;stroke-width:2px;stroke-dasharray:6 4"/>
        <path data-name="Pfad 1923" d="M72.108 65.76a227.652 227.652 0 0 1 9.259 102.46c18.5-9.908 30.473-29.243 36.153-49.441s5.844-41.48 5.965-62.462a485.2 485.2 0 0 1 4.738 104.575c34.615-36.492 50.637-86.319 65.625-134.333a467.619 467.619 0 0 1-5.7 110.912 242.286 242.286 0 0 0 39.738-96.931 115.36 115.36 0 0 1 11.214 88.94 135.239 135.239 0 0 0 30.976-98.261 260.092 260.092 0 0 1 20.3 101.711 157.638 157.638 0 0 0 15.48-116.814C315.944 32.988 326.1 50 332.635 68.543s9.279 38.944 4.2 57.936c12.716-17.316 17.726-39.33 17.939-60.812s-4.036-42.73-8.279-63.79a172.537 172.537 0 0 1 38.237 117.594" transform="translate(13.155 .342)" style="stroke-miterlimit:10;fill:none;stroke:#fff;stroke-width:2px;stroke-dasharray:6 4"/>
        <path data-name="Pfad 1924" d="m5.192 67.181 46.264-4.122" transform="translate(11.641 18.339)" style="stroke-miterlimit:10;fill:none;stroke:#fff;stroke-width:2px;stroke-dasharray:6 4"/>
        <path data-name="Pfad 1925" d="M22.824 138.382a248.868 248.868 0 0 0 42.876-6.456" transform="translate(2.164 16.002)" style="stroke-miterlimit:10;fill:none;stroke:#fff;stroke-width:2px;stroke-dasharray:6 4"/>
        <path data-name="Pfad 1926" d="M333.7 23.136a227.367 227.367 0 0 0 48.988-7.253c11.367 15.608 14.027 35.71 16.333 54.879a6.6 6.6 0 0 1-.29 3.786c-.81 1.6-2.717 2.236-4.438 2.727q-18.771 5.356-37.634 10.374" transform="translate(60.881 2.898)" style="stroke-miterlimit:10;fill:none;stroke:#fff;stroke-width:2px;stroke-dasharray:6 4"/>
        <path data-name="Pfad 1927" d="M344.961 108.758c-4.336 19.787 3.141 40.82 15.91 56.545s30.314 26.84 48.305 36.15c93.575 48.426 203.922 53.77 308.617 41.914 34.242-3.877 74.941-15.005 84.449-48.128 1.806-6.288 2.183-13.288-.667-19.177-3.89-8.042-12.732-12.261-21.063-15.483-107.953-41.765-240.119-10.5-317.914 75.214-9.5 10.462-18.493 22.185-21.336 36.027-5.186 25.255 11.521 50.109 31.454 66.461 52.292 42.9 126.607 47.849 193.251 36.313s130.163-37.319 196.753-49.15 140.831-7.572 193.688 34.624c30.251 24.151 50.883 58.945 62.416 95.9 17.913 57.4 10.893 128.359-36.283 165.639-28.615 22.612-66.74 29.012-103.188 30.294a461.2 461.2 0 0 1-166.483-24.973c-58.119-20.1-111.755-51.679-169.927-71.62a456.347 456.347 0 0 0-228.278-17.236c-56.383 10.234-111.976 32-154.131 70.821s-69.245 96.3-62.957 153.256" transform="translate(35.881 19.842)" style="stroke-miterlimit:10;fill:none;stroke:#fff;stroke-width:2px;stroke-dasharray:6 4"/>
        <path data-name="Pfad 1928" d="M218.255 617.689a121.821 121.821 0 0 0-35.6-7.086 11.306 11.306 0 0 0-5.923.844c-1.778.958-3.012 3.23-2.14 5.054.76 1.59 2.683 2.186 4.4 2.588a166.206 166.206 0 0 0 42.519 4.324c2.845-.079 6.573-1.085 6.6-3.932l-3.846-2.333" transform="translate(31.8 111.391)" style="stroke-miterlimit:10;fill:none;stroke:#fff;stroke-width:2px;stroke-dasharray:6 4"/>
        <path data-name="Pfad 1929" d="m203.573 609.734-34.856-7.372c-6.243-1.32-14.921.491-15.459 11.26 12.366 7.936 25.683 10.181 38.827 12.28 25.349 4.049 50.714 7.811 76.078 11.573l312.053 46.283c-123.891-26.691-247.817-53.388-372.2-72.221" transform="translate(27.96 109.827)" style="stroke-miterlimit:10;fill:none;stroke:#fff;stroke-width:2px;stroke-dasharray:6 4"/>
    </g>
</svg>
