<svg data-name="Gruppe 2275" xmlns="http://www.w3.org/2000/svg" width="553.578" height="731.761" viewBox="0 0 553.578 731.761">
    <defs>
        <clipPath id="ms39biwqza">
            <path data-name="Rechteck 529" style="fill:none;stroke:#fff;stroke-width:2px;stroke-dasharray:6 4" d="M0 0h553.578v731.761H0z"/>
        </clipPath>
    </defs>
    <g data-name="Gruppe 2274" style="clip-path:url(#ms39biwqza)">
        <path data-name="Pfad 1896" d="M21.437 634.433 7.689 37.929 479.988.539c8.885 211.825 46.447 421.239 73.1 631.568.453 3.573.707 7.735-1.906 10.214-2.19 2.077-5.552 2.123-8.57 2.044L.013 630.12" transform="translate(-.008 -.316)" style="stroke-miterlimit:10;fill:none;stroke:#fff;stroke-width:2px;stroke-dasharray:6 4"/>
        <path data-name="Pfad 1897" d="M581.615 30.708q4.185 310.062 19.437 619.844" transform="translate(-341.435 -18.027)" style="stroke-miterlimit:10;fill:none;stroke:#fff;stroke-width:2px;stroke-dasharray:6 4"/>
        <path data-name="Pfad 1898" d="m78.1 1522.155-.056 80.29a7.761 7.761 0 0 0 .791 4.194c1.335 2.118 4.246 2.419 6.748 2.5l23.679.752 26.385-113.691" transform="translate(-45.813 -878.34)" style="stroke-miterlimit:10;fill:none;stroke:#fff;stroke-width:2px;stroke-dasharray:6 4"/>
        <path data-name="Pfad 1899" d="m1186.159 1544.176-1.906 85.8c-.031 1.386-.138 2.944-1.183 3.854a5.068 5.068 0 0 1-3.4.826l-23.027.019a4.845 4.845 0 0 1-5.811-4.107l-31.963-91.354" transform="translate(-656.83 -903.591)" style="stroke-miterlimit:10;fill:none;stroke:#fff;stroke-width:2px;stroke-dasharray:6 4"/>
        <path data-name="Pfad 1900" d="M430.063 692.565c-7.383 4.428-7.941 20.384-1.6 26.209s17.258 4.938 23.368-1.127 7.362-16.075 3.988-23.995c-3.007-7.059-10.693-8.873-18.078-6.8" transform="translate(-245.958 -462.618)" style="stroke-miterlimit:10;fill:none;stroke:#fff;stroke-width:2px;stroke-dasharray:6 4"/>
        <path data-name="Pfad 1901" d="M686.606 702.322c-7.315 2.734-15.95 8.259-14.329 15.9 1.311 6.177 9.775 8.838 15.224 5.648s7.637-10.313 6.6-16.542" transform="translate(-395.39 -465.141)" style="stroke-miterlimit:10;fill:none;stroke:#fff;stroke-width:2px;stroke-dasharray:6 4"/>
    </g>
</svg>
