<svg xmlns="http://www.w3.org/2000/svg" width="990.484" height="764.641" viewBox="0 0 990.484 764.641">
    <defs>
        <clipPath id="kjt7g3a5ia">
            <path data-name="Rechteck 532" transform="translate(0 -57)" style="fill:none;stroke:#fff;stroke-width:2px;stroke-dasharray:6 4" d="M0 0h226.874v382H0z"/>
        </clipPath>
        <clipPath id="6wrivgaatb">
            <path data-name="Rechteck 531" style="fill:none;stroke:#fff;stroke-width:2px;stroke-dasharray:6 4" d="M0 0h272.187v181.402H0z"/>
        </clipPath>
        <clipPath id="25d6tmwguc">
            <path data-name="Rechteck 537" style="fill:none;stroke:#fff;stroke-width:2px;stroke-dasharray:6 4" d="M0 0h320.546v262.995H0z"/>
        </clipPath>
    </defs>
    <g data-name="Gruppe 2287">
        <g data-name="Gruppe 2282">
            <g data-name="Gruppe 2281" style="clip-path:url(#kjt7g3a5ia)" transform="translate(299.263 439.641)">
                <path data-name="Pfad 1908" d="M3.177 394.823 5.74 213.707a16.76 16.76 0 0 1 .972-6.554c1.077-2.451 3.243-4.223 5.334-5.9L66.934 157.3A144.93 144.93 0 0 0 110 198.493q-5.948 111.016-2.3 222.269A497 497 0 0 0 .557 406.816l1.412-12.775" transform="translate(-.34 -96.013)" style="stroke-miterlimit:10;fill:none;stroke:#fff;stroke-width:2px;stroke-dasharray:6 4"/>
                <path data-name="Pfad 1909" d="M124.906 402.2c-9.634-5.516-22.317-4.176-31.573 1.954s-15.241 16.429-17.722 27.249c-5.26 22.934 5.544 48.653 25.606 60.949 3.655 2.241 7.7 4.1 11.99 4.235 5.754.183 11.244-2.807 15.326-6.867s6.975-9.134 9.818-14.14l-4.022-2.284" transform="translate(-45.345 -243.382)" style="stroke-miterlimit:10;fill:none;stroke:#fff;stroke-width:2px;stroke-dasharray:6 4"/>
                <path data-name="Pfad 1910" d="M42.389 486.163a245.223 245.223 0 0 1 63.989-7.87" transform="translate(-25.874 -291.941)" style="stroke-miterlimit:10;fill:none;stroke:#fff;stroke-width:2px;stroke-dasharray:6 4"/>
                <path data-name="Pfad 1911" d="M53.958 530.524a220.78 220.78 0 0 1 48.825-7.91" transform="translate(-32.936 -319.001)" style="stroke-miterlimit:10;fill:none;stroke:#fff;stroke-width:2px;stroke-dasharray:6 4"/>
                <path data-name="Pfad 1912" d="M166.012 140.265C205.185 84.646 252.879 37.074 306.208.43" transform="translate(-101.333 -44.264)" style="stroke-miterlimit:10;fill:none;stroke:#fff;stroke-width:2px;stroke-dasharray:6 4"/>
            </g>
        </g>
        <g data-name="Gruppe 2280">
            <g data-name="Gruppe 2279" style="clip-path:url(#6wrivgaatb)" transform="rotate(-30 253.953 68.046)">
                <path data-name="Pfad 1904" d="M53.793 4.555c-1.81 9.745-9.293 17.991-18.338 23.11s-19.569 7.474-30.02 8.978Q2.124 75.137.512 113.738a3.053 3.053 0 0 0 .407 2.056 3.826 3.826 0 0 0 2.239 1.036c7.435 1.749 13.624 6.781 17.89 12.74s6.823 12.831 9.07 19.689l185.733 3.233a9.394 9.394 0 0 0 4.863-.786 10.558 10.558 0 0 0 3.04-3.452c4.374-6.24 12.65-9.877 20.574-9.044q.265-51.942-.7-103.881a3.863 3.863 0 0 0-.564-2.36c-.7-.9-2.018-1.1-3.189-1.3a30.587 30.587 0 0 1-10.961-4.258c-8.23-5.04-14.51-14.015-19.307-22.733-.8-1.448-1.679-3-3.245-3.712a8.561 8.561 0 0 0-4.085-.4c-60.6 3.92-96.386 6.351-157.121 7.053" transform="translate(14.282 23.029)" style="stroke-miterlimit:10;fill:none;stroke:#fff;stroke-width:2px;stroke-dasharray:6 4"/>
                <path data-name="Pfad 1905" d="M396.467 224.621c-10.921-2.106-22.948-.382-31.7 6.484s-13.326 19.367-9.272 29.724c3.744 9.562 13.518 15.385 23.24 18.693a85 85 0 0 0 36.272 4.033" transform="translate(-242.038 -153)" style="stroke-miterlimit:10;fill:none;stroke:#fff;stroke-width:2px;stroke-dasharray:6 4"/>
                <path data-name="Pfad 1906" d="M298.863 295.277 349 281.8l-13.652 3.5" transform="translate(-204.336 -192.672)" style="stroke-miterlimit:10;fill:none;stroke:#fff;stroke-width:2px;stroke-dasharray:6 4"/>
                <path data-name="Pfad 1907" d="M286.684 329.978q33.931-9.115 68.5-15.606" transform="translate(-196.009 -214.94)" style="stroke-miterlimit:10;fill:none;stroke:#fff;stroke-width:2px;stroke-dasharray:6 4"/>
            </g>
        </g>
        <g data-name="Gruppe 2295">
            <g data-name="Gruppe 2292" style="clip-path:url(#25d6tmwguc)" transform="translate(669.939 107.957)">
                <path data-name="Pfad 1940" d="M1.053 234.878A1361.191 1361.191 0 0 0 21.137 57.044 1189.275 1189.275 0 0 1 86.3 262.352c81.274-25.892 155.365-69.993 233.629-103.913L268.268.574Q144.412 24.586 21.738 54.239" style="stroke-miterlimit:10;fill:none;stroke:#fff;stroke-width:2px;stroke-dasharray:6 4"/>
                <path data-name="Pfad 1941" d="M.174 237.051q38.691-14.367 78.474-25.532" style="stroke-miterlimit:10;fill:none;stroke:#fff;stroke-width:2px;stroke-dasharray:6 4"/>
                <path data-name="Pfad 1942" d="M199.745 57.961c-16.764 5.62-33.188 14.747-42.807 29.583s-10.514 36.268 1.533 49.209c4.764 5.118 11.088 8.554 17.639 11a76.9 76.9 0 0 0 46.283 2.259" style="stroke-miterlimit:10;fill:none;stroke:#fff;stroke-width:2px;stroke-dasharray:6 4"/>
                <path data-name="Pfad 1943" d="M125.406 111.248a432.992 432.992 0 0 1 70.458-10.193" style="stroke-miterlimit:10;fill:none;stroke:#fff;stroke-width:2px;stroke-dasharray:6 4"/>
                <path data-name="Pfad 1944" d="M132.152 138.594a213.441 213.441 0 0 1 65.688-17.856" style="stroke-miterlimit:10;fill:none;stroke:#fff;stroke-width:2px;stroke-dasharray:6 4"/>
            </g>
        </g>
    </g>
</svg>
