<svg xmlns="http://www.w3.org/2000/svg" width="423.995" height="562.773" viewBox="0 0 423.995 562.773">
    <g data-name="Gruppe 2234">
        <path data-name="Pfad 1847" d="M132.286 5.625 287.168 0l-14.561 241.477s22.968 35.565 22.968 51.621c0 0-8.986-.484-14.11 8.9s14.11 24.271 14.11 24.271-1.083 13.616-30.59 27.221-36.035 8.584-46.657 15.092-104.712 110.989-104.712 110.989-13.9 29.076-66.544 14.173c0 0 14.649-13.753-1.856-28.979S19.57 479.571 19.57 479.571s-31.056-32.256-14.925-74.752S123.544 261.6 126.6 241.477s5.686-235.852 5.686-235.852z" transform="rotate(16 64.692 493.688)" style="fill:none;stroke:#fff;stroke-width:2px;stroke-dasharray:6 4"/>
        <path data-name="Pfad 1848" d="M0 9.6 152.468 0" transform="rotate(16 -116.032 918.185)" style="fill:none;stroke:#fff;stroke-width:2px;stroke-dasharray:6 4"/>
        <path data-name="Pfad 1849" d="M149.94 3.649 0 0" transform="rotate(16 -229.319 929.963)" style="fill:none;stroke:#fff;stroke-width:2px;stroke-dasharray:6 4"/>
        <path data-name="Pfad 1850" d="M67.22 0S22.585 14.565 15.455 40.3s-22.264 69.167-11.981 89.548" transform="rotate(16 -901.477 1117.135)" style="fill:none;stroke:#fff;stroke-width:2px;stroke-dasharray:6 4"/>
        <path data-name="Pfad 1851" d="M0 .01s38.445-.74 56.112 10.355 44.222 62.073 44.222 78.08" transform="rotate(16 -1331.973 326.652)" style="fill:none;stroke:#fff;stroke-width:2px;stroke-dasharray:6 4"/>
    </g>
</svg>
