<svg xmlns="http://www.w3.org/2000/svg" width="286.205" height="228.374" viewBox="0 0 286.205 228.374">
  <g id="Gruppe_1612" data-name="Gruppe 1612" transform="translate(-129.085 -3163.525)">
    <path id="Pfad_1012" data-name="Pfad 1012" d="M165.135,3162.4c35.907-9.516,73.026-19.124,109.973-14.425s74,27.534,82.251,62.09c2.687,11.256,2.115,23.409-2.97,33.889-7.445,15.338-23.545,25.4-40.232,31.2-33.8,11.762-71.229,9.043-106.641,2.913a311.5,311.5,0,0,0,15.816,92.493c-24.73-24.091-38.9-55.968-52.512-87.04-17.618-1.059-35.49-2.165-52.167-7.671s-32.3-16.061-39.544-31.363c-10.062-21.245-1.2-47.8,17.221-63.17s44.4-20.635,68.81-18.574" transform="translate(55.265 17.762)" fill="none" stroke="#181b1f" stroke-miterlimit="10" stroke-width="2" stroke-dasharray="7 5 0 0 0 0"/>
  </g>
</svg>
