<svg xmlns="http://www.w3.org/2000/svg" width="408.074" height="437.451" viewBox="0 0 408.074 437.451">
  <g id="Gruppe_1430" data-name="Gruppe 1430" transform="translate(-300.518 -3733.926)">
    <path id="Pfad_1033" data-name="Pfad 1033" d="M470.984,3887.81a72.139,72.139,0,0,1,8.963-17.874,11.864,11.864,0,0,1,2.829-3.138c2.884-2,6.783-1.372,10.228-.656,3.154.656,7.034,2.111,7.156,5.311" fill="none" stroke="#fff" stroke-miterlimit="10" stroke-width="2" stroke-dasharray="7 5 0 0 0 0"/>
    <path id="Pfad_1034" data-name="Pfad 1034" d="M489.438,3883.511c4.752-5.066,6.874-12.866,13.2-15.784,6.273-2.9,13.528.451,19.6,3.735" fill="none" stroke="#fff" stroke-miterlimit="10" stroke-width="2" stroke-dasharray="7 5 0 0 0 0"/>
    <path id="Pfad_1035" data-name="Pfad 1035" d="M504.588,3892.738a22.582,22.582,0,0,1,6.535-14.53,40.039,40.039,0,0,1,13.582-8.884,35.047,35.047,0,0,1,13.244-3.169,20.59,20.59,0,0,1,15.334,6.317c3.82,4.2,5.373,10.505,3.367,15.808" fill="none" stroke="#fff" stroke-miterlimit="10" stroke-width="2" stroke-dasharray="7 5 0 0 0 0"/>
    <path id="Pfad_1036" data-name="Pfad 1036" d="M536.505,3908.359c-3.5.574-7.027-1.463-9.2-4.255s-3.259-6.247-4.306-9.62a8.2,8.2,0,0,1-.542-3.925c.733-3.783,5.784-4.536,9.66-4.418,6.458.2,13.31.517,18.652,4.129,5.8,3.92,8.659,11.143,8.834,18.107s-1.981,13.771-4.448,20.292a14.258,14.258,0,0,1-2.85,5.144c-2.676,2.708-6.917,2.957-10.736,2.961q-7.9.008-15.794-.418" fill="none" stroke="#fff" stroke-miterlimit="10" stroke-width="2" stroke-dasharray="7 5 0 0 0 0"/>
    <path id="Pfad_1037" data-name="Pfad 1037" d="M642.323,4138.177c-41.762,26.457-93.188,35.389-142.537,31.19-27.245-2.319-54.356-8.529-78.933-20.438-55.933-27.1-94.693-82.565-110.647-142.33-15.246-57.118-10.887-120.216,17.267-172.27s81.162-91.479,140.243-98.279c61.311-7.056,121.384,19.845,173.975,51.942,12.222,7.459,24.365,15.33,34.329,25.581,19.175,19.728,28.921,47.161,31.089,74.5s-2.7,54.78-9.539,81.351c-5.626,21.854-12.7,43.59-24.406,62.919s-28.418,36.242-49.325,45.042c-16.527,6.957-34.782,8.567-52.71,9.439a738.713,738.713,0,0,1-83.941-.691c-16.619-1.083-33.482-2.8-48.894-9.068-26.727-10.877-46.561-34.767-57.642-61.267s-14.293-55.577-15.313-84.256c-1.133-31.841.744-65.352,17.327-92.623,13.848-22.773,36.718-38.886,60.961-50.189,12.484-5.822,25.669-10.584,39.4-11.822,19.176-1.729,38.232,3.469,56.714,8.833,23.234,6.744,46.579,13.922,67.644,25.767s39.93,28.84,49.877,50.764c13.867,30.564,8.8,66.261-.723,98.423-8.7,29.359-22.489,59.6-48.922,75.312-13.806,8.2-29.982,11.7-46.019,12.956a184.133,184.133,0,0,1-96.662-19.027c-15.424-7.779-30.15-18.206-38.946-33-6.159-10.36-9.077-22.287-11.181-34.136-4.883-27.5-5.695-56.414,3.534-82.793s29.769-49.883,56.8-57.553c15.853-4.5,32.786-3.41,49.037-.648,16.765,2.849,33.469,7.54,47.938,16.424,26.649,16.362,43.609,46.977,43.971,78.1s-15.606,61.84-40.946,80.14c-6.672,4.818-14.143,8.893-22.307,10.063-6.564.94-13.255-.04-19.733-1.453a148.766,148.766,0,0,1-65.9-33.182l-2.3-1.934c-6.059-6-9.435-14.123-12.317-22.126-5.1-14.146-9.168-29.117-7.5-44.049s10.144-29.885,24.1-35.673c3.542-1.469,9.142-1.168,9.469,2.632" fill="none" stroke="#fff" stroke-miterlimit="10" stroke-width="2" stroke-dasharray="7 5 0 0 0 0"/>
  </g>
</svg>
