<svg xmlns="http://www.w3.org/2000/svg" width="401.68" height="761.52" viewBox="0 0 401.68 761.52">
    <g data-name="Gruppe 2037">
        <path data-name="Pfad 1229" d="M210.243 1568.431a1111.021 1111.021 0 0 1 41.217 117.105" transform="translate(68.854 -926.105)" style="fill:none;stroke:#fff;stroke-miterlimit:10;stroke-width:2px;stroke-dasharray:7 5 0 0 0 0"/>
        <path data-name="Pfad 1229" d="M210.243 1568.431a499.376 499.376 0 0 1 63.2 62.568" transform="translate(127.472 -967.017)" style="fill:none;stroke:#fff;stroke-miterlimit:10;stroke-width:2px;stroke-dasharray:7 5 0 0 0 0"/>
        <path data-name="Pfad 1228" d="M202.673 1572.16q24.938-46.237 46.482-96.719c1.622-3.8 3.267-7.71 4.9-11.638" transform="translate(115.264 -1458.806)" style="fill:none;stroke:#fff;stroke-miterlimit:10;stroke-width:2px;stroke-dasharray:7 5 0 0 0 0"/>
        <path data-name="Pfad 1228" d="M202.673 1581.041c2.27-37.223 4.369-76.379 6.286-117.238" transform="rotate(2 41881.747 1294.046)" style="fill:none;stroke:#fff;stroke-miterlimit:10;stroke-width:2px;stroke-dasharray:7 5 0 0 0 0"/>
        <path data-name="Pfad 1232" d="M170.675 1506.906a931.77 931.77 0 0 0-42.535-112.942" transform="translate(-56.113 -1393.552)" style="fill:none;stroke:#fff;stroke-miterlimit:10;stroke-width:2px;stroke-dasharray:7 5 0 0 0 0"/>
        <path data-name="Pfad 1231" d="m127.358 1571.154-61.042 64.011" transform="translate(-65.592 -940.764)" style="fill:none;stroke:#fff;stroke-miterlimit:10;stroke-width:2px;stroke-dasharray:7 5 0 0 0 0"/>
        <path data-name="Pfad 1230" d="M205.47 1584.008q-19 50.707-42.463 100.8l-1.978-3.169" transform="translate(-76.06 -925.374)" style="fill:none;stroke:#fff;stroke-miterlimit:10;stroke-width:2px;stroke-dasharray:7 5 0 0 0 0"/>
    </g>
</svg>
