<svg xmlns="http://www.w3.org/2000/svg" width="194.504" height="278.257" viewBox="0 0 194.504 278.257">
  <g id="Gruppe_1593" data-name="Gruppe 1593" transform="translate(-66.253 -1393.68)">
    <path id="Pfad_1227" data-name="Pfad 1227" d="M171.894,1572.423c-4.966-6.184-9.7-12.717-12.555-20.183s-3.667-16.036-.759-23.478,10.025-13.37,17.823-13.3c6.1.055,11.657,3.544,16.455,7.423a90.459,90.459,0,0,1,14.2,14.4c3.017,3.835,5.838,8.233,5.976,13.165a24.986,24.986,0,0,1-1.616,8.313c-1.673,5.17-3.7,10.491-7.693,14.07-4.714,4.228-11.567,5.3-17.681,3.945s-11.586-4.864-16.445-8.915" fill="none" stroke="#181b1f" stroke-miterlimit="10" stroke-width="2" stroke-dasharray="7 5 0 0 0 0"/>
    <path id="Pfad_1228" data-name="Pfad 1228" d="M202.673,1528.679a645.325,645.325,0,0,0,48.158-64.876" fill="none" stroke="#181b1f" stroke-miterlimit="10" stroke-width="2" stroke-dasharray="7 5 0 0 0 0"/>
    <path id="Pfad_1229" data-name="Pfad 1229" d="M210.243,1568.431a458.517,458.517,0,0,1,49.682,62.233" fill="none" stroke="#181b1f" stroke-miterlimit="10" stroke-width="2" stroke-dasharray="7 5 0 0 0 0"/>
    <path id="Pfad_1230" data-name="Pfad 1230" d="M182.214,1584.009q-9.059,42.535-20.242,84.553l-.943-2.658" fill="none" stroke="#181b1f" stroke-miterlimit="10" stroke-width="2" stroke-dasharray="7 5 0 0 0 0"/>
    <path id="Pfad_1231" data-name="Pfad 1231" d="M154.373,1571.154l-88.057,5.528" fill="none" stroke="#181b1f" stroke-miterlimit="10" stroke-width="2" stroke-dasharray="7 5 0 0 0 0"/>
    <path id="Pfad_1232" data-name="Pfad 1232" d="M158.869,1518.52q-12.516-62.973-30.729-124.556" fill="none" stroke="#181b1f" stroke-miterlimit="10" stroke-width="2" stroke-dasharray="7 5 0 0 0 0"/>
  </g>
</svg>
