<svg xmlns="http://www.w3.org/2000/svg" width="342.501" height="306.19" viewBox="0 0 342.501 306.19">
    <defs>
        <clipPath id="nhpwlzogva">
            <path data-name="Pfad 1688" d="M0 0h120.668v146.812H0z" style="fill:none"/>
        </clipPath>
        <clipPath id="prmr5si8cb">
            <path data-name="Rechteck 468" style="stroke:#fff;stroke-width:2px;stroke-dasharray:6 4;fill:none" d="M0 0h149.248v127.02H0z"/>
        </clipPath>
        <clipPath id="pqr771c9hc">
            <path data-name="Rechteck 469" style="stroke:#fff;stroke-width:2px;stroke-dasharray:6 4;fill:none" d="M0 0h49.026v119.096H0z"/>
        </clipPath>
    </defs>
    <g data-name="Gruppe 2252">
        <g data-name="Gruppe 2008">
            <g data-name="Gruppe 2007" transform="rotate(175 63.31 76.03)" style="clip-path:url(#nhpwlzogva)">
                <g data-name="Gruppe 2006">
                    <path data-name="Pfad 1687" d="M0 24.328a16.769 16.769 0 0 0 1.9-.428l5.795-1.465q7.854-1.906 15.72-3.763c.855-.244 2.433-.479 3.124-1.128.521.224.627 1.168.774 1.6.895 2.644 1.9 5.279 2.983 7.857 1.318 3.14 2.791 6.223 4.14 9.351 1.467 3.4 3.506 7.547 4.331 11.277.254 1.149.457 2.316.719 3.451a66.871 66.871 0 0 0 2.1 6.992c1.243 3.572 2.4 7.2 3.787 10.727.487 1.239.767 2.526 1.2 3.751a8.165 8.165 0 0 0 .837 1.495c2.814 4.312 5.454 8.68 8.08 13.1 2.567 4.324 4.823 8.84 7.454 13.117.657 1.068 1.63 2.008 2.245 3.135a27.834 27.834 0 0 0 2.093 3.209 5.248 5.248 0 0 1 .5.722c.089.181.163.629.238.759.349.6.867 1.306 1.309 1.927.48.674.607 1.446 1.037 2.093-.036-.605 0-1.217 0-1.822A82.734 82.734 0 0 0 68.99 97c-1.719-10.165-3.825-20.236-5.206-30.456-.689-5.1-1.152-10.235-1.9-15.33a37.25 37.25 0 0 1-.292-5.542 6.949 6.949 0 0 1-.013-1.158c.156-.291.79-.6 1.038-.855a6.343 6.343 0 0 0 .856-1.224 77.716 77.716 0 0 1 6.372-8.335c4.024-4.859 8.43-9.378 12.414-14.272q2.868-3.239 5.69-6.516 1.974-2.507 4.121-4.877c1.694-1.773 3.287-3.706 5.084-5.383a16.157 16.157 0 0 0 1.606-1.515c.375-.463.519-1.116.938-1.537a17.367 17.367 0 0 0 2.764 2.307c2.272 1.733 4.338 3.644 6.587 5.4 2.767 2.156 5.829 3.9 8.462 6.222-.316-.279 2.935 2.5 2.879 2.985a9.168 9.168 0 0 1-.947 1.618 48.667 48.667 0 0 1-3.569 5.183l-2.421 3.428a17.145 17.145 0 0 1-4.584 5.027c-2.929 2.486-6.107 4.684-9 7.215a55.98 55.98 0 0 0-5.251 5.126c-.328.373-.568.391-.937.678a10.844 10.844 0 0 0-.954 1.054c-1.205 1.267-2.088 2.826-3.306 4.09-.359.372-1.292 1.585-1.872 1.61.12 2.538 2.01 7.734 2.485 9.315 2.727 9.077 6.165 18.009 8.457 27.2a140.389 140.389 0 0 1 2.862 14.343c.369 2.623-.391 5.68 1.019 7.931s2.931 4.454 4.126 6.832a58.094 58.094 0 0 1 2.5 6.032 102.083 102.083 0 0 1 1.633 4.825 9.24 9.24 0 0 0 1.217 2.336c.55.814.62 1.452 1.3 2.054a3.838 3.838 0 0 1-3.706 1.058c-12.626 3.151-25.537 5.146-38.188 8.209-4.7 1.138-9.362 2.692-14.107 3.674a21.264 21.264 0 0 1-5.8.356c.035-1.812-2.389-2.874-3.473-4.021-2.256-2.389-3.215-6.166-4.083-9.177-1.122-3.893-2.036-7.832-3.079-11.744-1.314-4.925-2.946-9.759-4.726-14.545-1.357-3.649-2.918-7.22-4.2-10.9q-1-3.144-2.082-6.266a26.7 26.7 0 0 0-1.189-2.477c-1.229-2.76-2.383-5.531-3.754-8.238-2.995-5.912-5.418-12.067-8.117-18.1-1.969-4.4-3.872-8.86-5.993-13.2-.887-1.814-1.634-3.626-2.357-5.5A22.239 22.239 0 0 1 6.7 38" transform="translate(.035 .37)" style="stroke:#fff;stroke-width:2px;stroke-dasharray:6 4;fill:none"/>
                </g>
            </g>
        </g>
        <g data-name="Gruppe 2010">
            <g data-name="Gruppe 2009" style="clip-path:url(#prmr5si8cb)" transform="rotate(30 -105.287 454.708)">
                <path data-name="Pfad 1689" d="M0 14.595c.674 0 5.38-.954 6.046-1.049 1.417-.2 2.855-.635 4.253-.923 3.032-.626 10.162-1.078 13.127-1.957C30.12 8.68 37.141 7.977 43.855 6.01q2.79-.8 5.5-1.8a.59.59 0 0 1 .565.645 10.321 10.321 0 0 0 1.51 2.37A19.578 19.578 0 0 0 53.82 9.4c2.928 2.229 6.792 3.553 10.261 4.886A20.174 20.174 0 0 0 69.4 15.7c3.866.342 6.821-3.758 9.251-5.885a16.272 16.272 0 0 0 4.124-5.024 8.75 8.75 0 0 0 .866-2.815A12.863 12.863 0 0 1 83.966.07a11.352 11.352 0 0 1 3.207.187C88.34.374 89.48.3 90.656.431a30.938 30.938 0 0 0 3.835.442C96.046.9 97.606.8 99.162.831c3.35.058 6.722.325 10.069.485 4.026.192 8.081.061 12.111.06 4.2 0 8.444.173 12.641-.092A37.5 37.5 0 0 0 140.3.48a2.994 2.994 0 0 1 1.818-.427c.929 1.863.324 4.058 1.264 5.909a30.387 30.387 0 0 1 1.955 4.536c1.56 4.83 2.1 10.044 2.674 15.034.277 2.416.785 5.193.811 7.666a4.745 4.745 0 0 1-1.7.063c-2.057-.031-4.129-.161-6.183-.278a12.906 12.906 0 0 0-2.988-.207 7.259 7.259 0 0 1-1.688.188 50.848 50.848 0 0 0-6.5.756 53.365 53.365 0 0 1-11.647.557 2.8 2.8 0 0 0 .186 1.135q.8 3.248 1.533 6.51a259.45 259.45 0 0 1 1.79 8.762c1.763 9.483 4.052 18.852 5.43 28.416 1.873 13.007 3.309 26.048 4.793 39.094 0 0 .61 2.946.192 3.207-.588.367-2.693.032-3.37.028-1.4-.009-2.765.115-4.161.206-1.578.1-3.312-.173-4.866.053-3.136.456-6.468.277-9.691.583-2.571.244-5.1.637-7.683.76q-3.577.111-7.146.37c-5.013.368-9.952.976-14.983 1.281-6 .364-11.967.81-17.981 1.009q-10.463.263-20.927.465-3.44.008-6.865.289a3.487 3.487 0 0 1-2.6-.178 11.964 11.964 0 0 1-.04-3.5q0-2.295.007-4.589c.034-7.521-.586-15.054-1.234-22.549-.452-5.236-1.341-10.378-1.4-15.645-.093-7.792-.048-15.6.015-23.4.058-7.154.852-4.13.905-11.271-1.118-.146-2.251.033-3.373-.025-1-.052-1.915-.272-2.936-.321-4.258-.206-8.494.237-12.649-.6-1.813-.366-6.386.306-8.281.047z" transform="translate(.223 .204)" style="stroke:#fff;stroke-width:2px;stroke-dasharray:6 4;fill:none"/>
            </g>
        </g>
        <g data-name="Gruppe 2012">
            <g data-name="Gruppe 2011" transform="rotate(-57 230.432 105.369)" style="clip-path:url(#pqr771c9hc)">
                <path data-name="Pfad 1690" d="M26.217 0C13.937 6.693 6.6 16.3 3.124 26.161S-.266 46.217.291 56.3c.976 17.7 3.649 36.026 17.74 51.477" transform="translate(9.647 .346)" style="stroke-miterlimit:10;stroke:#fff;stroke-width:2px;stroke-dasharray:6 4;fill:none"/>
                <path data-name="Pfad 1691" d="M0 4.964q7.824 5.356 16.082 10.464c4.951 3.063 10.339 6.172 17.139 7.253Q40.124 11.24 47.868 0" transform="translate(.514 95.88)" style="stroke-miterlimit:10;stroke:#fff;stroke-width:2px;stroke-dasharray:6 4;fill:none"/>
            </g>
        </g>
    </g>
</svg>
