<svg xmlns="http://www.w3.org/2000/svg" width="1167.112" height="900.72" viewBox="0 0 1167.112 900.72">
    <defs>
        <clipPath id="ayjp9457ea">
            <path data-name="Rechteck 468" style="fill:none;stroke:#fff;stroke-width:2px;stroke-dasharray:6 4" d="M0 0h326.7v278.044H0z"/>
        </clipPath>
        <clipPath id="jsl6vhv8zb">
            <path data-name="Rechteck 545" transform="translate(-3.418 -1.859)" style="fill:none;stroke:#fff;stroke-width:2px;stroke-dasharray:6 4" d="M0 0h108.488v51.794H0z"/>
        </clipPath>
        <clipPath id="7rua8sqqyc">
            <path data-name="Rechteck 469" style="fill:none;stroke:#fff;stroke-width:2px;stroke-dasharray:6 4" d="M0 0h124.657v302.821H0z"/>
        </clipPath>
        <clipPath id="qp1jl6uoed">
            <path data-name="Rechteck 469" style="fill:none;stroke:#fff;stroke-width:2px;stroke-dasharray:6 4" d="M0 0h101.288v253.189H0z"/>
        </clipPath>
        <clipPath id="szl9p77y1e">
            <path data-name="Rechteck 544" style="fill:none;stroke:#fff;stroke-width:2px;stroke-dasharray:6 4" d="M0 0h308.409v482.708H0z"/>
        </clipPath>
    </defs>
    <g data-name="Gruppe 2067">
        <g data-name="Gruppe 2010">
            <g data-name="Gruppe 2009" style="clip-path:url(#ayjp9457ea)" transform="rotate(-17 319.563 47.759)">
                <path data-name="Pfad 1689" d="M1.1 32.948c1.476 0 11.777-2.089 13.234-2.3 3.1-.44 6.249-1.389 9.31-2.021 6.637-1.37 22.244-2.359 28.735-4.284C67.03 20 82.4 18.462 97.1 14.155q6.108-1.744 12.032-3.95a1.292 1.292 0 0 1 1.237 1.411 22.593 22.593 0 0 0 3.31 5.2 42.854 42.854 0 0 0 5.232 4.769c6.409 4.879 14.867 7.778 22.461 10.695a44.16 44.16 0 0 0 11.639 3.088c8.463.748 14.931-8.226 20.251-12.881 3.664-3.205 6.941-6.7 9.027-11a19.153 19.153 0 0 0 1.9-6.161 28.159 28.159 0 0 1 .714-4.175c2.334-.44 4.862.191 7.02.409 2.555.257 5.05.092 7.625.382a67.723 67.723 0 0 0 8.394.966c3.4.068 6.818-.151 10.224-.09 7.334.128 14.714.712 22.042 1.061 8.813.421 17.688.133 26.51.131 9.2 0 18.483.379 27.67-.2a82.1 82.1 0 0 0 13.826-1.76 6.553 6.553 0 0 1 3.98-.935c2.034 4.078.71 8.884 2.766 12.934a66.52 66.52 0 0 1 4.279 9.929c3.414 10.573 4.6 21.986 5.854 32.909.606 5.288 1.717 11.367 1.775 16.781-1.082.427-2.574.155-3.711.138-4.5-.067-9.039-.352-13.534-.607-2.18-.123-4.4-.842-6.54-.452a15.889 15.889 0 0 1-3.7.411c-4.784-.031-9.507 1.076-14.222 1.656-8.183 1.008-17.225 2.074-25.495 1.22a6.118 6.118 0 0 0 .407 2.483q1.753 7.109 3.355 14.249a570.496 570.496 0 0 1 3.919 19.18c3.86 20.757 8.871 41.266 11.885 62.2 4.1 28.473 7.244 57.019 10.492 85.576 0 0 1.336 6.449.421 7.019-1.287.8-5.895.069-7.376.061-3.061-.02-6.052.252-9.107.451-3.455.225-7.249-.379-10.652.116-6.865 1-14.158.607-21.212 1.276-5.628.533-11.154 1.394-16.817 1.663q-7.831.243-15.642.811c-10.972.8-21.785 2.137-32.8 2.8-13.139.8-26.2 1.773-39.359 2.208q-22.9.575-45.808 1.019-7.53.018-15.026.632a7.634 7.634 0 0 1-5.7-.389c-.749-2.2-.087-5.379-.087-7.655q0-5.023.014-10.045c.073-16.464-1.284-32.953-2.7-49.359-.99-11.461-2.935-22.717-3.073-34.246-.2-17.056-.1-34.157.033-51.214.126-15.659 1.864-9.041 1.982-24.672-2.448-.319-4.927.073-7.383-.056-2.186-.114-4.192-.6-6.427-.7-9.32-.452-18.593.519-27.688-1.317-3.968-.8-13.978.67-18.127.1z" transform="translate(-.609 -.555)" style="fill:none;stroke:#fff;stroke-width:2px;stroke-dasharray:6 4"/>
                <g data-name="Gruppe 2316">
                    <g data-name="Gruppe maskieren 2312" transform="rotate(-8 139.972 -680.576)" style="clip-path:url(#jsl6vhv8zb)">
                        <path data-name="Pfad 1985" d="M.373.332C10.636 24.92 20.659 28.643 32.789 37.541s26.456 11.364 38.756 3.112a78.681 78.681 0 0 0 29.4-35" transform="translate(.135 .407)" style="stroke-miterlimit:10;fill:none;stroke:#fff;stroke-width:2px;stroke-dasharray:6 4"/>
                    </g>
                </g>
            </g>
        </g>
        <g data-name="Gruppe 2012">
            <g data-name="Gruppe 2011" transform="rotate(-53 682.128 130.321)" style="clip-path:url(#7rua8sqqyc)">
                <path data-name="Pfad 1690" d="M66.66 274.044c-31.223-17.019-49.873-41.444-58.716-66.52S-.675 156.53.739 130.889C3.219 85.872 10.017 39.286 45.844 0" transform="translate(24.53 27.898)" style="stroke-miterlimit:10;fill:none;stroke:#fff;stroke-width:2px;stroke-dasharray:6 4"/>
                <path data-name="Pfad 1691" d="M0 45.047q19.894-13.62 40.89-26.607C53.479 10.652 67.179 2.747 84.469 0q17.553 29.09 37.243 57.669" transform="translate(1.306 1.361)" style="stroke-miterlimit:10;fill:none;stroke:#fff;stroke-width:2px;stroke-dasharray:6 4"/>
            </g>
        </g>
        <g data-name="Gruppe 2013">
            <g data-name="Gruppe 2011" transform="scale(-1) rotate(-66 -558.39 534.804)" style="clip-path:url(#qp1jl6uoed)">
                <path data-name="Pfad 1690" d="M54.164 229.129C28.794 214.9 13.64 194.475 6.455 173.512s-7-42.636-5.854-64.075C2.616 71.8 8.139 32.847 37.25 0" transform="translate(19.932 23.326)" style="stroke-miterlimit:10;fill:none;stroke:#fff;stroke-width:2px;stroke-dasharray:6 4"/>
                <path data-name="Pfad 1691" d="M0 37.664q16.165-11.387 33.225-22.246C43.454 8.906 54.585 2.3 68.634 0Q82.9 24.322 98.9 48.217" transform="translate(1.062 1.138)" style="stroke-miterlimit:10;fill:none;stroke:#fff;stroke-width:2px;stroke-dasharray:6 4"/>
            </g>
        </g>
        <g data-name="Gruppe 2322">
            <g data-name="Gruppe 2308" style="clip-path:url(#szl9p77y1e)" transform="rotate(27 -242.36 2023.644)">
                <path data-name="Pfad 1980" d="M90.909.438c49.572 29.222 104.2 46.98 159.7 51.92" transform="translate(0 .032)" style="stroke-miterlimit:10;fill:none;stroke:#fff;stroke-width:2px;stroke-dasharray:6 4"/>
                <path data-name="Pfad 1981" d="M94.776 1.454c55.873 3.625 111.011 21.614 160.253 52.281" transform="translate(0 .107)" style="stroke-miterlimit:10;fill:none;stroke:#fff;stroke-width:2px;stroke-dasharray:6 4"/>
                <path data-name="Pfad 1982" d="M85.068 9.8A2086.253 2086.253 0 0 0 .557 396.335q64.55 12.66 129.724 21.35c10.106-96.445 7.635-193.833 3.638-290.774a2041.145 2041.145 0 0 1 38.206 349.863 536.9 536.9 0 0 1 115.383 4.093c5.751.83 12.476 1.422 16.489-3 3.039-3.352 3.373-8.435 3.505-13.071 4.006-141.616-22.185-282.131-51.644-420.358" transform="translate(0 .724)" style="stroke-miterlimit:10;fill:none;stroke:#fff;stroke-width:2px;stroke-dasharray:6 4"/>
                <path data-name="Pfad 1983" d="M107.006 11.784c-2.51 13.722-6.992 27.1-14.113 38.449S75.9 70.846 64.415 75.343h1.494" transform="translate(0 .871)" style="stroke-miterlimit:10;fill:none;stroke:#fff;stroke-width:2px;stroke-dasharray:6 4"/>
                <path data-name="Pfad 1984" d="M222.553 48.3c3.983 14.341 8.066 28.92 15.5 41.29s18.847 22.43 31.837 23.547" transform="translate(0 3.569)" style="stroke-miterlimit:10;fill:none;stroke:#fff;stroke-width:2px;stroke-dasharray:6 4"/>
            </g>
        </g>
    </g>
</svg>
