<svg xmlns="http://www.w3.org/2000/svg" width="133.164" height="189.113" viewBox="0 0 133.164 189.113">
  <g id="Gruppe_1599" data-name="Gruppe 1599" transform="translate(-666.433 -2909.352)">
    <path id="Pfad_1252" data-name="Pfad 1252" d="M754.1,2990.024l-.127-2a10.049,10.049,0,0,0,4.217-1.284l.965,1.752A12.053,12.053,0,0,1,754.1,2990.024Zm-43.086-4.221a24.706,24.706,0,0,1-7.121-1.458l.686-1.879a22.754,22.754,0,0,0,6.545,1.341Zm5.185-.238-.289-1.978a26.344,26.344,0,0,0,6.47-1.827l.78,1.842A28.312,28.312,0,0,1,716.2,2985.565Zm47.108-.346-1.456-1.371a21.6,21.6,0,0,0,3.451-4.967c.094-.186.186-.372.277-.561l1.8.866q-.145.3-.3.6A23.29,23.29,0,0,1,763.308,2985.219Zm-35.585-4.032-1.081-1.684a30.471,30.471,0,0,0,5.246-4.268l1.425,1.4A32.57,32.57,0,0,1,727.723,2981.187Zm41.522-6.794-1.91-.594a52.4,52.4,0,0,0,1.559-6.686l1.971.34A54.49,54.49,0,0,1,769.245,2974.393Zm-32.614-1.691-1.623-1.17a32.574,32.574,0,0,0,2.506-4.086q.461-.89.874-1.8l1.82.828q-.435.955-.918,1.892A34.5,34.5,0,0,1,736.631,2972.7Zm34.95-10.244-1.984-.248.041-.343c.257-2.176.476-4.387.648-6.577l1.994.158c-.175,2.214-.4,4.453-.656,6.654Zm-29.524-.739-1.9-.629a65.321,65.321,0,0,0,1.795-6.651l1.955.427A67.489,67.489,0,0,1,742.057,2961.719Zm30.545-11.29-2-.1c.114-2.308.182-4.649.2-6.955l2,.018C772.786,2945.725,772.717,2948.092,772.6,2950.429Zm-27.736-.516-1.971-.338c.4-2.314.744-4.679,1.06-6.891l1.98.283C745.617,2945.192,745.267,2947.575,744.866,2949.913Zm25.909-11.51c-.055-2.593-.173-4.857-.357-6.922l1.992-.177c.189,2.109.308,4.418.365,7.056Zm-24.131-.382-1.979-.291c.415-2.827.766-4.969,1.136-6.95l1.965.367C747.4,2933.1,747.056,2935.221,746.644,2938.021ZM769.8,2926.6a44.211,44.211,0,0,0-1.466-6.159l-.158-.476,1.894-.645q.087.256.169.513a46.224,46.224,0,0,1,1.533,6.435Zm-21.006-.293-1.943-.471c.4-1.642.817-3.15,1.284-4.612.239-.752.507-1.5.8-2.217l1.856.744c-.271.675-.522,1.375-.747,2.08C749.588,2923.248,749.181,2924.712,748.794,2926.308Zm17.392-10.686a10.355,10.355,0,0,0-4.488-4.378l.776-1.844a12.131,12.131,0,0,1,5.424,5.187Zm-13.212-.141-1.674-1.093a12.471,12.471,0,0,1,5.55-5.036l.743,1.857A10.711,10.711,0,0,0,752.974,2915.481Z" fill="#181b1f"/>
    <path id="Pfad_1253" data-name="Pfad 1253" d="M771.8,3020.474c-1.414,0-2.835-.027-4.227-.076l.07-2c2.283.08,4.62.1,6.94.04l.048,2Q773.219,3020.474,771.8,3020.474Zm7.867-.256-.13-2c2.3-.15,4.623-.369,6.909-.654l.247,1.985C784.372,3019.842,782.008,3020.065,779.671,3020.218Zm-17.128-.1c-2.341-.179-4.7-.43-7.018-.745l.27-1.982c2.277.309,4.6.556,6.9.733Zm29.141-1.29-.327-1.973.308-.052c2.6-.441,4.317-1.246,5.26-2.465l1.582,1.223c-1.263,1.634-3.39,2.686-6.5,3.213Zm-41.139-.237c-1.463-.261-2.948-.555-4.413-.873-.831-.18-1.671-.375-2.51-.594l.5-1.935c.812.21,1.624.4,2.429.574,1.442.313,2.9.6,4.341.859Zm-11.8-3.068a21.685,21.685,0,0,1-6.232-3.8l1.329-1.5a19.739,19.739,0,0,0,5.669,3.445Zm58.906-5.093a12,12,0,0,0-2.792-4.851q-.281-.326-.564-.645l1.5-1.327q.291.331.58.665a13.738,13.738,0,0,1,3.227,5.705Zm-68.526-2.747a13.616,13.616,0,0,1-1.933-5.9c-.008-.193-.01-.335-.01-.475,0-.3.011-.588.031-.879l1.995.138c-.017.246-.025.494-.026.743,0,.117,0,.235.006.355a11.558,11.558,0,0,0,1.644,4.974Zm61.769-6.309a62.878,62.878,0,0,0-5.2-4.516l1.225-1.58a64.4,64.4,0,0,1,5.367,4.661Zm-32.435-3.593a17.468,17.468,0,0,1-4.889-5.51l.408-.232a12.246,12.246,0,0,0-3.023-1.289l.545-1.924a13.155,13.155,0,0,1,6.372,3.881l-.98.872a15.486,15.486,0,0,0,2.752,2.591Zm-27.975-1.562-1.755-.959a12.625,12.625,0,0,1,4.147-4.491,13.28,13.28,0,0,1,1.231-.713l.91,1.781a11.911,11.911,0,0,0-1.047.6A10.643,10.643,0,0,0,730.481,2996.219Zm51.2-2.211a57.2,57.2,0,0,0-5.975-3.4l.882-1.794a59.163,59.163,0,0,1,6.185,3.521Zm-42.213-3.568-.327-1.972a34.163,34.163,0,0,1,4.37-.4c.928-.035,1.871-.04,2.811,0l-.076,2c-.891-.032-1.783-.026-2.663,0A32.45,32.45,0,0,0,739.472,2990.44Zm31.741-1.8a51.949,51.949,0,0,0-6.553-2.034l.462-1.945a53.8,53.8,0,0,1,6.808,2.111Zm-16.815-.885-1.6-1.2a3.448,3.448,0,0,1,.619-.635,9.051,9.051,0,0,1,6.572-2.067l-.063,2a7.215,7.215,0,0,0-5.222,1.6A1.692,1.692,0,0,0,754.4,2987.755Z" fill="#181b1f"/>
    <path id="Pfad_1254" data-name="Pfad 1254" d="M775.539,3050.369l-.019-2c.8-.008,1.592-.022,2.384-.045a37.054,37.054,0,0,0,4.462-.322l.3,1.978a38.818,38.818,0,0,1-4.7.344Q776.755,3050.358,775.539,3050.369Zm-5.038-.043c-2.415-.068-4.787-.208-7.051-.416l.183-1.992c2.221.2,4.551.342,6.925.408Zm-12.068-1.009c-2.388-.345-4.73-.785-6.961-1.306l.455-1.947c2.176.507,4.462.936,6.794,1.275Zm29.3-.916-.932-1.769a13.233,13.233,0,0,0,4.718-4.38l1.661,1.113A15.214,15.214,0,0,1,787.731,3048.4Zm-41.153-1.709a66.691,66.691,0,0,1-6.669-2.445l.79-1.838a64.072,64.072,0,0,0,6.468,2.371Zm-11.25-4.648a57.209,57.209,0,0,1-6.061-3.736l1.155-1.633a55.328,55.328,0,0,0,5.848,3.6Zm60.12-3.434-1.909-.6q.164-.523.294-1.063a18.335,18.335,0,0,0,.5-4.239q0-.625-.043-1.246l2-.137c.031.459.047.921.047,1.383a20.355,20.355,0,0,1-.553,4.706Q795.631,3038.023,795.448,3038.61Zm-70.194-3.421-.235-.2a16.037,16.037,0,0,1-4.457-5.509l1.831-.8a14.238,14.238,0,0,0,3.936,4.8l.215.184Zm68.107-8.36a18.434,18.434,0,0,0-1.381-3.1l1.744-.978a20.421,20.421,0,0,1,1.531,3.433Zm-71.574-2.518-1.984-.248a12.959,12.959,0,0,1,3.114-6.813l1.5,1.326A10.925,10.925,0,0,0,721.787,3024.311Zm6.318-8.414-.851-1.811a25.928,25.928,0,0,1,7-1.926l.312,1.975A24.086,24.086,0,0,0,728.1,3015.9Z" fill="#181b1f"/>
    <path id="Pfad_1255" data-name="Pfad 1255" d="M754.571,3069.46a49.59,49.59,0,0,1-7.114-.612l.324-1.975a47.3,47.3,0,0,0,6.823.587Zm5.078-.125-.128-2c1.386-.089,2.833-.223,4.3-.4.847-.1,1.7-.215,2.552-.361l.335,1.973c-.883.149-1.77.269-2.65.375C762.555,3069.106,761.072,3069.244,759.649,3069.335Zm-17.189-1.641a32.178,32.178,0,0,1-6.628-2.834l.994-1.736a30.176,30.176,0,0,0,6.216,2.656Zm29.271-.475-.733-1.862a13.558,13.558,0,0,0,3.886-2.286,10.5,10.5,0,0,0,1.358-1.4l1.555,1.256a12.445,12.445,0,0,1-1.618,1.669A15.546,15.546,0,0,1,771.731,3067.219Zm-40.143-5.3a29.54,29.54,0,0,1-2.2-2.03,17.943,17.943,0,0,1-2.739-3.317l1.683-1.08a16.115,16.115,0,0,0,2.459,2.972,28.089,28.089,0,0,0,2.075,1.92Zm48.728-3.7-1.907-.6a11.039,11.039,0,0,0,.53-3.319,8.731,8.731,0,0,0-.485-2.925l1.886-.668a10.728,10.728,0,0,1,.6,3.593A13.021,13.021,0,0,1,780.316,3058.213Zm-55.834-6.451a18.082,18.082,0,0,1-.47-2.127,11.578,11.578,0,0,1-.085-1.409,12.391,12.391,0,0,1,.648-3.945l1.893.645a10.366,10.366,0,0,0-.541,3.3,9.654,9.654,0,0,0,.066,1.135,15.866,15.866,0,0,0,.412,1.852Zm4.439-10.3-1.068-1.692a5.736,5.736,0,0,1,1.244-.592l.635,1.9A3.775,3.775,0,0,0,728.921,3041.466Z" fill="#181b1f"/>
    <path id="Pfad_1256" data-name="Pfad 1256" d="M755.4,3098.465a43.054,43.054,0,0,1-7.07-1.119l.459-1.948a41.073,41.073,0,0,0,6.742,1.071Zm5.177-.122-.243-1.985a20.685,20.685,0,0,0,3.211-.649,17.82,17.82,0,0,0,3.128-1.24l.91,1.781a19.9,19.9,0,0,1-3.482,1.38A22.78,22.78,0,0,1,760.581,3098.343ZM743.441,3096a46.8,46.8,0,0,1-6.646-2.624l.884-1.8a44.74,44.74,0,0,0,6.364,2.511Zm28.465-2.738-1.345-1.481a17.814,17.814,0,0,0,3.982-5.253l1.789.893A19.8,19.8,0,0,1,771.906,3093.267Zm-39.548-2.5a27.01,27.01,0,0,1-5.345-4.891l1.541-1.276a25.044,25.044,0,0,0,4.95,4.529Zm45.661-8.338-1.97-.346a15.784,15.784,0,0,0,.232-2.721,17.106,17.106,0,0,0-.437-3.833l1.949-.449a19.1,19.1,0,0,1,.488,4.282A17.815,17.815,0,0,1,778.019,3082.434Zm-53.889-.879a27.23,27.23,0,0,1-2.436-6.825l1.954-.423a25.253,25.253,0,0,0,2.255,6.322Zm50.006-10.369a8.65,8.65,0,0,0-4.635-4.024l.609-1.9a10.585,10.585,0,0,1,5.743,4.9Zm-53.106-1.573q-.033-.714-.033-1.431a30.593,30.593,0,0,1,.545-5.772l1.964.379a28.5,28.5,0,0,0-.509,5.393q0,.671.031,1.34Zm3.82-11.434-1.856-.744c.151-.379.313-.754.481-1.122l1.818.834Q725.06,3057.654,724.85,3058.179Z" fill="#181b1f"/>
    <path id="Pfad_1257" data-name="Pfad 1257" d="M720.766,3079.306a67.718,67.718,0,0,1-6.69-2.368l.765-1.848a65.765,65.765,0,0,0,6.491,2.3Zm-11.3-4.475c-2.08-1.041-4.159-2.208-6.178-3.471l1.06-1.7c1.966,1.229,3.989,2.364,6.013,3.377Zm-10.383-6.29c-1.894-1.36-3.768-2.833-5.569-4.375l1.3-1.519c1.759,1.505,3.587,2.942,5.436,4.269Zm-9.313-7.776c-1.681-1.619-3.33-3.338-4.9-5.109l1.5-1.326c1.534,1.732,3.146,3.411,4.789,4.993Zm-8.149-8.979c-1.449-1.825-2.858-3.741-4.186-5.693l1.654-1.125c1.3,1.912,2.679,3.787,4.1,5.574Zm-6.917-9.941c-1.212-2-2.372-4.072-3.448-6.166l1.779-.914c1.054,2.052,2.191,4.086,3.379,6.041Zm-5.64-10.714c-.946-2.093-1.831-4.247-2.631-6.4l1.875-.7c.784,2.112,1.651,4.223,2.578,6.276Z" fill="#181b1f"/>
  </g>
</svg>
