<svg xmlns="http://www.w3.org/2000/svg" width="40" height="40" viewBox="0 0 40 40">
    <path d="M20 0a20 20 0 1 0 20 20A20.059 20.059 0 0 0 20 0zm8 15.875v.5A11.57 11.57 0 0 1 16.375 28a10.559 10.559 0 0 1-6.25-1.875h1a8.2 8.2 0 0 0 5.125-1.75 4.3 4.3 0 0 1-3.875-2.875c.25 0 .5.125.75.125a3.461 3.461 0 0 0 1.125-.125 4.035 4.035 0 0 1-3.25-4 4.141 4.141 0 0 0 1.875.5A4.1 4.1 0 0 1 11 14.625a5.889 5.889 0 0 1 .5-2.125 11.29 11.29 0 0 0 8.5 4.25 2.127 2.127 0 0 1-.125-.875A4.162 4.162 0 0 1 24 11.75 4.365 4.365 0 0 1 27 13a6.734 6.734 0 0 0 2.625-1 3.99 3.99 0 0 1-1.75 2.25 13.185 13.185 0 0 0 2.375-.625 9.547 9.547 0 0 1-2.25 2.25z" style="fill:#2b2e34"/>
</svg>
