<svg xmlns="http://www.w3.org/2000/svg" width="1210.982" height="921.661" viewBox="0 0 1210.982 921.661">
    <defs>
        <clipPath id="6ldf4ycbea">
            <path data-name="Pfad 1688" d="M0-433.649h345.624v-373.289H0z" transform="translate(0 806.938)" style="fill:none"/>
        </clipPath>
        <clipPath id="4q8uudgzib">
            <path data-name="Pfad 1987" d="m0 0 61.892 3.676.5 8.566L.5 8.566z" style="stroke-dasharray:6 4;stroke:#fff;stroke-width:2px;fill:none"/>
        </clipPath>
        <clipPath id="9bhtv2ma2c">
            <path data-name="Pfad 1988" d="m0 0 59.436-2.475-.565 14.817-59.436 2.475z" style="stroke-dasharray:6 4;stroke:#fff;stroke-width:2px;fill:none"/>
        </clipPath>
        <clipPath id="fd7knkkfnd">
            <path data-name="Rechteck 470" style="stroke-dasharray:6 4;stroke:#fff;stroke-width:2px;fill:none" d="M0 0h248.834v206.996H0z"/>
        </clipPath>
        <clipPath id="we0mcvpope">
            <path data-name="Rechteck 545" style="stroke-dasharray:6 4;stroke:#fff;stroke-width:2px;fill:none" d="M0 0h81.26v29.074H0z"/>
        </clipPath>
    </defs>
    <g data-name="Gruppe 2068">
        <g data-name="Gruppe 2016">
            <path data-name="Pfad 1536" d="M0 153.741c25.108-65.394 113.11-67.023 165.173-47.362s37.333 48.612 24.529 62.956-38.687 26.993-67.35-6.166-30.262-63.545 11.556-99.823S244.76-8.088 309.328 1.643" transform="rotate(56.98 298.992 774.946)" style="stroke-dasharray:6 4;stroke:#fff;stroke-width:2px;fill:none"/>
            <path data-name="Pfad 1105" d="m0 0 46.224 5.427-22.637 35.844" transform="rotate(86.97 307.2 676.203)" style="stroke-dasharray:6 4 6 4 6 4;stroke:#fff;stroke-width:2px;fill:none"/>
        </g>
        <g data-name="Gruppe 2008">
            <g data-name="Gruppe 2007" transform="rotate(37 112.795 335.685)" style="clip-path:url(#6ldf4ycbea)">
                <g data-name="Gruppe 2006">
                    <path data-name="Pfad 1687" d="M0-359.894a53.287 53.287 0 0 1 5.432 1.075l16.6 3.726q22.495 4.846 45.025 9.569c2.448.621 6.969 1.218 8.947 2.868 1.492-.569 1.8-2.971 2.216-4.074 2.563-6.724 5.447-13.424 8.545-19.978 3.776-7.985 7.993-15.822 11.858-23.776 4.2-8.65 10.041-19.19 12.405-28.674.728-2.92 1.31-5.888 2.059-8.774a156.043 156.043 0 0 1 6.022-17.779c3.559-9.082 6.88-18.313 10.846-27.275 1.394-3.149 2.2-6.422 3.448-9.538a20.233 20.233 0 0 1 2.4-3.8c8.059-10.964 15.622-22.07 23.144-33.318 7.351-10.993 13.815-22.477 21.35-33.351 1.881-2.715 4.668-5.106 6.429-7.971a70.553 70.553 0 0 1 6-8.16 13.434 13.434 0 0 0 1.436-1.837c.254-.461.468-1.6.683-1.931 1-1.537 2.483-3.32 3.75-4.9 1.375-1.713 1.737-3.677 2.97-5.323-.1 1.54.005 3.094-.008 4.634-.1 11.454-1.783 22.482-3.942 33.816-4.923 25.846-10.957 51.453-14.912 77.439-1.975 12.976-3.3 26.025-5.432 38.979a84.2 84.2 0 0 0-.837 14.091 15.694 15.694 0 0 0-.038 2.945c.446.741 2.261 1.535 2.973 2.174a16.264 16.264 0 0 1 2.452 3.111c5.207 7.458 11.928 14.4 18.242 21.172C211.579-372.4 224.2-360.9 235.61-348.463q8.215 8.236 16.3 16.568 5.653 6.376 11.8 12.4c4.852 4.508 9.415 9.424 14.561 13.686a44.489 44.489 0 0 1 4.6 3.863c1.073 1.177 1.487 2.837 2.686 3.909 2.9-2.7 3.607-2.944 7.918-5.865 6.507-4.406 12.424-9.265 18.867-13.723 7.926-5.483 16.7-9.9 24.237-15.821-.905.71 8.406-6.35 8.246-7.59-.1-.8-2.595-3.926-2.713-4.113-3.032-4.784-6.493-8.711-10.223-13.178l-6.935-8.716a45.994 45.994 0 0 0-13.13-12.781c-8.389-6.321-17.491-11.909-25.78-18.345a153.332 153.332 0 0 1-15.038-13.031c-.94-.949-1.626-.994-2.685-1.723a29.063 29.063 0 0 1-2.733-2.679c-3.452-3.222-5.982-7.185-9.469-10.4-1.027-.947-3.7-4.03-5.362-4.094.344-6.454 5.758-19.664 7.119-23.685 7.81-23.08 17.66-45.79 24.222-69.169a321.837 321.837 0 0 0 8.2-36.469c1.056-6.669-1.12-14.441 2.917-20.167s8.394-11.325 11.818-17.371a138.987 138.987 0 0 0 7.167-15.338 239.624 239.624 0 0 0 4.677-12.267 22.691 22.691 0 0 1 3.486-5.941c1.575-2.07 1.776-3.692 3.716-5.221q-3.65-3.652-10.614-2.69c-36.165-8.012-73.145-13.086-109.382-20.872-13.462-2.893-26.814-6.845-40.407-9.342a68.463 68.463 0 0 0-16.606-.906c.1 4.606-6.844 7.307-9.947 10.224-6.461 6.073-9.21 15.679-11.7 23.333-3.215 9.9-5.831 19.914-8.82 29.86a375.888 375.888 0 0 1-13.536 36.982c-3.887 9.277-8.359 18.357-12.017 27.706q-2.877 8-5.964 15.932a64.877 64.877 0 0 1-3.407 6.3c-3.521 7.017-6.826 14.063-10.753 20.945-8.577 15.032-15.518 30.681-23.25 46.034-5.639 11.2-11.092 22.528-17.167 33.557-2.54 4.612-4.68 9.219-6.751 14-1.319 3.04-17.571 31.635-18.142 34.874" transform="translate(.099 670.387)" style="stroke-dasharray:6 4;stroke:#fff;stroke-width:2px;fill:none"/>
                    <g data-name="Gruppe 2320">
                        <g data-name="Gruppe 2314" transform="rotate(-49 114.781 -114.664)" style="clip-path:url(#4q8uudgzib)">
                            <path data-name="Pfad 1986" d="M0 0a94.349 94.349 0 0 0 21.114 8.079c8.157 2.006 17.707 2.994 25.8 2.065a58.072 58.072 0 0 0 14.475-3.771" transform="translate(.345 .147)" style="stroke-miterlimit:10;stroke-dasharray:6 4;stroke:#fff;stroke-width:2px;fill:none"/>
                        </g>
                    </g>
                    <g data-name="Gruppe 2321">
                        <g data-name="Gruppe 2314" transform="rotate(69 121.562 220.879)" style="clip-path:url(#9bhtv2ma2c)">
                            <path data-name="Pfad 1986" d="M0 0a55.234 55.234 0 0 0 19.441 11.019c7.647 2.318 16.767 2.669 24.716-.107 5.556-1.94 10.186-5.239 14.464-8.628" transform="translate(.316 .206)" style="stroke-miterlimit:10;stroke-dasharray:6 4;stroke:#fff;stroke-width:2px;fill:none"/>
                        </g>
                    </g>
                </g>
            </g>
        </g>
        <g data-name="Gruppe 2018">
            <g data-name="Gruppe 2017" style="clip-path:url(#fd7knkkfnd)" transform="rotate(-31 1787.343 -1234.449)">
                <path data-name="Pfad 1692" d="M27.51 16.533q108.438 9.027 217.416 7.195c1.312-.022 2.828.047 3.625 1.09a4.269 4.269 0 0 1 .469 3.029q-7.552 80.016-15.1 160.032c-43.253-4.156-55.5-5.022-98.88-2.534-1 .057-2.309-15.665-3.086-16.3-1.018-.829-1.723-13.859-1.612-15.167 2.3-27.068-6.483-43.127-4.187-70.194-7.166 24.356-42.125 87.22-47.55 112.022-47.514-9.715-51.128-11.214-77.976-17.912 11.9-59.232 18.846-97.832 30.742-157.064" transform="translate(-.418 -.066)" style="stroke-miterlimit:10;stroke-dasharray:6 4;stroke:#fff;stroke-width:2px;fill:none"/>
                <g data-name="Gruppe 2318">
                    <g data-name="Gruppe maskieren 2312" transform="rotate(54.97 84.97 205.196)" style="clip-path:url(#we0mcvpope)">
                        <path data-name="Pfad 1985" d="M.373.332C8.061 8.99 15.568 10.3 24.654 13.434s19.816 4 29.03 1.1c6.44-2.031 15.9-5.646 22.022-12.324" transform="translate(2.568 1.126)" style="stroke-miterlimit:10;stroke-dasharray:6 4;stroke:#fff;stroke-width:2px;fill:none"/>
                    </g>
                </g>
                <g data-name="Gruppe 2319">
                    <g data-name="Gruppe maskieren 2312" transform="rotate(-53 83.836 29.958)" style="clip-path:url(#we0mcvpope)">
                        <path data-name="Pfad 1985" d="M.373.332C8.061 8.99 15.568 10.3 24.654 13.434s19.816 4 29.03 1.1c6.44-2.031 15.9-5.646 22.022-12.324" transform="translate(2.568 1.126)" style="stroke-miterlimit:10;stroke-dasharray:6 4;stroke:#fff;stroke-width:2px;fill:none"/>
                    </g>
                </g>
            </g>
        </g>
    </g>
</svg>
